# Blender 3.6.23
# www.blender.org
mtllib autocreto.mtl
o Cube
v 2.984273 1.000000 -1.000000
v 2.984273 -1.000000 -1.000000
v 2.984273 1.000000 1.000000
v 2.984273 -1.000000 1.000000
v -1.000000 1.000000 -1.000000
v -1.000000 -1.000000 -1.000000
v -1.000000 1.000000 1.000000
v -1.000000 -1.000000 1.000000
v 2.984273 1.014784 1.000000
v -1.000000 1.014784 1.000000
v 2.984273 1.014784 -1.000000
v -1.000000 1.014784 -1.000000
v 2.766466 0.859889 0.890667
v -0.782194 0.859889 0.890667
v 2.766466 0.859889 -0.890667
v -0.782194 0.859889 -0.890667
v 2.821211 1.062991 -1.054336
v 2.685676 1.062991 -1.003559
v 2.554195 1.062991 -1.055495
v 2.502645 1.062991 -1.187361
v 2.555354 1.062991 -1.313147
v 2.685676 1.062991 -1.364214
v 2.820342 1.062991 -1.314305
v 2.873340 1.062991 -1.187361
v 2.604007 1.062991 -1.098839
v 2.684904 1.062991 -1.065341
v 2.771206 1.062991 -1.097874
v 2.803063 1.062991 -1.186589
v 2.769758 1.062991 -1.269706
v 2.684904 1.062991 -1.302431
v 2.604587 1.062991 -1.269802
v 2.572923 1.062991 -1.187361
v 2.456309 1.062991 -1.357263
v 2.456309 1.062991 -1.295481
v 2.346645 1.062991 -1.295481
v 2.346645 1.062991 -1.117856
v 2.363828 1.062991 -1.076250
v 2.396071 1.062991 -1.065341
v 2.433913 1.062991 -1.071713
v 2.474071 1.062991 -1.090827
v 2.474071 1.062991 -1.026727
v 2.431789 1.062991 -1.010220
v 2.390665 1.062991 -1.003559
v 2.306197 1.062991 -1.034547
v 2.277912 1.062991 -1.112450
v 2.277912 1.062991 -1.295481
v 2.217674 1.062991 -1.295481
v 2.217674 1.062991 -1.303203
v 2.346645 1.062991 -1.429085
v 2.346645 1.062991 -1.357263
v 2.123263 1.062991 -1.013598
v 2.047773 1.062991 -1.003559
v 1.923049 1.062991 -1.059935
v 1.879416 1.062991 -1.188134
v 1.924594 1.062991 -1.315560
v 2.041594 1.062991 -1.364214
v 2.151355 1.062991 -1.316911
v 2.192189 1.062991 -1.173460
v 1.948148 1.062991 -1.173460
v 1.985604 1.062991 -1.095557
v 2.064763 1.062991 -1.069203
v 2.125966 1.062991 -1.080208
v 2.186011 1.062991 -1.110906
v 2.186011 1.062991 -1.044490
v 2.101060 1.062991 -1.281580
v 2.043139 1.062991 -1.304748
v 1.980198 1.062991 -1.282449
v 1.949693 1.062991 -1.219025
v 2.124228 1.062991 -1.219025
v 1.663949 1.062991 -1.277718
v 1.665494 1.062991 -1.277718
v 1.716561 1.062991 -1.343845
v 1.765890 1.062991 -1.364214
v 1.806918 1.062991 -1.354270
v 1.848525 1.062991 -1.324055
v 1.812227 1.062991 -1.264590
v 1.778440 1.062991 -1.289109
v 1.748128 1.062991 -1.298570
v 1.688373 1.062991 -1.267582
v 1.663949 1.062991 -1.191995
v 1.663949 1.062991 -1.010509
v 1.595217 1.062991 -1.010509
v 1.595217 1.062991 -1.357263
v 1.663949 1.062991 -1.357263
v 1.409580 1.062991 -1.461424
v 1.320285 1.062991 -1.474650
v 1.170076 1.062991 -1.417308
v 1.110225 1.062991 -1.273085
v 1.169304 1.062991 -1.128765
v 1.323374 1.062991 -1.073064
v 1.415275 1.062991 -1.088317
v 1.507177 1.062991 -1.132530
v 1.507177 1.062991 -1.049896
v 1.423384 1.062991 -1.016591
v 1.316424 1.062991 -1.003559
v 1.100185 1.062991 -1.093433
v 1.032224 1.062991 -1.266134
v 1.113796 1.062991 -1.465382
v 1.321057 1.062991 -1.544155
v 1.404753 1.062991 -1.533826
v 1.501771 1.062991 -1.500907
v 1.501771 1.062991 -1.419818
v 0.700530 1.062991 -1.054336
v 0.564995 1.062991 -1.003559
v 0.433514 1.062991 -1.055495
v 0.381965 1.062991 -1.187361
v 0.434673 1.062991 -1.313147
v 0.564995 1.062991 -1.364214
v 0.699661 1.062991 -1.314305
v 0.752659 1.062991 -1.187361
v 0.483326 1.062991 -1.098839
v 0.564223 1.062991 -1.065341
v 0.650525 1.062991 -1.097874
v 0.682381 1.062991 -1.186589
v 0.649077 1.062991 -1.269706
v 0.564223 1.062991 -1.302431
v 0.483905 1.062991 -1.269802
v 0.452242 1.062991 -1.187361
v 0.335628 1.062991 -1.357263
v 0.335628 1.062991 -1.295481
v 0.225964 1.062991 -1.295481
v 0.225964 1.062991 -1.117856
v 0.243147 1.062991 -1.076250
v 0.275390 1.062991 -1.065341
v 0.313232 1.062991 -1.071713
v 0.353390 1.062991 -1.090827
v 0.353390 1.062991 -1.026727
v 0.311108 1.062991 -1.010220
v 0.269984 1.062991 -1.003559
v 0.185516 1.062991 -1.034547
v 0.157231 1.062991 -1.112450
v 0.157231 1.062991 -1.295481
v 0.096993 1.062991 -1.295481
v 0.096993 1.062991 -1.303203
v 0.225964 1.062991 -1.429085
v 0.225964 1.062991 -1.357263
v -0.020393 1.062991 -1.054529
v -0.069723 1.062991 -1.017460
v -0.123106 1.062991 -1.003559
v -0.209312 1.062991 -1.039663
v -0.242810 1.062991 -1.141797
v -0.242810 1.062991 -1.357263
v -0.174077 1.062991 -1.357263
v -0.174077 1.062991 -1.137163
v -0.156218 1.062991 -1.080690
v -0.103027 1.062991 -1.060708
v -0.058525 1.062991 -1.073161
v -0.020393 1.062991 -1.109361
v -0.020393 1.062991 -1.357263
v 0.048340 1.062991 -1.357263
v 0.048340 1.062991 -1.010509
v -0.020393 1.062991 -1.010509
v -0.366375 1.062991 -1.010509
v -0.436652 1.062991 -1.165738
v -0.660613 1.062991 -1.165738
v -0.727029 1.062991 -1.010509
v -0.804257 1.062991 -1.010509
v -0.577979 1.062991 -1.540293
v -0.524692 1.062991 -1.540293
v -0.289147 1.062991 -1.010509
v -0.467543 1.062991 -1.233698
v -0.552494 1.062991 -1.424451
v -0.631267 1.062991 -1.233698
v 2.821211 0.985763 -1.054336
v 2.685676 0.985763 -1.003559
v 2.554195 0.985763 -1.055495
v 2.502645 0.985763 -1.187361
v 2.555354 0.985763 -1.313147
v 2.685676 0.985763 -1.364214
v 2.820342 0.985763 -1.314305
v 2.873340 0.985763 -1.187361
v 2.604007 0.985763 -1.098839
v 2.684904 0.985763 -1.065341
v 2.771206 0.985763 -1.097874
v 2.803063 0.985763 -1.186589
v 2.769758 0.985763 -1.269706
v 2.684904 0.985763 -1.302431
v 2.604587 0.985763 -1.269802
v 2.572923 0.985763 -1.187361
v 2.456309 0.985763 -1.357263
v 2.456309 0.985763 -1.295481
v 2.346645 0.985763 -1.295481
v 2.346645 0.985763 -1.117856
v 2.363828 0.985763 -1.076250
v 2.396071 0.985763 -1.065341
v 2.433913 0.985763 -1.071713
v 2.474071 0.985763 -1.090827
v 2.474071 0.985763 -1.026727
v 2.431789 0.985763 -1.010220
v 2.390665 0.985763 -1.003559
v 2.306197 0.985763 -1.034547
v 2.277912 0.985763 -1.112450
v 2.277912 0.985763 -1.295481
v 2.217674 0.985763 -1.295481
v 2.217674 0.985763 -1.303203
v 2.346645 0.985763 -1.429085
v 2.346645 0.985763 -1.357263
v 2.123263 0.985763 -1.013598
v 2.047773 0.985763 -1.003559
v 1.923049 0.985763 -1.059935
v 1.879416 0.985763 -1.188134
v 1.924594 0.985763 -1.315560
v 2.041594 0.985763 -1.364214
v 2.151355 0.985763 -1.316911
v 2.192189 0.985763 -1.173460
v 1.948148 0.985763 -1.173460
v 1.985604 0.985763 -1.095557
v 2.064763 0.985763 -1.069203
v 2.125966 0.985763 -1.080208
v 2.186011 0.985763 -1.110906
v 2.186011 0.985763 -1.044490
v 2.101060 0.985763 -1.281580
v 2.043139 0.985763 -1.304748
v 1.980198 0.985763 -1.282449
v 1.949693 0.985763 -1.219025
v 2.124228 0.985763 -1.219025
v 1.663949 0.985763 -1.277718
v 1.665494 0.985763 -1.277718
v 1.716561 0.985763 -1.343845
v 1.765890 0.985763 -1.364214
v 1.806918 0.985763 -1.354270
v 1.848525 0.985763 -1.324055
v 1.812227 0.985763 -1.264590
v 1.778440 0.985763 -1.289109
v 1.748128 0.985763 -1.298570
v 1.688373 0.985763 -1.267582
v 1.663949 0.985763 -1.191995
v 1.663949 0.985763 -1.010509
v 1.595217 0.985763 -1.010509
v 1.595217 0.985763 -1.357263
v 1.663949 0.985763 -1.357263
v 1.409580 0.985763 -1.461424
v 1.320285 0.985763 -1.474650
v 1.170076 0.985763 -1.417308
v 1.110225 0.985763 -1.273085
v 1.169304 0.985763 -1.128765
v 1.323374 0.985763 -1.073064
v 1.415275 0.985763 -1.088317
v 1.507177 0.985763 -1.132530
v 1.507177 0.985763 -1.049896
v 1.423384 0.985763 -1.016591
v 1.316424 0.985763 -1.003559
v 1.100185 0.985763 -1.093433
v 1.032224 0.985763 -1.266134
v 1.113796 0.985763 -1.465382
v 1.321057 0.985763 -1.544155
v 1.404753 0.985763 -1.533826
v 1.501771 0.985763 -1.500907
v 1.501771 0.985763 -1.419818
v 0.700530 0.985763 -1.054336
v 0.564995 0.985763 -1.003559
v 0.433514 0.985763 -1.055495
v 0.381965 0.985763 -1.187361
v 0.434673 0.985763 -1.313147
v 0.564995 0.985763 -1.364214
v 0.699661 0.985763 -1.314305
v 0.752659 0.985763 -1.187361
v 0.483326 0.985763 -1.098839
v 0.564223 0.985763 -1.065341
v 0.650525 0.985763 -1.097874
v 0.682381 0.985763 -1.186589
v 0.649077 0.985763 -1.269706
v 0.564223 0.985763 -1.302431
v 0.483905 0.985763 -1.269802
v 0.452242 0.985763 -1.187361
v 0.335628 0.985763 -1.357263
v 0.335628 0.985763 -1.295481
v 0.225964 0.985763 -1.295481
v 0.225964 0.985763 -1.117856
v 0.243147 0.985763 -1.076250
v 0.275390 0.985763 -1.065341
v 0.313232 0.985763 -1.071713
v 0.353390 0.985763 -1.090827
v 0.353390 0.985763 -1.026727
v 0.311108 0.985763 -1.010220
v 0.269984 0.985763 -1.003559
v 0.185516 0.985763 -1.034547
v 0.157231 0.985763 -1.112450
v 0.157231 0.985763 -1.295481
v 0.096993 0.985763 -1.295481
v 0.096993 0.985763 -1.303203
v 0.225964 0.985763 -1.429085
v 0.225964 0.985763 -1.357263
v -0.020393 0.985763 -1.054529
v -0.069723 0.985763 -1.017460
v -0.123106 0.985763 -1.003559
v -0.209312 0.985763 -1.039663
v -0.242810 0.985763 -1.141797
v -0.242810 0.985763 -1.357263
v -0.174077 0.985763 -1.357263
v -0.174077 0.985763 -1.137163
v -0.156218 0.985763 -1.080690
v -0.103027 0.985763 -1.060708
v -0.058525 0.985763 -1.073161
v -0.020393 0.985763 -1.109361
v -0.020393 0.985763 -1.357263
v 0.048340 0.985763 -1.357263
v 0.048340 0.985763 -1.010509
v -0.020393 0.985763 -1.010509
v -0.366375 0.985763 -1.010509
v -0.436652 0.985763 -1.165738
v -0.660613 0.985763 -1.165738
v -0.727029 0.985763 -1.010509
v -0.804257 0.985763 -1.010509
v -0.577979 0.985763 -1.540293
v -0.524692 0.985763 -1.540293
v -0.289147 0.985763 -1.010509
v -0.467543 0.985763 -1.233698
v -0.552494 0.985763 -1.424451
v -0.631267 0.985763 -1.233698
v -0.366375 0.985763 -1.010509
v -0.366375 1.062991 -1.010509
v -0.436652 0.985763 -1.165738
v -0.436652 1.062991 -1.165738
v -0.660613 0.985763 -1.165738
v -0.660613 1.062991 -1.165738
v -0.727029 0.985763 -1.010509
v -0.727029 1.062991 -1.010509
v -0.804257 0.985763 -1.010509
v -0.804257 1.062991 -1.010509
v -0.577979 0.985763 -1.540293
v -0.577979 1.062991 -1.540293
v -0.524692 0.985763 -1.540293
v -0.524692 1.062991 -1.540293
v -0.289147 0.985763 -1.010509
v -0.289147 1.062991 -1.010509
v -0.467543 0.985763 -1.233698
v -0.467543 1.062991 -1.233698
v -0.552494 0.985763 -1.424451
v -0.552494 1.062991 -1.424451
v -0.631267 0.985763 -1.233698
v -0.631267 1.062991 -1.233698
v -0.020393 0.985763 -1.054529
v -0.020393 1.062991 -1.054529
v -0.069723 0.985763 -1.017460
v -0.069723 1.062991 -1.017460
v -0.123106 0.985763 -1.003559
v -0.123106 1.062991 -1.003559
v -0.209312 0.985763 -1.039663
v -0.209312 1.062991 -1.039663
v -0.242810 0.985763 -1.141797
v -0.242810 1.062991 -1.141797
v -0.242810 0.985763 -1.357263
v -0.242810 1.062991 -1.357263
v -0.174077 0.985763 -1.357263
v -0.174077 1.062991 -1.357263
v -0.174077 0.985763 -1.137163
v -0.174077 1.062991 -1.137163
v -0.156218 0.985763 -1.080690
v -0.156218 1.062991 -1.080690
v -0.103027 0.985763 -1.060708
v -0.103027 1.062991 -1.060708
v -0.058525 0.985763 -1.073161
v -0.058525 1.062991 -1.073161
v -0.020393 0.985763 -1.109361
v -0.020393 1.062991 -1.109361
v -0.020393 0.985763 -1.357263
v -0.020393 1.062991 -1.357263
v 0.048340 0.985763 -1.357263
v 0.048340 1.062991 -1.357263
v 0.048340 0.985763 -1.010509
v 0.048340 1.062991 -1.010509
v -0.020393 0.985763 -1.010509
v -0.020393 1.062991 -1.010509
v 0.335628 0.985763 -1.357263
v 0.335628 1.062991 -1.357263
v 0.335628 0.985763 -1.295481
v 0.335628 1.062991 -1.295481
v 0.225964 0.985763 -1.295481
v 0.225964 1.062991 -1.295481
v 0.225964 0.985763 -1.117856
v 0.225964 1.062991 -1.117856
v 0.243147 0.985763 -1.076250
v 0.243147 1.062991 -1.076250
v 0.275390 0.985763 -1.065341
v 0.275390 1.062991 -1.065341
v 0.313232 0.985763 -1.071713
v 0.313232 1.062991 -1.071713
v 0.353390 0.985763 -1.090827
v 0.353390 1.062991 -1.090827
v 0.353390 0.985763 -1.026727
v 0.353390 1.062991 -1.026727
v 0.311108 0.985763 -1.010220
v 0.311108 1.062991 -1.010220
v 0.269984 0.985763 -1.003559
v 0.269984 1.062991 -1.003559
v 0.185516 0.985763 -1.034547
v 0.185516 1.062991 -1.034547
v 0.157231 0.985763 -1.112450
v 0.157231 1.062991 -1.112450
v 0.157231 0.985763 -1.295481
v 0.157231 1.062991 -1.295481
v 0.096993 0.985763 -1.295481
v 0.096993 1.062991 -1.295481
v 0.096993 0.985763 -1.303203
v 0.096993 1.062991 -1.303203
v 0.225964 0.985763 -1.429085
v 0.225964 1.062991 -1.429085
v 0.225964 0.985763 -1.357263
v 0.225964 1.062991 -1.357263
v 0.700530 0.985763 -1.054336
v 0.700530 1.062991 -1.054336
v 0.564995 0.985763 -1.003559
v 0.564995 1.062991 -1.003559
v 0.433514 0.985763 -1.055495
v 0.433514 1.062991 -1.055495
v 0.381965 0.985763 -1.187361
v 0.381965 1.062991 -1.187361
v 0.434673 0.985763 -1.313147
v 0.434673 1.062991 -1.313147
v 0.564995 0.985763 -1.364214
v 0.564995 1.062991 -1.364214
v 0.699661 0.985763 -1.314305
v 0.699661 1.062991 -1.314305
v 0.752659 0.985763 -1.187361
v 0.752659 1.062991 -1.187361
v 0.483326 0.985763 -1.098839
v 0.483326 1.062991 -1.098839
v 0.564223 0.985763 -1.065341
v 0.564223 1.062991 -1.065341
v 0.650525 0.985763 -1.097874
v 0.650525 1.062991 -1.097874
v 0.682381 0.985763 -1.186589
v 0.682381 1.062991 -1.186589
v 0.649077 0.985763 -1.269706
v 0.649077 1.062991 -1.269706
v 0.564223 0.985763 -1.302431
v 0.564223 1.062991 -1.302431
v 0.483905 0.985763 -1.269802
v 0.483905 1.062991 -1.269802
v 0.452242 0.985763 -1.187361
v 0.452242 1.062991 -1.187361
v 1.409580 0.985763 -1.461424
v 1.409580 1.062991 -1.461424
v 1.320285 0.985763 -1.474650
v 1.320285 1.062991 -1.474650
v 1.170076 0.985763 -1.417308
v 1.170076 1.062991 -1.417308
v 1.110225 0.985763 -1.273085
v 1.110225 1.062991 -1.273085
v 1.169304 0.985763 -1.128765
v 1.169304 1.062991 -1.128765
v 1.323374 0.985763 -1.073064
v 1.323374 1.062991 -1.073064
v 1.415275 0.985763 -1.088317
v 1.415275 1.062991 -1.088317
v 1.507177 0.985763 -1.132530
v 1.507177 1.062991 -1.132530
v 1.507177 0.985763 -1.049896
v 1.507177 1.062991 -1.049896
v 1.423384 0.985763 -1.016591
v 1.423384 1.062991 -1.016591
v 1.316424 0.985763 -1.003559
v 1.316424 1.062991 -1.003559
v 1.100185 0.985763 -1.093433
v 1.100185 1.062991 -1.093433
v 1.032224 0.985763 -1.266134
v 1.032224 1.062991 -1.266134
v 1.113796 0.985763 -1.465382
v 1.113796 1.062991 -1.465382
v 1.321057 0.985763 -1.544155
v 1.321057 1.062991 -1.544155
v 1.404753 0.985763 -1.533826
v 1.404753 1.062991 -1.533826
v 1.501771 0.985763 -1.500907
v 1.501771 1.062991 -1.500907
v 1.501771 0.985763 -1.419818
v 1.501771 1.062991 -1.419818
v 1.663949 0.985763 -1.277718
v 1.663949 1.062991 -1.277718
v 1.665494 0.985763 -1.277718
v 1.665494 1.062991 -1.277718
v 1.716561 0.985763 -1.343845
v 1.716561 1.062991 -1.343845
v 1.765890 0.985763 -1.364214
v 1.765890 1.062991 -1.364214
v 1.806918 0.985763 -1.354270
v 1.806918 1.062991 -1.354270
v 1.848525 0.985763 -1.324055
v 1.848525 1.062991 -1.324055
v 1.812227 0.985763 -1.264590
v 1.812227 1.062991 -1.264590
v 1.778440 0.985763 -1.289109
v 1.778440 1.062991 -1.289109
v 1.748128 0.985763 -1.298570
v 1.748128 1.062991 -1.298570
v 1.688373 0.985763 -1.267582
v 1.688373 1.062991 -1.267582
v 1.663949 0.985763 -1.191995
v 1.663949 1.062991 -1.191995
v 1.663949 0.985763 -1.010509
v 1.663949 1.062991 -1.010509
v 1.595217 0.985763 -1.010509
v 1.595217 1.062991 -1.010509
v 1.595217 0.985763 -1.357263
v 1.595217 1.062991 -1.357263
v 1.663949 0.985763 -1.357263
v 1.663949 1.062991 -1.357263
v 2.123263 0.985763 -1.013598
v 2.123263 1.062991 -1.013598
v 2.047773 0.985763 -1.003559
v 2.047773 1.062991 -1.003559
v 1.923049 0.985763 -1.059935
v 1.923049 1.062991 -1.059935
v 1.879416 0.985763 -1.188134
v 1.879416 1.062991 -1.188134
v 1.924594 0.985763 -1.315560
v 1.924594 1.062991 -1.315560
v 2.041594 0.985763 -1.364214
v 2.041594 1.062991 -1.364214
v 2.151355 0.985763 -1.316911
v 2.151355 1.062991 -1.316911
v 2.192189 0.985763 -1.173460
v 2.192189 1.062991 -1.173460
v 1.948148 0.985763 -1.173460
v 1.948148 1.062991 -1.173460
v 1.985604 0.985763 -1.095557
v 1.985604 1.062991 -1.095557
v 2.064763 0.985763 -1.069203
v 2.064763 1.062991 -1.069203
v 2.125966 0.985763 -1.080208
v 2.125966 1.062991 -1.080208
v 2.186011 0.985763 -1.110906
v 2.186011 1.062991 -1.110906
v 2.186011 0.985763 -1.044490
v 2.186011 1.062991 -1.044490
v 2.101060 0.985763 -1.281580
v 2.101060 1.062991 -1.281580
v 2.043139 0.985763 -1.304748
v 2.043139 1.062991 -1.304748
v 1.980198 0.985763 -1.282449
v 1.980198 1.062991 -1.282449
v 1.949693 0.985763 -1.219025
v 1.949693 1.062991 -1.219025
v 2.124228 0.985763 -1.219025
v 2.124228 1.062991 -1.219025
v 2.456309 0.985763 -1.357263
v 2.456309 1.062991 -1.357263
v 2.456309 0.985763 -1.295481
v 2.456309 1.062991 -1.295481
v 2.346645 0.985763 -1.295481
v 2.346645 1.062991 -1.295481
v 2.346645 0.985763 -1.117856
v 2.346645 1.062991 -1.117856
v 2.363828 0.985763 -1.076250
v 2.363828 1.062991 -1.076250
v 2.396071 0.985763 -1.065341
v 2.396071 1.062991 -1.065341
v 2.433913 0.985763 -1.071713
v 2.433913 1.062991 -1.071713
v 2.474071 0.985763 -1.090827
v 2.474071 1.062991 -1.090827
v 2.474071 0.985763 -1.026727
v 2.474071 1.062991 -1.026727
v 2.431789 0.985763 -1.010220
v 2.431789 1.062991 -1.010220
v 2.390665 0.985763 -1.003559
v 2.390665 1.062991 -1.003559
v 2.306197 0.985763 -1.034547
v 2.306197 1.062991 -1.034547
v 2.277912 0.985763 -1.112450
v 2.277912 1.062991 -1.112450
v 2.277912 0.985763 -1.295481
v 2.277912 1.062991 -1.295481
v 2.217674 0.985763 -1.295481
v 2.217674 1.062991 -1.295481
v 2.217674 0.985763 -1.303203
v 2.217674 1.062991 -1.303203
v 2.346645 0.985763 -1.429085
v 2.346645 1.062991 -1.429085
v 2.346645 0.985763 -1.357263
v 2.346645 1.062991 -1.357263
v 2.821211 0.985763 -1.054336
v 2.821211 1.062991 -1.054336
v 2.685676 0.985763 -1.003559
v 2.685676 1.062991 -1.003559
v 2.554195 0.985763 -1.055495
v 2.554195 1.062991 -1.055495
v 2.502645 0.985763 -1.187361
v 2.502645 1.062991 -1.187361
v 2.555354 0.985763 -1.313147
v 2.555354 1.062991 -1.313147
v 2.685676 0.985763 -1.364214
v 2.685676 1.062991 -1.364214
v 2.820342 0.985763 -1.314305
v 2.820342 1.062991 -1.314305
v 2.873340 0.985763 -1.187361
v 2.873340 1.062991 -1.187361
v 2.604007 0.985763 -1.098839
v 2.604007 1.062991 -1.098839
v 2.684904 0.985763 -1.065341
v 2.684904 1.062991 -1.065341
v 2.771206 0.985763 -1.097874
v 2.771206 1.062991 -1.097874
v 2.803063 0.985763 -1.186589
v 2.803063 1.062991 -1.186589
v 2.769758 0.985763 -1.269706
v 2.769758 1.062991 -1.269706
v 2.684904 0.985763 -1.302431
v 2.684904 1.062991 -1.302431
v 2.604587 0.985763 -1.269802
v 2.604587 1.062991 -1.269802
v 2.572923 0.985763 -1.187361
v 2.572923 1.062991 -1.187361
vn -0.0000 -0.0000 -1.0000
vn -0.0000 -0.0000 1.0000
vn -1.0000 -0.0000 -0.0000
vn -0.0000 -1.0000 -0.0000
vn 1.0000 -0.0000 -0.0000
vn 0.5795 0.8149 -0.0000
vn -0.0000 1.0000 -0.0000
vn -0.0000 0.5767 -0.8170
vn -0.0000 0.5767 0.8170
vn -0.5795 0.8149 -0.0000
vn 0.0003 1.0000 -0.0000
vn 0.0003 -1.0000 -0.0000
vn -0.5420 -0.0000 0.8404
vn 0.5507 -0.0000 0.8347
vn -0.8345 -0.0000 0.5510
vn -0.5510 -0.0000 -0.8345
vn 0.5449 -0.0000 -0.8385
vn 0.8385 -0.0000 0.5449
vn -0.8387 -0.0000 -0.5446
vn 0.0137 -0.0000 0.9999
vn 0.8312 -0.0000 -0.5560
vn -0.4468 -0.0000 0.8946
vn 0.4346 -0.0000 0.9006
vn -0.0709 -0.0000 0.9975
vn -0.7347 -0.0000 0.6784
vn -0.9875 -0.0000 0.1578
vn -0.7071 -0.0000 -0.7071
vn 0.7071 -0.0000 -0.7071
vn 0.9883 -0.0000 -0.1525
vn 0.7256 -0.0000 -0.6881
vn 0.0432 -0.0000 -0.9991
vn -0.4935 -0.0000 -0.8697
vn -0.9188 -0.0000 -0.3946
vn 0.7071 -0.0000 0.7071
vn -0.7071 -0.0000 0.7071
vn 0.9809 -0.0000 -0.1946
vn 0.6836 -0.0000 -0.7299
vn 0.0796 -0.0000 -0.9968
vn -0.3008 -0.0000 -0.9537
vn 0.5340 -0.0000 -0.8455
vn 0.8257 -0.0000 0.5641
vn 0.2633 -0.0000 0.9647
vn -0.0954 -0.0000 0.9954
vn -0.7083 -0.0000 0.7059
vn -0.9849 -0.0000 0.1733
vn -0.9215 -0.0000 -0.3883
vn 0.3883 -0.0000 -0.9215
vn 0.7018 -0.0000 0.7124
vn -0.0089 -0.0000 1.0000
vn -0.7084 -0.0000 0.7059
vn -0.9999 -0.0000 -0.0121
vn -0.6988 -0.0000 -0.7153
vn -0.0093 -0.0000 -1.0000
vn 0.6926 -0.0000 -0.7213
vn 0.9999 -0.0000 -0.0110
vn 0.7262 -0.0000 -0.6874
vn 0.0160 -0.0000 -0.9999
vn -0.7126 -0.0000 -0.7015
vn -0.9998 -0.0000 0.0182
vn -0.7025 -0.0000 0.7117
vn 0.0089 -0.0000 1.0000
vn 0.7139 -0.0000 0.7003
vn 0.9999 -0.0000 0.0145
vn -0.2816 -0.0000 0.9595
vn 0.1086 -0.0000 0.9941
vn 0.6969 -0.0000 0.7172
vn 1.0000 -0.0000 0.0024
vn 0.6922 -0.0000 -0.7217
vn 0.0911 -0.0000 -0.9958
vn -0.3017 -0.0000 -0.9534
vn 0.5322 -0.0000 -0.8466
vn 0.8275 -0.0000 0.5615
vn 0.2472 -0.0000 0.9690
vn -0.1359 -0.0000 0.9907
vn -0.7138 -0.0000 0.7004
vn -1.0000 -0.0000 -0.0068
vn -0.6981 -0.0000 -0.7160
vn -0.1199 -0.0000 -0.9928
vn 0.2231 -0.0000 -0.9748
vn 0.8128 -0.0000 -0.5825
vn 0.5425 -0.0000 0.8400
vn -0.4409 -0.0000 -0.8976
vn -0.6071 -0.0000 -0.7946
vn -0.0768 -0.0000 -0.9970
vn 0.4195 -0.0000 -0.9077
vn 0.9806 -0.0000 -0.1961
vn 0.1962 -0.0000 0.9806
vn -0.4486 -0.0000 0.8938
vn 0.0878 -0.0000 0.9961
vn 0.7633 -0.0000 0.6461
vn 0.9878 -0.0000 0.1556
vn 0.2906 -0.0000 0.9568
vn -0.1456 -0.0000 0.9893
vn -0.7404 -0.0000 0.6722
vn -1.0000 -0.0000 -0.0063
vn -0.7257 -0.0000 -0.6880
vn 0.0064 -0.0000 -1.0000
vn 0.7514 -0.0000 -0.6598
vn 0.7981 -0.0000 0.6026
vn 0.8466 -0.0000 0.5323
vn 0.6609 -0.0000 -0.7505
vn 0.0717 -0.0000 -0.9974
vn -0.3196 -0.0000 -0.9476
vn 0.5219 -0.0000 -0.8530
vn 0.8490 -0.0000 0.5284
vn -0.7162 -0.0000 0.6979
vn -0.0200 -0.0000 0.9998
vn 0.6680 -0.0000 0.7442
vn 0.8466 -0.0000 -0.5322
vn -0.8208 -0.0000 -0.5713
vn 0.0161 -0.0000 -0.9999
vt 0.001856 0.500082
vt 0.001856 1.000000
vt 0.000000 1.000000
vt -0.000000 0.500082
vt 0.252898 0.500082
vt 0.001856 0.500082
vt 0.001856 -0.000000
vt 0.252898 -0.000000
vt 0.503939 0.753008
vt 0.503939 0.501966
vt 0.754472 0.501966
vt 0.754472 0.753008
vt 0.503940 -0.000000
vt 0.503940 0.500110
vt 0.252898 0.500110
vt 0.252898 0.000000
vt 0.252898 0.753008
vt 0.252898 0.501966
vt 0.252898 1.000000
vt 0.252898 0.500082
vt 0.754982 0.500110
vt 0.517664 0.472771
vt 0.741259 0.472771
vt 0.000000 0.500082
vt -0.000000 0.000000
vt 0.503939 0.500110
vt 0.754472 0.500110
vt 0.252898 0.500110
vt 0.741259 0.027339
vt 0.517664 0.027339
vt 0.774425 0.499918
vt 0.774425 -0.000000
vt 0.793867 0.026948
vt 0.793867 0.472208
vt 0.754982 0.500082
vt 0.754982 0.000000
vt 0.774425 0.027192
vt 0.774425 0.472599
vt 0.503940 0.000000
vt 0.754982 -0.000000
vt 0.568333 0.764918
vt 0.580308 0.795950
vt 0.568319 0.782488
vt 0.575507 0.779574
vt 0.583210 0.787998
vt 0.597571 0.796344
vt 0.580629 0.753008
vt 0.575650 0.768693
vt 0.583841 0.761224
vt 0.594449 0.788093
vt 0.598401 0.753008
vt 0.595611 0.760812
vt 0.610740 0.784171
vt 0.603365 0.780315
vt 0.603224 0.768739
vt 0.610482 0.766005
vt 0.804531 0.254802
vt 0.811316 0.238614
vt 0.820331 0.238614
vt 0.811316 0.224849
vt 0.803561 0.224849
vt 0.803561 0.254802
vt 0.252898 0.492549
vt 0.252898 0.470158
vt 0.714153 0.771661
vt 0.730103 0.790312
vt 0.721993 0.793256
vt 0.252898 0.483923
vt 0.722494 0.769355
vt 0.722739 0.763710
vt 0.714153 0.761258
vt 0.730813 0.760172
vt 0.733624 0.753144
vt 0.736370 0.760707
vt 0.726076 0.761042
vt 0.722791 0.753984
vt 0.727929 0.753008
vt 0.272425 0.796290
vt 0.299847 0.788660
vt 0.288222 0.798143
vt 0.286365 0.790911
vt 0.292561 0.786123
vt 0.299847 0.769939
vt 0.262592 0.782459
vt 0.278000 0.790381
vt 0.272137 0.783773
vt 0.293208 0.777775
vt 0.263454 0.765482
vt 0.270385 0.778325
vt 0.272230 0.767633
vt 0.288648 0.760957
vt 0.294669 0.754581
vt 0.296951 0.762599
vt 0.280881 0.761731
vt 0.276574 0.754390
vt 0.286032 0.753008
vt 0.435118 0.794849
vt 0.446460 0.796157
vt 0.441310 0.797405
vt 0.419887 0.753008
vt 0.428514 0.796533
vt 0.419887 0.796533
vt 0.428514 0.786548
vt 0.451683 0.792365
vt 0.428708 0.786548
vt 0.439081 0.789166
vt 0.442885 0.787978
vt 0.447126 0.784900
vt 0.431580 0.785276
vt 0.428514 0.775788
vt 0.428514 0.753008
vt 0.765077 0.558446
vt 0.801720 0.566500
vt 0.791235 0.567951
vt 0.813836 0.562190
vt 0.791010 0.559229
vt 0.802192 0.557404
vt 0.813686 0.552012
vt 0.772052 0.552308
vt 0.754472 0.533589
vt 0.764274 0.534317
vt 0.771423 0.516095
vt 0.762683 0.511788
vt 0.802220 0.510566
vt 0.813684 0.505574
vt 0.813836 0.515946
vt 0.790658 0.508821
vt 0.789657 0.500110
vt 0.803106 0.501549
vt 0.483492 0.764918
vt 0.495467 0.795950
vt 0.483478 0.782488
vt 0.490665 0.779574
vt 0.498369 0.787998
vt 0.512730 0.796344
vt 0.495788 0.753008
vt 0.490809 0.768693
vt 0.499000 0.761224
vt 0.509608 0.788093
vt 0.513560 0.753008
vt 0.510770 0.760812
vt 0.525899 0.784171
vt 0.518524 0.780315
vt 0.518383 0.768739
vt 0.525641 0.766005
vt 0.804531 0.314710
vt 0.811316 0.298521
vt 0.820331 0.298521
vt 0.811316 0.284756
vt 0.803561 0.284756
vt 0.803561 0.314710
vt 0.252898 0.402694
vt 0.252898 0.380302
vt 0.252898 0.410254
vt 0.754472 0.787442
vt 0.770422 0.806093
vt 0.762312 0.809037
vt 0.762813 0.785136
vt 0.763058 0.779491
vt 0.754472 0.777039
vt 0.771133 0.775953
vt 0.773944 0.768925
vt 0.776689 0.776488
vt 0.766395 0.776823
vt 0.763111 0.769765
vt 0.768248 0.768789
vt 0.346796 0.770360
vt 0.355424 0.797405
vt 0.346796 0.797405
vt 0.355424 0.769778
vt 0.374714 0.766288
vt 0.383342 0.797405
vt 0.374714 0.797405
vt 0.383342 0.753881
vt 0.351001 0.757540
vt 0.357665 0.762690
vt 0.369928 0.761745
vt 0.374714 0.759406
vt 0.364342 0.760181
vt 0.368522 0.754753
vt 0.374714 0.753881
vt 0.361821 0.753008
vt 0.754472 0.635791
vt 0.789563 0.702290
vt 0.782875 0.702290
vt 0.786073 0.687749
vt 0.819129 0.635791
vt 0.776186 0.663806
vt 0.796737 0.663806
vt 0.772502 0.655275
vt 0.800614 0.655275
vt 0.764166 0.635791
vt 0.809435 0.635791
vt 0.653146 0.764918
vt 0.653160 0.782488
vt 0.641171 0.795950
vt 0.645973 0.779574
vt 0.638269 0.787998
vt 0.623909 0.796344
vt 0.640850 0.753008
vt 0.645829 0.768693
vt 0.637638 0.761224
vt 0.627030 0.788093
vt 0.623078 0.753008
vt 0.625869 0.760812
vt 0.610740 0.784171
vt 0.618115 0.780315
vt 0.618255 0.768739
vt 0.610997 0.766005
vt 0.804531 0.254802
vt 0.820331 0.270991
vt 0.811316 0.270991
vt 0.811316 0.284756
vt 0.803561 0.284756
vt 0.803561 0.254802
vt 0.252898 0.462598
vt 0.252898 0.470158
vt 0.252898 0.440206
vt 0.714153 0.771661
vt 0.706312 0.793256
vt 0.698203 0.790312
vt 0.705812 0.769355
vt 0.705567 0.763710
vt 0.714153 0.761258
vt 0.697492 0.760172
vt 0.691935 0.760707
vt 0.694681 0.753144
vt 0.702230 0.761042
vt 0.705514 0.753984
vt 0.700377 0.753008
vt 0.327269 0.796290
vt 0.311472 0.798143
vt 0.299847 0.788660
vt 0.313329 0.790911
vt 0.307133 0.786123
vt 0.299847 0.769939
vt 0.337102 0.782459
vt 0.321694 0.790381
vt 0.327557 0.783773
vt 0.306486 0.777775
vt 0.336240 0.765482
vt 0.329309 0.778325
vt 0.327464 0.767633
vt 0.311046 0.760957
vt 0.302743 0.762599
vt 0.305025 0.754581
vt 0.318813 0.761731
vt 0.323120 0.754390
vt 0.313662 0.753008
vt 0.468247 0.794849
vt 0.462055 0.797405
vt 0.456905 0.796157
vt 0.483478 0.753008
vt 0.483478 0.796533
vt 0.474851 0.796533
vt 0.474851 0.786548
vt 0.451682 0.792365
vt 0.474657 0.786548
vt 0.464284 0.789166
vt 0.460480 0.787978
vt 0.456239 0.784900
vt 0.471785 0.785276
vt 0.474851 0.775788
vt 0.474851 0.753008
vt 0.803231 0.626286
vt 0.777073 0.635791
vt 0.766588 0.634340
vt 0.754472 0.630030
vt 0.777298 0.627069
vt 0.766115 0.625245
vt 0.754621 0.619853
vt 0.796256 0.620149
vt 0.813836 0.601429
vt 0.804033 0.602158
vt 0.796884 0.583936
vt 0.805624 0.579629
vt 0.766088 0.578406
vt 0.754472 0.583786
vt 0.754624 0.573415
vt 0.777650 0.576661
vt 0.778650 0.567951
vt 0.765202 0.569389
vt 0.568305 0.764918
vt 0.568319 0.782488
vt 0.556330 0.795950
vt 0.561132 0.779574
vt 0.553428 0.787998
vt 0.539068 0.796344
vt 0.556009 0.753008
vt 0.560988 0.768693
vt 0.552797 0.761224
vt 0.542189 0.788093
vt 0.538237 0.753008
vt 0.541028 0.760812
vt 0.525899 0.784171
vt 0.533274 0.780315
vt 0.533414 0.768739
vt 0.526156 0.766005
vt 0.819362 0.350101
vt 0.803561 0.333912
vt 0.812576 0.333912
vt 0.812576 0.320147
vt 0.820331 0.320147
vt 0.820331 0.350101
vt 0.252898 0.432646
vt 0.252898 0.440206
vt 0.252898 0.410254
vt 0.798907 0.787442
vt 0.791067 0.809037
vt 0.782957 0.806093
vt 0.790566 0.785136
vt 0.790321 0.779491
vt 0.798907 0.777039
vt 0.782246 0.775953
vt 0.779435 0.768925
vt 0.786984 0.776823
vt 0.790268 0.769765
vt 0.785131 0.768789
vt 0.419887 0.770360
vt 0.419887 0.797405
vt 0.411260 0.797405
vt 0.411260 0.769778
vt 0.391969 0.766288
vt 0.391969 0.797405
vt 0.383342 0.797405
vt 0.383342 0.753881
vt 0.415682 0.757540
vt 0.409018 0.762690
vt 0.396755 0.761745
vt 0.391969 0.759406
vt 0.402341 0.760181
vt 0.398161 0.754753
vt 0.391969 0.753881
vt 0.404862 0.753008
vt 0.819129 0.702290
vt 0.790726 0.768789
vt 0.784038 0.768789
vt 0.787528 0.754248
vt 0.754472 0.702290
vt 0.797415 0.730305
vt 0.776864 0.730305
vt 0.801099 0.721774
vt 0.772987 0.721774
vt 0.809435 0.702290
vt 0.764166 0.702290
vt 0.561028 0.816351
vt 0.561028 0.796344
vt 0.570722 0.796344
vt 0.570722 0.816351
vt 0.803561 0.406668
vt 0.803561 0.378558
vt 0.813255 0.378558
vt 0.813255 0.406668
vt 0.570722 0.815800
vt 0.570722 0.796344
vt 0.580415 0.796344
vt 0.580415 0.815800
vt 0.424346 0.797405
vt 0.434039 0.797405
vt 0.434039 0.807099
vt 0.424346 0.807099
vt 0.793867 0.131155
vt 0.793867 0.066599
vt 0.803561 0.066599
vt 0.803561 0.131155
vt 0.325795 0.798143
vt 0.332482 0.798143
vt 0.332482 0.807836
vt 0.325795 0.807836
vt 0.793867 0.066599
vt 0.793867 -0.000000
vt 0.803561 -0.000000
vt 0.803561 0.066599
vt 0.414652 0.797405
vt 0.424346 0.797405
vt 0.424346 0.807099
vt 0.414652 0.807099
vt 0.736370 0.817634
vt 0.736370 0.793060
vt 0.746064 0.793060
vt 0.746064 0.817634
vt 0.691935 0.817166
vt 0.691935 0.793256
vt 0.701629 0.793256
vt 0.701629 0.817166
vt 0.551334 0.816887
vt 0.551334 0.796344
vt 0.561028 0.796344
vt 0.561028 0.816887
vt 0.701629 0.816988
vt 0.701629 0.810747
vt 0.711323 0.810747
vt 0.711323 0.816988
vt 0.701629 0.804028
vt 0.711323 0.804028
vt 0.701629 0.793256
vt 0.711323 0.793256
vt 0.736370 0.779999
vt 0.746064 0.779999
vt 0.736370 0.753008
vt 0.746064 0.753008
vt 0.262592 0.798143
vt 0.271216 0.798143
vt 0.271216 0.807836
vt 0.262592 0.807836
vt 0.793867 0.253122
vt 0.793867 0.225495
vt 0.803561 0.225495
vt 0.803561 0.253122
vt 0.793867 0.218398
vt 0.803561 0.218398
vt 0.590109 0.813487
vt 0.590109 0.806882
vt 0.599803 0.806882
vt 0.599803 0.813487
vt 0.590109 0.801255
vt 0.599803 0.801255
vt 0.590109 0.796344
vt 0.599803 0.796344
vt 0.803561 0.194218
vt 0.803561 0.163164
vt 0.813255 0.163164
vt 0.813255 0.194218
vt 0.279840 0.798143
vt 0.279840 0.807836
vt 0.653160 0.796533
vt 0.653160 0.753008
vt 0.662854 0.753008
vt 0.662854 0.796533
vt 0.460696 0.797405
vt 0.469323 0.797405
vt 0.469323 0.807099
vt 0.460696 0.807099
vt 0.477964 0.797405
vt 0.483478 0.797405
vt 0.483478 0.807099
vt 0.477964 0.807099
vt 0.287715 0.798143
vt 0.295470 0.798143
vt 0.295470 0.807836
vt 0.287715 0.807836
vt 0.346796 0.811170
vt 0.346796 0.797405
vt 0.356490 0.797405
vt 0.356490 0.811170
vt 0.803561 0.434193
vt 0.803561 0.411898
vt 0.813255 0.411898
vt 0.813255 0.434193
vt 0.793867 0.499345
vt 0.793867 0.495338
vt 0.803561 0.495338
vt 0.803561 0.499345
vt 0.793867 0.490568
vt 0.803561 0.490568
vt 0.793867 0.485462
vt 0.803561 0.485462
vt 0.746064 0.762702
vt 0.754110 0.762702
vt 0.754110 0.772395
vt 0.746064 0.772395
vt 0.493172 0.817404
vt 0.493172 0.812075
vt 0.502865 0.812075
vt 0.502865 0.817404
vt 0.493172 0.806905
vt 0.502865 0.806905
vt 0.493172 0.796344
vt 0.502865 0.796344
vt 0.793867 0.485462
vt 0.793867 0.475477
vt 0.803561 0.475477
vt 0.803561 0.485462
vt 0.793867 0.452550
vt 0.803561 0.452550
vt 0.310786 0.798143
vt 0.318347 0.798143
vt 0.318347 0.807836
vt 0.310786 0.807836
vt 0.713185 0.793256
vt 0.714153 0.793256
vt 0.714153 0.802950
vt 0.713185 0.802950
vt 0.599803 0.812965
vt 0.599803 0.796344
vt 0.609497 0.796344
vt 0.609497 0.812965
vt 0.434039 0.797405
vt 0.443054 0.797405
vt 0.443054 0.807099
vt 0.434039 0.807099
vt 0.366184 0.811165
vt 0.366184 0.797405
vt 0.375877 0.797405
vt 0.375877 0.811165
vt 0.793867 0.286634
vt 0.793867 0.269555
vt 0.803561 0.269555
vt 0.803561 0.286634
vt 0.793867 0.253122
vt 0.803561 0.253122
vt 0.803561 0.098865
vt 0.803561 0.081934
vt 0.813255 0.081934
vt 0.813255 0.098865
vt 0.803561 0.066599
vt 0.813255 0.066599
vt 0.793867 0.353400
vt 0.793867 0.336870
vt 0.803561 0.336870
vt 0.803561 0.353400
vt 0.793867 0.320147
vt 0.803561 0.320147
vt 0.798907 0.801421
vt 0.798907 0.785464
vt 0.808601 0.785464
vt 0.808601 0.801421
vt 0.798907 0.768789
vt 0.808601 0.768789
vt 0.522253 0.817320
vt 0.522253 0.807286
vt 0.531947 0.807286
vt 0.531947 0.817320
vt 0.522253 0.796344
vt 0.531947 0.796344
vt 0.682241 0.816180
vt 0.682241 0.805321
vt 0.691935 0.805321
vt 0.691935 0.816180
vt 0.682241 0.794644
vt 0.691935 0.794644
vt 0.531947 0.817075
vt 0.531947 0.806469
vt 0.541640 0.806469
vt 0.541640 0.817075
vt 0.531947 0.796344
vt 0.541640 0.796344
vt 0.672548 0.816874
vt 0.672548 0.806540
vt 0.682241 0.806540
vt 0.682241 0.816874
vt 0.672548 0.795415
vt 0.682241 0.795415
vt 0.682241 0.783128
vt 0.682241 0.771938
vt 0.691935 0.771938
vt 0.691935 0.783128
vt 0.682241 0.753008
vt 0.691935 0.753008
vt 0.793867 0.218398
vt 0.793867 0.200321
vt 0.803561 0.200321
vt 0.803561 0.218398
vt 0.793867 0.182181
vt 0.803561 0.182181
vt 0.672548 0.795415
vt 0.672548 0.776277
vt 0.682241 0.776277
vt 0.682241 0.795415
vt 0.672548 0.764693
vt 0.682241 0.764693
vt 0.672548 0.753008
vt 0.375877 0.807778
vt 0.375877 0.797405
vt 0.385571 0.797405
vt 0.385571 0.807778
vt 0.793867 0.182181
vt 0.793867 0.171619
vt 0.803561 0.171619
vt 0.803561 0.182181
vt 0.793867 0.158177
vt 0.803561 0.158177
vt 0.337102 0.799492
vt 0.337102 0.777316
vt 0.346796 0.777316
vt 0.346796 0.799492
vt 0.337102 0.753008
vt 0.346796 0.753008
vt 0.252898 0.801812
vt 0.252898 0.775532
vt 0.262592 0.775532
vt 0.262592 0.801812
vt 0.252898 0.765066
vt 0.262592 0.765066
vt 0.252898 0.753008
vt 0.262592 0.753008
vt 0.385571 0.807584
vt 0.395265 0.797405
vt 0.395265 0.807584
vt 0.682241 0.794644
vt 0.691935 0.794644
vt 0.754207 0.762702
vt 0.754401 0.762702
vt 0.754401 0.772395
vt 0.754207 0.772395
vt 0.279840 0.798143
vt 0.287715 0.798143
vt 0.287715 0.807836
vt 0.279840 0.807836
vt 0.620433 0.812833
vt 0.620433 0.806573
vt 0.630127 0.806573
vt 0.630127 0.812833
vt 0.620433 0.801460
vt 0.630127 0.801460
vt 0.620433 0.796344
vt 0.630127 0.796344
vt 0.318347 0.798143
vt 0.325795 0.798143
vt 0.325795 0.807836
vt 0.318347 0.807836
vt 0.630127 0.811886
vt 0.630127 0.807678
vt 0.639821 0.807678
vt 0.639821 0.811886
vt 0.630127 0.803886
vt 0.639821 0.803886
vt 0.630127 0.796344
vt 0.639821 0.796344
vt 0.803561 0.131122
vt 0.803561 0.121645
vt 0.813255 0.121645
vt 0.813255 0.131122
vt 0.803561 0.098865
vt 0.813255 0.098865
vt 0.452069 0.797405
vt 0.452069 0.807099
vt 0.662854 0.796445
vt 0.662854 0.753008
vt 0.672548 0.753008
vt 0.672548 0.796445
vt 0.469323 0.797405
vt 0.477947 0.797405
vt 0.477947 0.807099
vt 0.469323 0.807099
vt 0.395265 0.807390
vt 0.395265 0.797405
vt 0.404959 0.797405
vt 0.404959 0.807390
vt 0.793867 0.411721
vt 0.793867 0.402232
vt 0.803561 0.402232
vt 0.803561 0.411721
vt 0.793867 0.386653
vt 0.803561 0.386653
vt 0.803561 0.163164
vt 0.803561 0.146757
vt 0.813255 0.146757
vt 0.813255 0.163164
vt 0.803561 0.131155
vt 0.813255 0.131155
vt 0.803561 0.378558
vt 0.803561 0.363708
vt 0.813255 0.363708
vt 0.813255 0.378558
vt 0.803561 0.350101
vt 0.813255 0.350101
vt 0.580416 0.814368
vt 0.580416 0.796344
vt 0.590109 0.796344
vt 0.590109 0.814368
vt 0.803561 0.224849
vt 0.803561 0.194218
vt 0.813255 0.194218
vt 0.813255 0.224849
vt 0.404959 0.807200
vt 0.404959 0.797405
vt 0.414652 0.797405
vt 0.414652 0.807200
vt 0.803561 0.486918
vt 0.803561 0.477077
vt 0.813255 0.477077
vt 0.813255 0.486918
vt 0.803561 0.469359
vt 0.813255 0.469359
vt 0.803561 0.461718
vt 0.813255 0.461718
vt 0.746064 0.753008
vt 0.754401 0.753008
vt 0.754401 0.762702
vt 0.793867 0.419638
vt 0.803561 0.419638
vt 0.639821 0.811513
vt 0.639821 0.804274
vt 0.649515 0.804274
vt 0.649515 0.811513
vt 0.639821 0.796344
vt 0.649515 0.796344
vt 0.746137 0.791783
vt 0.754085 0.791783
vt 0.754085 0.801477
vt 0.746137 0.801477
vt 0.714153 0.815156
vt 0.714153 0.793256
vt 0.723847 0.793256
vt 0.723847 0.815156
vt 0.746064 0.782089
vt 0.754085 0.782089
vt 0.746064 0.791783
vt 0.303225 0.798143
vt 0.303225 0.807836
vt 0.653160 0.810297
vt 0.653160 0.796533
vt 0.662854 0.796533
vt 0.662854 0.810297
vt 0.803561 0.461718
vt 0.803561 0.439423
vt 0.813255 0.439423
vt 0.813255 0.461718
vt 0.803561 0.434193
vt 0.813255 0.434193
vt 0.662854 0.810328
vt 0.662854 0.806320
vt 0.672548 0.806320
vt 0.672548 0.810328
vt 0.662854 0.801550
vt 0.672548 0.801550
vt 0.662854 0.796445
vt 0.672548 0.796445
vt 0.746064 0.772395
vt 0.754110 0.782089
vt 0.746064 0.782089
vt 0.502865 0.812076
vt 0.512559 0.812076
vt 0.512559 0.817404
vt 0.512559 0.806905
vt 0.512559 0.796344
vt 0.793867 0.452550
vt 0.793867 0.442565
vt 0.803561 0.442565
vt 0.803561 0.452550
vt 0.793867 0.419638
vt 0.803561 0.419638
vt 0.303225 0.798143
vt 0.310786 0.798143
vt 0.310786 0.807836
vt 0.303225 0.807836
vt 0.711323 0.793256
vt 0.712290 0.793256
vt 0.712290 0.802950
vt 0.711323 0.802950
vt 0.610740 0.812965
vt 0.610740 0.796344
vt 0.620433 0.796344
vt 0.620433 0.812965
vt 0.443054 0.797405
vt 0.452069 0.797405
vt 0.452069 0.807099
vt 0.443054 0.807099
vt 0.356490 0.811165
vt 0.356490 0.797405
vt 0.366184 0.797405
vt 0.366184 0.811165
vt 0.793867 0.320147
vt 0.793867 0.303068
vt 0.803561 0.303068
vt 0.803561 0.320147
vt 0.793867 0.286634
vt 0.803561 0.286634
vt 0.803561 0.064898
vt 0.803561 0.047967
vt 0.813255 0.047967
vt 0.813255 0.064898
vt 0.803561 0.032632
vt 0.813255 0.032632
vt 0.793867 0.370123
vt 0.803561 0.370123
vt 0.793867 0.353400
vt 0.803561 0.353400
vt 0.803561 0.032632
vt 0.803561 0.016675
vt 0.813255 0.016675
vt 0.813255 0.032632
vt 0.803561 -0.000000
vt 0.813255 -0.000000
vt 0.512559 0.817320
vt 0.512559 0.807286
vt 0.522253 0.807286
vt 0.522253 0.817320
vt 0.512559 0.796344
vt 0.522253 0.796344
vt 0.723846 0.814793
vt 0.723846 0.803934
vt 0.733540 0.803934
vt 0.733540 0.814793
vt 0.723846 0.793256
vt 0.733540 0.793256
vt 0.541641 0.817076
vt 0.541641 0.806469
vt 0.551334 0.806469
vt 0.551334 0.817075
vt 0.541641 0.796344
vt 0.551334 0.796344
vt 0.483478 0.817803
vt 0.483478 0.807469
vt 0.493172 0.807469
vt 0.493172 0.817803
vt 0.483478 0.796344
vt 0.493172 0.796344
s 0
usemtl Material.001
f 1/1/1 5/2/1 12/3/1 11/4/1
f 4/5/2 3/6/2 7/7/2 8/8/2
f 8/9/3 7/10/3 5/11/3 6/12/3
f 6/13/4 2/14/4 4/15/4 8/16/4
f 2/17/5 1/18/5 3/10/5 4/9/5
f 6/19/1 5/2/1 1/1/1 2/20/1
f 12/21/6 10/14/6 14/22/6 16/23/6
f 7/7/2 3/6/2 9/24/2 10/25/2
f 5/11/3 7/10/3 10/26/3 12/27/3
f 3/10/5 1/18/5 11/28/5 9/26/5
f 15/29/7 16/23/7 14/22/7 13/30/7
f 10/31/8 9/32/8 13/33/8 14/34/8
f 11/35/9 12/36/9 16/37/9 15/38/9
f 9/39/10 11/40/10 15/29/10 13/30/10
f 21/41/7 23/42/7 22/43/7
f 21/41/7 30/44/7 23/42/7
f 30/44/7 29/45/7 23/42/7
f 29/45/7 24/46/7 23/42/7
f 20/47/7 31/48/7 21/41/7
f 31/48/7 30/44/7 21/41/7
f 20/47/7 32/49/7 31/48/7
f 28/50/7 24/46/7 29/45/7
f 19/51/7 32/49/7 20/47/7
f 19/51/7 25/52/7 32/49/7
f 28/50/7 17/53/7 24/46/7
f 27/54/7 17/53/7 28/50/7
f 19/51/7 26/55/7 25/52/7
f 26/55/7 17/53/7 27/54/7
f 19/51/7 17/53/7 26/55/7
f 18/56/7 17/53/7 19/51/7
f 48/57/7 50/58/7 49/59/7
f 48/57/7 33/60/7 50/58/7
f 48/57/7 34/61/7 33/60/7
f 47/62/7 34/61/7 48/57/7
f 46/63/7 34/64/7 47/15/7
f 45/65/7 35/66/7 46/67/7
f 35/68/4 34/64/4 46/63/4
f 45/65/7 36/69/7 35/66/7
f 45/65/7 37/70/7 36/69/7
f 44/71/7 37/70/7 45/65/7
f 39/72/7 41/73/7 40/74/7
f 44/71/7 38/75/7 37/70/7
f 38/75/7 41/73/7 39/72/7
f 44/71/7 41/73/7 38/75/7
f 43/76/7 41/73/7 44/71/7
f 43/76/7 42/77/7 41/73/7
f 55/78/7 57/79/7 56/80/7
f 55/78/7 66/81/7 57/79/7
f 66/81/7 65/82/7 57/79/7
f 65/82/7 58/83/7 57/79/7
f 54/84/7 67/85/7 55/78/7
f 67/85/7 66/81/7 55/78/7
f 54/84/7 68/86/7 67/85/7
f 69/87/7 58/83/7 65/82/7
f 54/84/7 69/87/7 68/86/7
f 54/84/7 58/83/7 69/87/7
f 53/88/7 59/89/7 54/84/7
f 59/89/7 58/83/7 54/84/7
f 53/88/7 60/90/7 59/89/7
f 62/91/7 64/92/7 63/93/7
f 53/88/7 61/94/7 60/90/7
f 61/94/7 64/92/7 62/91/7
f 53/88/7 64/92/7 61/94/7
f 52/95/7 64/92/7 53/88/7
f 52/95/7 51/96/7 64/92/7
f 72/97/7 74/98/7 73/99/7
f 82/100/7 84/101/7 83/102/7
f 82/100/7 70/103/7 84/101/7
f 72/97/7 75/104/7 74/98/7
f 71/105/7 75/104/7 72/97/7
f 71/105/11 78/106/11 75/104/11
f 78/106/7 77/107/7 75/104/7
f 77/107/7 76/108/7 75/104/7
f 71/105/7 79/109/7 78/106/7
f 82/100/7 71/105/7 70/103/7
f 82/100/7 79/109/7 71/105/7
f 82/100/7 80/110/7 79/109/7
f 82/100/7 81/111/7 80/110/7
f 98/112/7 100/113/7 99/114/7
f 98/112/7 101/115/7 100/113/7
f 98/112/7 86/116/7 101/115/7
f 86/116/7 85/117/7 101/115/7
f 85/117/7 102/118/7 101/115/7
f 98/112/7 87/119/7 86/116/7
f 97/120/7 87/119/7 98/112/7
f 97/120/7 88/121/7 87/119/7
f 97/120/7 89/122/7 88/121/7
f 96/123/7 89/122/7 97/120/7
f 91/124/7 93/125/7 92/126/7
f 96/123/7 90/127/7 89/122/7
f 95/128/7 90/127/7 96/123/7
f 90/127/7 93/125/7 91/124/7
f 95/128/7 93/125/7 90/127/7
f 95/128/7 94/129/7 93/125/7
f 107/130/7 109/131/7 108/132/7
f 107/130/7 116/133/7 109/131/7
f 116/133/7 115/134/7 109/131/7
f 115/134/7 110/135/7 109/131/7
f 106/136/7 117/137/7 107/130/7
f 117/137/7 116/133/7 107/130/7
f 106/136/7 118/138/7 117/137/7
f 114/139/7 110/135/7 115/134/7
f 105/140/7 118/138/7 106/136/7
f 105/140/7 111/141/7 118/138/7
f 114/139/7 103/142/7 110/135/7
f 113/143/7 103/142/7 114/139/7
f 105/140/7 112/144/7 111/141/7
f 112/144/7 103/142/7 113/143/7
f 105/140/7 103/142/7 112/144/7
f 104/145/7 103/142/7 105/140/7
f 134/146/7 136/147/7 135/148/7
f 134/146/7 119/149/7 136/147/7
f 134/146/7 120/150/7 119/149/7
f 133/151/7 120/150/7 134/146/7
f 132/152/7 120/153/7 133/154/7
f 131/155/7 121/156/7 132/157/7
f 121/153/7 120/153/7 132/153/7
f 131/155/7 122/158/7 121/156/7
f 131/155/7 123/159/7 122/158/7
f 130/160/7 123/159/7 131/155/7
f 125/161/7 127/162/7 126/163/7
f 130/160/7 124/164/7 123/159/7
f 124/164/7 127/162/7 125/161/7
f 130/160/7 127/162/7 124/164/7
f 129/165/7 127/162/7 130/160/7
f 129/165/7 128/166/7 127/162/7
f 141/167/7 143/168/7 142/169/7
f 141/167/7 144/170/7 143/168/7
f 148/171/7 150/172/7 149/173/7
f 148/171/7 151/174/7 150/172/7
f 140/175/7 144/170/7 141/167/7
f 140/175/7 145/176/7 144/170/7
f 147/177/7 137/178/7 148/171/7
f 137/178/7 151/174/7 148/171/7
f 140/175/7 146/179/7 145/176/7
f 146/179/7 137/178/7 147/177/7
f 140/175/7 137/178/7 146/179/7
f 140/175/7 138/180/7 137/178/7
f 152/181/7 151/174/7 137/178/7
f 139/182/7 138/180/7 140/175/7
f 157/183/7 159/184/7 158/185/7
f 157/183/7 162/186/7 159/184/7
f 162/186/7 160/187/7 159/184/7
f 157/183/7 163/188/7 162/186/7
f 161/189/7 160/187/7 162/186/7
f 157/183/7 155/190/7 163/188/7
f 155/190/7 161/189/7 163/188/7
f 155/190/7 154/191/7 161/189/7
f 154/191/7 160/187/7 161/189/7
f 157/183/7 156/192/7 155/190/7
f 153/193/7 160/187/7 154/191/7
f 168/194/4 169/195/4 170/196/4
f 168/194/4 170/196/4 177/197/4
f 177/197/4 170/196/4 176/198/4
f 176/198/4 170/196/4 171/199/4
f 167/200/4 168/194/4 178/201/4
f 178/201/4 168/194/4 177/197/4
f 167/200/4 178/201/4 179/202/4
f 175/203/4 176/198/4 171/199/4
f 166/204/4 167/200/4 179/202/4
f 166/204/4 179/202/4 172/205/4
f 175/203/4 171/199/4 164/206/4
f 174/207/4 175/203/4 164/206/4
f 166/204/4 172/205/4 173/208/4
f 173/208/4 174/207/4 164/206/4
f 166/204/4 173/208/4 164/206/4
f 165/209/4 166/204/4 164/206/4
f 195/210/4 196/211/4 197/212/4
f 195/210/4 197/212/4 180/213/4
f 195/210/4 180/213/4 181/214/4
f 194/215/4 195/210/4 181/214/4
f 193/216/7 194/217/7 181/218/7
f 192/219/4 193/220/4 182/221/4
f 182/153/7 193/153/7 181/153/7
f 192/219/4 182/221/4 183/222/4
f 192/219/4 183/222/4 184/223/4
f 191/224/4 192/219/4 184/223/4
f 186/225/4 187/226/4 188/227/4
f 191/224/4 184/223/4 185/228/4
f 185/228/4 186/225/4 188/227/4
f 191/224/4 185/228/4 188/227/4
f 190/229/4 191/224/4 188/227/4
f 190/229/4 188/227/4 189/230/4
f 202/231/4 203/232/4 204/233/4
f 202/231/4 204/233/4 213/234/4
f 213/234/4 204/233/4 212/235/4
f 212/235/4 204/233/4 205/236/4
f 201/237/4 202/231/4 214/238/4
f 214/238/4 202/231/4 213/234/4
f 201/237/4 214/238/4 215/239/4
f 216/240/4 212/235/4 205/236/4
f 201/237/4 215/239/4 216/240/4
f 201/237/4 216/240/4 205/236/4
f 200/241/4 201/237/4 206/242/4
f 206/242/4 201/237/4 205/236/4
f 200/241/4 206/242/4 207/243/4
f 209/244/4 210/245/4 211/246/4
f 200/241/4 207/243/4 208/247/4
f 208/247/4 209/244/4 211/246/4
f 200/241/4 208/247/4 211/246/4
f 199/248/4 200/241/4 211/246/4
f 199/248/4 211/246/4 198/249/4
f 219/250/4 220/251/4 221/252/4
f 229/253/4 230/254/4 231/255/4
f 229/253/4 231/255/4 217/256/4
f 219/250/4 221/252/4 222/257/4
f 218/258/4 219/250/4 222/257/4
f 218/258/12 222/257/12 225/259/12
f 225/259/4 222/257/4 224/260/4
f 224/260/4 222/257/4 223/261/4
f 218/258/4 225/259/4 226/262/4
f 229/253/4 217/256/4 218/258/4
f 229/253/4 218/258/4 226/262/4
f 229/253/4 226/262/4 227/263/4
f 229/253/4 227/263/4 228/264/4
f 245/265/4 246/266/4 247/267/4
f 245/265/4 247/267/4 248/268/4
f 245/265/4 248/268/4 233/269/4
f 233/269/4 248/268/4 232/270/4
f 232/270/4 248/268/4 249/271/4
f 245/265/4 233/269/4 234/272/4
f 244/273/4 245/265/4 234/272/4
f 244/273/4 234/272/4 235/274/4
f 244/273/4 235/274/4 236/275/4
f 243/276/4 244/273/4 236/275/4
f 238/277/4 239/278/4 240/279/4
f 243/276/4 236/275/4 237/280/4
f 242/281/4 243/276/4 237/280/4
f 237/280/4 238/277/4 240/279/4
f 242/281/4 237/280/4 240/279/4
f 242/281/4 240/279/4 241/282/4
f 254/283/4 255/284/4 256/285/4
f 254/283/4 256/285/4 263/286/4
f 263/286/4 256/285/4 262/287/4
f 262/287/4 256/285/4 257/288/4
f 253/289/4 254/283/4 264/290/4
f 264/290/4 254/283/4 263/286/4
f 253/289/4 264/290/4 265/291/4
f 261/292/4 262/287/4 257/288/4
f 252/293/4 253/289/4 265/291/4
f 252/293/4 265/291/4 258/294/4
f 261/292/4 257/288/4 250/295/4
f 260/296/4 261/292/4 250/295/4
f 252/293/4 258/294/4 259/297/4
f 259/297/4 260/296/4 250/295/4
f 252/293/4 259/297/4 250/295/4
f 251/298/4 252/293/4 250/295/4
f 281/299/4 282/300/4 283/301/4
f 281/299/4 283/301/4 266/302/4
f 281/299/4 266/302/4 267/303/4
f 280/304/4 281/299/4 267/303/4
f 279/305/7 280/306/7 267/307/7
f 278/308/4 279/309/4 268/310/4
f 268/153/7 279/153/7 267/153/7
f 278/308/4 268/310/4 269/311/4
f 278/308/4 269/311/4 270/312/4
f 277/313/4 278/308/4 270/312/4
f 272/314/4 273/163/4 274/315/4
f 277/313/4 270/312/4 271/316/4
f 271/316/4 272/314/4 274/315/4
f 277/313/4 271/316/4 274/315/4
f 276/317/4 277/313/4 274/315/4
f 276/317/4 274/315/4 275/318/4
f 288/319/4 289/320/4 290/321/4
f 288/319/4 290/321/4 291/322/4
f 295/323/4 296/324/4 297/325/4
f 295/323/4 297/325/4 298/326/4
f 287/327/4 288/319/4 291/322/4
f 287/327/4 291/322/4 292/328/4
f 294/329/4 295/323/4 284/330/4
f 284/330/4 295/323/4 298/326/4
f 287/327/4 292/328/4 293/331/4
f 293/331/4 294/329/4 284/330/4
f 287/327/4 293/331/4 284/330/4
f 287/327/4 284/330/4 285/332/4
f 299/333/4 284/330/4 298/326/4
f 286/334/4 287/327/4 285/332/4
f 304/335/4 305/336/4 306/337/4
f 304/335/4 306/337/4 309/338/4
f 309/338/4 306/337/4 307/339/4
f 304/335/4 309/338/4 310/340/4
f 308/341/4 309/338/4 307/339/4
f 304/335/4 310/340/4 302/342/4
f 302/342/4 310/340/4 308/341/4
f 302/342/4 308/341/4 301/343/4
f 301/343/4 308/341/4 307/339/4
f 304/335/4 302/342/4 303/344/4
f 300/345/4 301/343/4 307/339/4
s 1
f 312/346/13 314/347/13 313/348/13 311/349/13
f 314/350/13 316/351/14 315/352/14 313/353/13
f 316/354/14 318/355/14 317/356/14 315/357/14
f 318/358/14 320/359/15 319/360/15 317/361/14
f 320/362/15 322/363/16 321/364/16 319/365/15
f 322/366/16 324/367/17 323/368/17 321/369/16
f 324/370/17 326/371/18 325/372/18 323/373/17
f 326/374/18 312/375/13 311/376/13 325/377/18
f 328/378/19 330/379/20 329/380/20 327/381/19
f 330/382/20 332/383/21 331/384/21 329/385/20
f 332/386/21 328/387/19 327/388/19 331/389/21
f 334/390/22 336/391/23 335/392/23 333/393/22
f 336/391/23 338/394/24 337/395/24 335/392/23
f 338/394/24 340/396/25 339/397/25 337/395/24
f 340/379/25 342/398/26 341/399/26 339/380/25
f 342/398/26 344/400/27 343/401/27 341/399/26
f 344/402/27 346/403/28 345/404/28 343/405/27
f 346/406/28 348/407/29 347/408/29 345/409/28
f 348/407/29 350/410/30 349/411/30 347/408/29
f 350/412/30 352/413/31 351/414/31 349/415/30
f 352/413/31 354/416/32 353/417/32 351/414/31
f 354/416/32 356/418/33 355/419/33 353/417/32
f 356/420/33 358/421/27 357/422/27 355/423/33
f 358/403/27 360/424/28 359/425/28 357/404/27
f 360/426/28 362/427/34 361/428/34 359/429/28
f 362/430/34 364/431/35 363/432/35 361/433/34
f 364/434/35 334/435/22 333/436/22 363/437/35
f 366/438/28 368/439/34 367/440/34 365/441/28
f 368/442/34 370/443/34 369/444/34 367/445/34
f 370/446/34 372/447/36 371/448/36 369/449/34
f 372/447/36 374/350/37 373/353/37 371/448/36
f 374/450/37 376/451/38 375/452/38 373/453/37
f 376/451/38 378/454/39 377/455/39 375/452/38
f 378/454/39 380/456/40 379/457/40 377/455/39
f 380/458/40 382/459/41 381/460/41 379/461/40
f 382/462/41 384/463/42 383/464/42 381/465/41
f 384/463/42 386/466/43 385/467/43 383/464/42
f 386/466/43 388/468/44 387/469/44 385/467/43
f 388/470/44 390/471/45 389/472/45 387/473/44
f 390/471/45 392/474/35 391/475/35 389/472/45
f 392/476/35 394/477/35 393/478/35 391/479/35
f 394/480/35 396/481/46 395/482/46 393/483/35
f 396/484/46 398/485/47 397/486/47 395/487/46
f 398/488/47 400/489/28 399/490/28 397/491/47
f 400/492/28 366/493/28 365/494/28 399/495/28
f 402/496/48 404/497/49 403/498/49 401/499/48
f 404/497/49 406/500/50 405/501/50 403/498/49
f 406/502/50 408/503/51 407/504/51 405/505/50
f 408/503/51 410/506/52 409/507/52 407/504/51
f 410/508/52 412/509/53 411/510/53 409/511/52
f 412/509/53 414/512/54 413/513/54 411/510/53
f 414/514/54 416/515/55 415/516/55 413/517/54
f 416/515/55 402/518/48 401/519/48 415/516/55
f 418/520/56 420/521/57 419/522/57 417/523/56
f 420/521/57 422/524/58 421/525/58 419/522/57
f 422/526/58 424/527/59 423/528/59 421/529/58
f 424/527/59 426/530/60 425/531/60 423/528/59
f 426/532/60 428/533/61 427/534/61 425/535/60
f 428/533/61 430/536/62 429/537/62 427/534/61
f 430/538/62 432/539/63 431/540/63 429/541/62
f 432/539/63 418/542/56 417/543/56 431/540/63
f 434/544/64 436/545/65 435/546/65 433/547/64
f 436/545/65 438/548/66 437/549/66 435/546/65
f 438/550/66 440/551/67 439/552/67 437/553/66
f 440/551/67 442/554/68 441/555/68 439/552/67
f 442/556/68 444/557/69 443/558/69 441/559/68
f 444/557/69 446/560/70 445/561/70 443/558/69
f 446/560/70 448/562/71 447/548/71 445/561/70
f 448/563/71 450/564/72 449/565/72 447/566/71
f 450/567/72 452/568/73 451/569/73 449/570/72
f 452/568/73 454/571/74 453/572/74 451/569/73
f 454/571/74 456/362/75 455/365/75 453/572/74
f 456/573/75 458/574/76 457/575/76 455/576/75
f 458/574/76 460/577/77 459/578/77 457/575/76
f 460/579/77 462/580/78 461/581/78 459/582/77
f 462/580/78 464/583/79 463/584/79 461/581/78
f 464/583/79 466/585/80 465/586/80 463/584/79
f 466/587/80 468/565/81 467/588/81 465/589/80
f 468/590/81 434/544/64 433/547/64 467/591/81
f 470/592/28 472/593/82 471/594/82 469/595/28
f 472/596/82 474/597/83 473/598/83 471/599/82
f 474/600/83 476/601/84 475/602/84 473/603/83
f 476/601/84 478/604/85 477/605/85 475/602/84
f 478/604/85 480/606/86 479/607/86 477/605/85
f 480/608/86 482/609/87 481/610/87 479/611/86
f 482/612/87 484/613/88 483/614/88 481/615/87
f 484/613/88 486/616/89 485/617/89 483/614/88
f 486/616/89 488/618/90 487/619/90 485/617/89
f 488/620/90 490/621/91 489/622/91 487/623/90
f 490/621/91 492/624/34 491/625/34 489/622/91
f 492/626/34 494/430/35 493/433/35 491/627/34
f 494/628/35 496/629/27 495/630/27 493/631/35
f 496/632/27 498/633/28 497/634/28 495/635/27
f 498/636/28 470/637/28 469/638/28 497/639/28
f 500/640/92 502/641/93 501/642/93 499/643/92
f 502/641/93 504/644/94 503/645/94 501/642/93
f 504/646/94 506/647/95 505/648/95 503/649/94
f 506/647/95 508/650/96 507/651/96 505/648/95
f 508/652/96 510/653/97 509/654/97 507/655/96
f 510/653/97 512/656/98 511/657/98 509/654/97
f 512/658/98 514/659/99 513/660/99 511/661/98
f 514/662/99 516/663/100 515/664/100 513/665/99
f 516/666/100 518/667/101 517/668/101 515/669/100
f 518/670/101 520/671/102 519/672/102 517/673/101
f 520/671/102 522/674/103 521/675/103 519/672/102
f 522/674/103 524/676/104 523/677/104 521/675/103
f 524/678/104 526/679/105 525/680/105 523/458/104
f 526/681/105 500/640/92 499/643/92 525/682/105
f 528/683/106 530/684/107 529/685/107 527/686/106
f 530/684/107 532/687/108 531/688/108 529/685/107
f 532/689/108 534/690/109 533/691/109 531/692/108
f 534/693/109 536/694/110 535/695/110 533/696/109
f 536/697/110 528/698/106 527/690/106 535/699/110
f 538/439/28 540/700/34 539/701/34 537/440/28
f 540/702/34 542/703/34 541/704/34 539/705/34
f 542/706/34 544/707/36 543/708/36 541/709/34
f 544/707/36 546/710/37 545/711/37 543/708/36
f 546/712/37 548/713/38 547/714/38 545/715/37
f 548/713/38 550/716/39 549/717/39 547/714/38
f 550/716/39 552/718/40 551/719/40 549/717/39
f 552/720/40 554/460/41 553/721/41 551/722/40
f 554/465/41 556/723/42 555/724/42 553/725/41
f 556/723/42 558/467/43 557/726/43 555/724/42
f 558/467/43 560/469/44 559/727/44 557/726/43
f 560/728/44 562/729/45 561/730/45 559/731/44
f 562/729/45 564/732/35 563/733/35 561/730/45
f 564/734/35 566/735/35 565/736/35 563/737/35
f 566/738/35 568/739/46 567/740/46 565/741/35
f 568/742/46 570/743/47 569/744/47 567/745/46
f 570/746/47 572/747/28 571/748/28 569/749/47
f 572/750/28 538/751/28 537/752/28 571/753/28
f 574/754/48 576/755/49 575/756/49 573/757/48
f 576/755/49 578/758/50 577/759/50 575/756/49
f 578/760/50 580/761/51 579/762/51 577/763/50
f 580/761/51 582/764/52 581/765/52 579/762/51
f 582/644/52 584/766/53 583/767/53 581/645/52
f 584/766/53 586/768/54 585/769/54 583/767/53
f 586/770/54 588/771/55 587/772/55 585/773/54
f 588/771/55 574/774/48 573/775/48 587/772/55
f 590/776/56 592/777/111 591/778/111 589/779/56
f 592/777/111 594/780/58 593/781/58 591/778/111
f 594/782/58 596/783/59 595/784/59 593/785/58
f 596/783/59 598/786/60 597/787/60 595/784/59
f 598/788/60 600/789/61 599/790/61 597/791/60
f 600/789/61 602/792/62 601/793/62 599/790/61
f 602/794/62 604/795/63 603/796/63 601/797/62
f 604/795/63 590/798/56 589/799/56 603/796/63
