# File generated by ImageToStl.com - Free Image and 3D model conversion tools

mtllib Bench.mtl

o obj1
v -0.03780904 -0.05916393 -0.3587383
v 0.03219095 -0.07916391 -0.3587383
v -0.03780907 -0.07916391 -0.3587383
v -0.04389229 -0.05655968 0.34702501
v -0.04389229 -0.07655966 0.34702489
v 0.03408831 -0.07791603 0.3573193
v 0.03408834 -0.05791605 0.3573193
v 0.03005496 -0.05796206 -0.35603869
v -0.04801476 -0.06304181 -0.35553911
v -0.1070157 -0.07987773 -0.35749939
v -0.1080148 -0.06304181 -0.35553911
v -0.04701567 -0.07987773 -0.35749939
v -0.1065524 -0.05920231 0.35549769
v -0.1065524 -0.07920229 0.35549769
v -0.05370641 -0.07891059 0.35072279
v -0.05370638 -0.05891061 0.35072279
v -0.1832711 -0.0692538 -0.350169
v -0.1155558 -0.08152556 -0.35092059
v -0.1855558 -0.08152556 -0.35092071
v -0.1851458 -0.05841136 0.3480396
v -0.1851458 -0.07841134 0.34803951
v -0.1153713 -0.07882965 0.3521373
v -0.1130866 -0.06655788 0.352889
v -0.1189588 -0.06367862 -0.35776189
v 0.02957335 -0.05001569 -0.35464931
v 0.04957339 0.00998425 -0.35464931
v 0.04957336 -0.05001569 -0.35464931
v 0.05197546 0.01175237 0.35019729
v 0.03268132 -0.05183995 0.35096169
v 0.0526813 -0.05183995 0.35096169
v 0.03236702 0.00452077 -0.3514114
v 0.03420708 0.00395131 0.34643239
v 0.0319809 0.06941533 -0.35196981
v 0.05198094 0.06941533 -0.35196981
v 0.05198091 0.01941538 -0.35196981
v 0.03197551 0.02175224 0.3501972
v 0.05197552 0.02175224 0.3501972
v 0.05202267 0.07036805 0.350371
v 0.03197563 0.07175231 0.3501974
v 0.03264275 0.02296078 -0.35013479
v 0.0376997 0.0753504 -0.3488526
v 0.06154433 0.1131846 -0.34893501
v 0.05760223 0.07337964 -0.34877399
v 0.05961648 0.119489 0.35000479
v 0.03971398 0.1214597 0.34992629
v 0.05567423 0.07968402 0.35016549
v 0.04087216 0.1149933 -0.34531391
v 0.03707796 0.0814836 0.34679449
v 0.04470703 0.1227957 -0.34988901
v 0.07428455 0.1563376 -0.3502135
v 0.06403986 0.117673 -0.3499164
v 0.07521921 0.1615947 0.35138491
v 0.04564157 0.1280527 0.35170901
v 0.06497434 0.12293 0.3516815
v 0.05550724 0.1641437 0.34811291
v 0.05528924 0.1604463 -0.3481634
v 0.05543661 0.16594841 -0.3536948
v 0.08534813 0.1970613 -0.35077491
v 0.07425627 0.15918329 -0.35392931
v 0.0954524 0.19798709 0.34744269
v 0.06073719 0.1662693 0.35158849
v 0.08192351 0.16034479 0.34764621
v 0.07408699 0.2014771 0.35400689
v 0.06665111 0.2021827 -0.3488349
vn -0 -0 -1
vn -0.13088 -0 0.9914
vn 0 -1 0.00174
vn -0.01771 0.99984 3E-05
vn -0.99996 0 -0.00862
vn 1 -0 -0.00265
vn -0.01786 -0.99983 0.00354
vn 0.01786 0.99983 -0.00354
vn 0.03711 0.1299 -0.99083
vn 0.99488 0.10095 -0.00563
vn 0 0.11565 -0.99329
vn 0.08999 -1E-05 0.99594
vn 0.00561 -0.99998 0.00094
vn 0 0.99998 -0.00585
vn -1 -0 0.00065
vn 0.99996 -0 0.00945
vn -0.99822 -0.05951 0.00237
vn 0 0.06114 -0.99813
vn -0.06715 -0 0.99774
vn -0.00626 -0.99997 0.00446
vn 0.11333 0.99344 -0.01512
vn -1 -0 0.00059
vn 0.9831 -0.18306 0.00044
vn -0.07727 -0.36967 -0.92594
vn -0.08581 0.9963 0.00475
vn 0.98279 0.18457 -0.00737
vn -0.98303 0.18335 -0.00549
vn 0 0 -1
vn 0 0.01202 0.99993
vn 0.99993 0.01105 -0.00438
vn -0.99869 0.05089 0.00453
vn 0 -1 -0.00259
vn -0.30287 0.95303 -0.00136
vn -0.24214 0.08509 0.9665
vn -0.99962 0.02755 0.00266
vn -0.40232 0.9155 0.00181
vn -0.20546 0.06849 -0.97627
vn -0 -0 1
vn 1 -0.00097 1E-05
vn -0.9999 -0.01424 3E-05
vn 0 -0.99999 0.00333
vn 0 0.99999 -0.00333
vn 0.0689 0.99762 -0.00136
vn -0.10178 -0.04071 -0.99397
vn -0.1805 -0.98357 -0.00187
vn 0.00351 -0.00439 -0.99998
vn -0.00351 0.00439 0.99998
vn 0.99513 -0.09854 0.00363
vn -0.99679 0.07998 -0.0024
vn -0.09857 -0.99509 0.00869
vn 0.09857 0.99509 -0.0087
vn -0.18405 -0.0647 0.98079
vn -0.99782 0.06591 -0.00147
vn -0.16311 0.10066 -0.98146
vn -0.00323 -0.00683 -0.99997
vn 0.00323 0.00683 0.99997
vn 0.96664 -0.25612 0.00063
vn -0.96268 0.27063 -0.00114
vn -0.25612 -0.96662 0.00758
vn 0.21062 0.97754 -0.00761
vn -0.1449 0.13724 0.97988
vn 0.1291 0.99162 -0.00531
vn -0.09177 0.07131 -0.99322
vn 0.01576 0.0784 -0.9968
vn 0.16778 -0.05498 0.98429
vn 0.941 -0.33826 -0.00972
vn -0.95563 0.29437 0.01041
vn -0.33822 -0.94105 0.00525
vn 0.26369 0.9646 -0.00509
vn 0.26481 -0.16566 0.94997
vn 0.161 0.98695 -0.00071
vn -0.06096 0.1512 -0.98662
vn 0.95991 -0.27997 -0.01352
vn -0.93517 0.35412 0.00687
vn -0.26888 -0.96317 0.00246
usemtl mat0
f 1//1 2//1 3//1
f 4//2 5//2 6//2
f 6//2 7//2 4//2
f 2//3 6//3 3//3
f 7//4 8//4 1//4
f 4//5 3//5 5//5
f 3//5 4//5 1//5
f 7//6 6//6 2//6
f 6//7 5//7 3//7
f 1//8 4//8 7//8
f 1//9 8//9 2//9
f 2//10 8//10 7//10
f 9//11 10//11 11//11
f 10//11 9//11 12//11
f 13//12 14//12 15//12
f 15//12 16//12 13//12
f 14//13 10//13 12//13
f 12//13 15//13 14//13
f 16//14 11//14 13//14
f 11//14 16//14 9//14
f 14//15 13//15 10//15
f 15//16 12//16 9//16
f 9//16 16//16 15//16
f 13//17 11//17 10//17
f 17//18 18//18 19//18
f 20//19 21//19 22//19
f 22//19 23//19 20//19
f 21//20 19//20 18//20
f 18//20 22//20 21//20
f 20//21 23//21 17//21
f 21//22 20//22 19//22
f 23//23 22//23 18//23
f 17//24 24//24 18//24
f 23//25 24//25 17//25
f 18//26 24//26 23//26
f 20//27 17//27 19//27
f 25//28 26//28 27//28
f 28//29 29//29 30//29
f 30//30 27//30 26//30
f 26//30 28//30 30//30
f 29//31 31//31 25//31
f 25//32 27//32 30//32
f 30//32 29//32 25//32
f 31//33 28//33 26//33
f 28//34 32//34 29//34
f 29//35 32//35 31//35
f 31//36 32//36 28//36
f 25//37 31//37 26//37
f 33//28 34//28 35//28
f 36//38 37//38 38//38
f 38//38 39//38 36//38
f 37//39 35//39 34//39
f 34//39 38//39 37//39
f 39//40 40//40 36//40
f 40//40 39//40 33//40
f 37//41 36//41 35//41
f 33//42 39//42 34//42
f 39//43 38//43 34//43
f 35//44 40//44 33//44
f 36//45 40//45 35//45
f 41//46 42//46 43//46
f 44//47 45//47 46//47
f 46//48 43//48 42//48
f 42//48 44//48 46//48
f 45//49 47//49 41//49
f 41//50 43//50 46//50
f 46//50 48//50 41//50
f 45//51 42//51 47//51
f 42//51 45//51 44//51
f 45//52 48//52 46//52
f 41//53 48//53 45//53
f 41//54 47//54 42//54
f 49//55 50//55 51//55
f 52//56 53//56 54//56
f 54//57 51//57 50//57
f 50//57 52//57 54//57
f 55//58 49//58 53//58
f 49//58 55//58 56//58
f 49//59 51//59 54//59
f 54//59 53//59 49//59
f 56//60 52//60 50//60
f 52//61 55//61 53//61
f 56//62 55//62 52//62
f 49//63 56//63 50//63
f 57//64 58//64 59//64
f 60//65 61//65 62//65
f 60//66 62//66 59//66
f 63//67 64//67 57//67
f 62//68 57//68 59//68
f 64//69 60//69 58//69
f 60//70 63//70 61//70
f 64//71 63//71 60//71
f 57//72 64//72 58//72
f 59//73 58//73 60//73
f 57//74 61//74 63//74
f 62//75 61//75 57//75
# Vertices: 64, normals: 75, texture coordinates: 0, faces: 96

o obj2
v -0.169065 -0.1164314 0.32792401
v -0.159741 -0.07354736 0.32503951
v -0.1517784 -0.1037203 0.3256245
v 0.02285579 -0.1172183 0.33853421
v 0.0149571 -0.1051643 0.3390359
v 0.01495713 -0.1051643 0.31903589
v 0.02309889 -0.07721412 0.31888121
v -0.1597409 -0.07354736 0.34503949
v -0.1517784 -0.1037203 0.34562439
v 0.02309886 -0.07721412 0.33888111
v 0.05276537 -0.11569 0.34028929
v 0.05484504 -0.1160346 0.3187826
v 0.01943371 -0.2633675 0.3365204
v 0.02035746 -0.1176041 0.3156971
v 0.04951549 -0.2636466 0.3399553
v 0.04852632 -0.265605 0.31725919
v 0.01841214 -0.26500949 0.31700581
v -0.1919899 -0.0985558 0.34609461
v -0.1651226 -0.1167217 0.34752941
v -0.1899114 -0.2643832 0.32886401
v -0.1927405 -0.09840894 0.32781309
v -0.1887005 -0.2635794 0.348811
v -0.15878861 -0.2650657 0.34705511
v -0.15999959 -0.26586941 0.32710791
v -0.1855166 -0.1176646 -0.3367013
v -0.17619251 -0.07478058 -0.33958581
v -0.16823 -0.1049535 -0.33900091
v 0.00285581 -0.1172183 -0.31914371
v -0.00504288 -0.1051643 -0.31864199
v -0.00504282 -0.1051643 -0.338642
v 0.00309893 -0.07721412 -0.33879679
v -0.17619251 -0.07478058 -0.31958589
v -0.16823 -0.1049535 -0.3190009
v 0.00309888 -0.07721412 -0.31879681
v 0.03276542 -0.1156901 -0.31738871
v 0.03484508 -0.1160346 -0.33889541
v -0.00056627 -0.26336771 -0.3211576
v 0.00035748 -0.1176041 -0.34198079
v 0.0295155 -0.2636466 -0.31772271
v 0.02852634 -0.26560509 -0.34041879
v -0.00158784 -0.26500961 -0.34067231
v -0.2084415 -0.09978902 -0.31853071
v -0.18157411 -0.117955 -0.31709591
v -0.20636301 -0.26561639 -0.3357614
v -0.2091921 -0.09964216 -0.3368122
v -0.20515209 -0.2648125 -0.31581441
v -0.1752402 -0.2662988 -0.3175703
v -0.17645121 -0.2671026 -0.33751741
v 0.06854397 0.14928269 0.3450368
v 0.05247802 0.1037928 0.34059569
v 0.07246214 0.1036745 0.34138361
v 0.0885281 0.1491643 0.34582481
v 0.08931753 0.1494212 0.32584199
v 0.05326745 0.1040497 0.32061291
v 0.0693334 0.1495395 0.32505399
v 0.07325158 0.1039313 0.32140091
v 0.05724224 0.06482244 0.33935761
v 0.07720137 0.06600595 0.3398405
v 0.08800665 0.1937923 0.3231416
v 0.08783707 0.1938685 0.34314081
v 0.07766986 0.06626427 0.31984761
v 0.05771074 0.06508088 0.3193647
v 0.05162126 -0.01309633 0.33871669
v 0.0709773 -0.00808012 0.338287
v 0.07076645 -0.00897729 0.31830841
v 0.05141041 -0.01399314 0.31873789
v 0.05857471 -0.07092464 0.3364535
v 0.03329077 -0.07680988 0.31873101
v 0.03454924 -0.07585073 0.33866829
v 0.03158152 -0.08356106 0.33711389
v 0.05076519 -0.07796884 0.33627069
v 0.05731621 -0.07188416 0.31651631
v 0.05024785 -0.07920194 0.3163155
v 0.03106409 -0.08479428 0.31715849
v 0.1071735 0.1880827 0.32332581
v 0.1070039 0.1881588 0.34332499
v 0.06076708 0.1549644 -0.31604341
v 0.05476397 0.133746 -0.3168287
v 0.07475209 0.13332839 -0.31628081
v 0.0807552 0.1545469 -0.31549561
v 0.08130249 0.1545148 -0.33548799
v 0.05531126 0.13371409 -0.3368212
v 0.06131437 0.1549325 -0.33603579
v 0.07529938 0.1332964 -0.33627331
v 0.06661433 0.0825063 -0.31889641
v 0.07307023 0.191084 -0.3382079
v 0.07304969 0.19135819 -0.3182098
v 0.06859508 0.08182836 -0.33878651
v 0.0486947 0.08153236 -0.34075809
v 0.0645164 0.02452075 -0.31976661
v 0.04671398 0.0822103 -0.32086799
v 0.06442595 0.02322507 -0.3397243
v 0.04555669 0.01661539 -0.33920971
v 0.05574495 -0.05981958 -0.32168511
v 0.04564723 0.01791108 -0.31925189
v 0.05636764 -0.05940068 -0.34167099
v 0.04051819 -0.04970121 -0.3425808
v 0.03989556 -0.05012012 -0.32259491
v 0.02943456 -0.09183896 -0.32029089
v 0.02916574 -0.09207308 -0.34028769
v 0.00924134 -0.09378695 -0.33999971
v 0.00951028 -0.09355271 -0.32000291
v 0.09254947 0.1865506 -0.33812571
v 0.09252897 0.1868249 -0.3181276
vn -0.09888 -0.04537 -0.99406
vn -0.83642 -0.54809 -0
vn -0.03943 0.00595 -0.9992
vn 0.03422 0.0284 0.99901
vn -0.00866 -0.99996 -0
vn 0.02005 0.9998 0
vn -0.02922 0.01405 0.99947
vn 0.77411 0.63305 0
vn -0.00728 -0.00342 -0.99997
vn -0.99387 0.02178 0.10836
vn -0.90148 -0.41972 0.10571
vn 0.07234 0.28772 -0.95498
vn 0.789 0.61078 0.06651
vn -0.05853 -0.00097 0.99829
vn 0.99437 -0.04299 0.09684
vn 0.08882 0.00639 -0.99603
vn -0.02041 -0.99618 0.08489
vn -0.9986 0.01363 0.05113
vn 0.00824 -0.00899 -0.99993
vn -0.11354 -0.01103 0.99347
vn 0.99889 -0.02185 -0.04165
vn -0.61281 0.79023 0
vn 0.09796 0.04512 0.99417
vn 0.69785 -0.71624 -0
vn -0.00014 -0.00633 -0.99998
vn 0.57644 -0.80707 -0.12787
vn -0.59978 0.79957 0.03105
vn -0.01327 0.05922 0.99816
vn -0.99898 -0.01924 0.04086
vn -0.05712 -0.00563 0.99835
vn 0.97961 0.04246 -0.19636
vn -0.04706 -0.99796 0.04308
vn -0.05851 0.0019 -0.99828
vn 0.99617 0.06077 -0.06293
vn -0.99798 -0.01662 0.06125
vn 0.05946 0.01761 0.99808
vn -0.03981 -0.05844 -0.9975
vn -0.01915 -0.99604 0.08678
vn -0.03422 -0.0284 -0.99901
vn -0.09888 -0.04537 -0.99406
vn -0.83642 -0.54809 -0
vn 0.00219 -0.00618 -0.99998
vn -0.00415 0.01829 0.99982
vn -0.00129 -1 0
vn 0.01357 0.99991 0
vn -0.02922 0.01405 0.99947
vn 0.77411 0.63305 0
vn -0.00728 -0.00342 -0.99997
vn -0.99387 0.02178 0.10836
vn -0.90148 -0.41972 0.10571
vn 0.07234 0.28772 -0.95498
vn 0.789 0.61078 0.06651
vn -0.05853 -0.00097 0.99829
vn 0.99437 -0.04299 0.09684
vn 0.08882 0.00639 -0.99603
vn -0.02041 -0.99618 0.08489
vn -0.9986 0.01363 0.05113
vn 0.00824 -0.00899 -0.99993
vn -0.11354 -0.01103 0.99347
vn 0.99889 -0.02185 -0.04165
vn -0.61281 0.79023 0
vn 0.09796 0.04512 0.99417
vn 0.69785 -0.71624 -0
vn -0.00014 -0.00633 -0.99998
vn 0.57644 -0.80707 -0.12787
vn -0.59978 0.79957 0.03105
vn -0.01327 0.05922 0.99816
vn -0.99898 -0.01924 0.04086
vn -0.05712 -0.00563 0.99835
vn 0.97961 0.04246 -0.19636
vn -0.04706 -0.99796 0.04308
vn -0.05851 0.0019 -0.99828
vn 0.99617 0.06077 -0.06293
vn -0.99798 -0.01662 0.06125
vn 0.05946 0.01761 0.99808
vn -0.03981 -0.05844 -0.9975
vn -0.01915 -0.99604 0.08678
vn -0.03975 -0.08317 0.99574
vn 0.03975 0.08317 -0.99574
vn -0.9414 0.33569 -0.03288
vn 0.9414 -0.33569 0.03287
vn -0.03963 -0.04588 0.99816
vn -0.92136 0.38743 -0.03142
vn 0.99256 0.11475 0.04069
vn 0.03959 0.0365 -0.99855
vn -0.99194 -0.11997 -0.04073
vn -0.02305 -0.01902 0.99955
vn 0.99553 -0.09179 0.02214
vn 0.02383 0.00603 -0.9997
vn -0.99714 0.07212 -0.02243
vn 0.03133 -0.03533 0.99888
vn 0.98108 -0.19357 -0.00166
vn -0.02401 0.00703 -0.99969
vn -0.96493 0.26251 -0.0016
vn 0.12354 -0.16237 0.97897
vn 0.0973 -0.02724 0.99488
vn -0.10185 0.05008 -0.99354
vn 0.71936 -0.69453 -0.01198
vn -0.13557 0.22771 -0.96425
vn -0.93525 0.35148 0.04212
vn 0.28159 -0.95813 0.05191
vn 0.97689 -0.2074 -0.05168
vn 0.03878 -0.08272 -0.99582
vn 0.90403 -0.4264 0.03023
vn -0.03898 0.05929 0.99748
vn 0.2855 0.95838 -0.00123
vn -0.00289 -0.04196 -0.99912
vn -0.02799 -0.02906 0.99919
vn 0.02799 0.02906 -0.99919
vn -0.96163 0.27305 -0.02676
vn 0.96163 -0.27305 0.02676
vn -0.02835 -0.04685 0.9985
vn -0.95112 0.30769 -0.02653
vn 0.99108 -0.13043 0.02734
vn 0.02882 0.07157 -0.99702
vn -0.99143 0.12777 -0.02734
vn -0.09842 -0.01137 0.99508
vn -0.09748 -0.06263 0.99327
vn -0.98147 0.1614 -0.10324
vn 0.9813 -0.16244 0.10326
vn 0.098 0.0358 -0.99454
vn 0.99223 -0.07221 0.10127
vn 0.09897 -0.02851 -0.99468
vn -0.99389 0.04565 -0.10053
vn 0.03654 -0.02653 0.99898
vn 0.01857 0.02481 0.99952
vn -0.99985 0.01667 0.00345
vn 0.99934 -0.03612 -0.00218
vn -0.0337 0.01839 -0.99926
vn 0.99527 -0.09711 0.00179
vn -0.0462 0.05422 -0.99746
vn -0.99644 0.08429 -0.00095
vn -0.02042 0.06024 0.99798
vn -0.08281 -0.04193 0.99568
vn 0.06761 0.01691 -0.99757
vn 0.76869 -0.63954 0.01054
vn 0.015 -0.06905 -0.9975
vn -0.81969 0.57265 -0.01353
vn 0.08584 -0.99625 0.01051
vn 0.00991 0.05266 0.99856
vn -0.01164 -0.03263 -0.9994
vn 0.02539 -0.09088 -0.99554
vn 0.93982 -0.34067 0.02627
vn -0.02591 0.06811 0.99734
vn 0.22671 0.97387 -0.01312
usemtl mat1
f 65//76 66//76 67//76
f 68//77 69//77 70//77
f 71//78 70//78 67//78
f 72//79 73//79 69//79
f 69//79 74//79 72//79
f 73//80 67//80 70//80
f 70//80 69//80 73//80
f 74//81 66//81 72//81
f 66//81 74//81 71//81
f 74//82 69//82 68//82
f 68//82 75//82 74//82
f 76//83 71//83 74//83
f 76//84 70//84 71//84
f 77//85 68//85 78//85
f 70//86 78//86 68//86
f 76//87 78//87 70//87
f 74//88 75//88 76//88
f 79//89 75//89 68//89
f 80//90 76//90 75//90
f 80//91 78//91 76//91
f 80//92 77//92 81//92
f 78//93 81//93 77//93
f 80//94 81//94 78//94
f 68//95 77//95 79//95
f 75//96 79//96 80//96
f 82//97 72//97 66//97
f 83//98 73//98 72//98
f 83//99 67//99 73//99
f 84//100 85//100 65//100
f 83//101 65//101 67//101
f 66//102 85//102 82//102
f 72//103 82//103 83//103
f 86//104 82//104 85//104
f 87//105 83//105 82//105
f 87//106 65//106 83//106
f 84//107 88//107 87//107
f 87//107 86//107 84//107
f 65//108 88//108 84//108
f 87//109 88//109 65//109
f 85//110 84//110 86//110
f 82//111 86//111 87//111
f 65//112 85//112 66//112
f 80//113 79//113 77//113
f 67//114 66//114 71//114
f 89//115 90//115 91//115
f 92//116 93//116 94//116
f 95//117 91//117 90//117
f 91//117 95//117 94//117
f 96//118 97//118 93//118
f 93//118 98//118 96//118
f 97//119 91//119 94//119
f 94//119 93//119 97//119
f 98//120 90//120 96//120
f 90//120 98//120 95//120
f 98//121 93//121 92//121
f 92//121 99//121 98//121
f 100//122 95//122 98//122
f 100//123 94//123 95//123
f 101//124 92//124 102//124
f 94//125 102//125 92//125
f 100//126 102//126 94//126
f 98//127 99//127 100//127
f 103//128 99//128 92//128
f 104//129 100//129 99//129
f 104//130 102//130 100//130
f 104//131 101//131 105//131
f 102//132 105//132 101//132
f 104//133 105//133 102//133
f 92//134 101//134 103//134
f 99//135 103//135 104//135
f 106//136 96//136 90//136
f 107//137 97//137 96//137
f 107//138 91//138 97//138
f 108//139 109//139 89//139
f 107//140 89//140 91//140
f 90//141 109//141 106//141
f 96//142 106//142 107//142
f 110//143 106//143 109//143
f 111//144 107//144 106//144
f 111//145 89//145 107//145
f 108//146 112//146 111//146
f 111//146 110//146 108//146
f 89//147 112//147 108//147
f 111//148 112//148 89//148
f 109//149 108//149 110//149
f 106//150 110//150 111//150
f 89//151 109//151 90//151
f 104//152 103//152 101//152
f 113//153 114//153 115//153
f 115//153 116//153 113//153
f 117//154 118//154 119//154
f 118//154 117//154 120//154
f 119//155 114//155 113//155
f 114//155 119//155 118//155
f 116//156 115//156 120//156
f 120//156 117//156 116//156
f 115//157 114//157 121//157
f 121//157 122//157 115//157
f 123//158 113//158 124//158
f 113//158 123//158 119//158
f 120//159 115//159 122//159
f 122//159 125//159 120//159
f 126//160 120//160 125//160
f 120//160 126//160 118//160
f 121//161 118//161 126//161
f 118//161 121//161 114//161
f 122//162 121//162 127//162
f 127//162 128//162 122//162
f 125//163 122//163 128//163
f 128//163 129//163 125//163
f 130//164 125//164 129//164
f 125//164 130//164 126//164
f 127//165 126//165 130//165
f 126//165 127//165 121//165
f 131//166 128//166 127//166
f 131//167 129//167 128//167
f 132//168 130//168 129//168
f 133//169 130//169 132//169
f 130//169 133//169 127//169
f 131//170 133//170 134//170
f 134//170 135//170 131//170
f 127//171 133//171 131//171
f 129//172 136//172 132//172
f 136//173 131//173 135//173
f 135//173 137//173 136//173
f 138//174 136//174 137//174
f 136//174 138//174 132//174
f 134//175 132//175 138//175
f 132//175 134//175 133//175
f 135//176 134//176 138//176
f 138//176 137//176 135//176
f 131//177 136//177 129//177
f 139//178 117//178 119//178
f 116//179 117//179 139//179
f 139//179 140//179 116//179
f 113//180 116//180 140//180
f 140//180 124//180 113//180
f 139//181 124//181 140//181
f 124//181 139//181 123//181
f 119//182 123//182 139//182
f 141//183 142//183 143//183
f 143//183 144//183 141//183
f 145//184 146//184 147//184
f 146//184 145//184 148//184
f 147//185 142//185 141//185
f 142//185 147//185 146//185
f 144//186 143//186 148//186
f 148//186 145//186 144//186
f 149//187 143//187 142//187
f 150//188 141//188 151//188
f 141//188 150//188 147//188
f 152//189 148//189 143//189
f 153//190 146//190 148//190
f 153//191 142//191 146//191
f 154//192 149//192 155//192
f 142//193 155//193 149//193
f 153//194 155//194 142//194
f 143//195 149//195 152//195
f 148//196 152//196 153//196
f 156//197 152//197 149//197
f 157//198 153//198 152//198
f 157//199 155//199 153//199
f 158//200 154//200 159//200
f 155//201 159//201 154//201
f 157//202 159//202 155//202
f 149//203 154//203 156//203
f 152//204 156//204 157//204
f 156//205 154//205 158//205
f 158//205 160//205 156//205
f 161//206 157//206 156//206
f 162//207 157//207 161//207
f 157//207 162//207 159//207
f 163//208 158//208 162//208
f 159//209 162//209 158//209
f 156//210 160//210 161//210
f 160//211 158//211 163//211
f 163//211 164//211 160//211
f 165//212 161//212 160//212
f 166//213 161//213 165//213
f 161//213 166//213 162//213
f 163//214 166//214 165//214
f 165//214 164//214 163//214
f 162//215 166//215 163//215
f 160//216 164//216 165//216
f 167//217 147//217 150//217
f 147//217 167//217 145//217
f 144//218 145//218 167//218
f 167//218 168//218 144//218
f 141//219 144//219 168//219
f 168//219 151//219 141//219
f 167//220 151//220 168//220
f 151//220 167//220 150//220
# Vertices: 104, normals: 145, texture coordinates: 0, faces: 192

