# File generated by ImageToStl.com - Free Image and 3D model conversion tools

mtllib BrickBuilding.mtl

o obj1
v 3.4821384 7.46529961 0
v 3.4821384 0 0
v 3.99999976 0 0
v 3.99999976 7.46529961 0
v -3.99999976 7.46529961 0
v -3.99999976 0 0
v -3.46113682 0 0
v -3.46113682 7.46529961 0
v 0.26396242 7.46529961 0
v 0.26396242 7.24669313 -0.33268744
v 1.54663014 7.24669313 -0.33268744
v 1.54663014 7.46529961 0
v -2.23862958 7.46529961 0
v -2.23862958 0 0
v -1.56850672 0 0
v -1.56850672 7.46529961 0
v -1.56850672 7.46529961 0
v -1.56850672 0 0
v -1.56850672 0 -0.33268744
v -1.56850672 7.24669313 -0.33268744
v -0.33506137 7.46529961 0
v -0.33506137 0 0
v 0.26396242 0 0
v -1.56850672 7.99601984 0
v -0.33506137 7.99601984 0
v 1.54663014 0 0
v 2.22222209 0 0
v 2.22222209 7.46529961 0
v -2.23862958 7.24669313 -0.33268744
v -2.23862958 0 -0.33268744
v -2.23862958 0 0
v -2.23862958 7.46529961 0
v -3.46113682 7.24669313 -0.33268744
v -3.46113682 0 -0.33268744
v -2.23862958 0 -0.33268744
v -2.23862958 7.24669313 -0.33268744
v -1.56850672 7.24669313 -0.33268744
v -1.56850672 0 -0.33268744
v -0.33506137 0 -0.33268744
v -0.33506137 7.24669313 -0.33268744
v 0.26396242 0 -0.33268744
v 1.54663014 0 -0.33268744
v 2.22222209 7.24669313 -0.33268744
v 2.22222209 0 -0.33268744
v 3.4821384 0 -0.33268744
v 3.4821384 7.24669313 -0.33268744
v -0.33506137 7.24669313 -0.33268744
v -0.33506137 0 -0.33268744
v -0.33506137 0 0
v -0.33506137 7.46529961 0
v -3.99999976 7.99601984 0
v -3.46113682 7.99601984 0
v 0.26396242 7.46529961 0
v 0.26396242 0 0
v 0.26396242 0 -0.33268744
v 0.26396242 7.24669313 -0.33268744
v 1.54663014 7.24669313 -0.33268744
v 1.54663014 0 -0.33268744
v 1.54663014 0 0
v 1.54663014 7.46529961 0
v 2.22222209 7.99601984 0
v 3.4821384 7.99601984 0
v 2.22222209 7.46529961 0
v 2.22222209 0 0
v 2.22222209 0 -0.33268744
v 2.22222209 7.24669313 -0.33268744
v 3.4821384 7.24669313 -0.33268744
v 3.4821384 0 -0.33268744
v 3.4821384 0 0
v 3.4821384 7.46529961 0
v 0.26396242 7.99601984 0
v -3.46113682 7.46529961 0
v -3.46113682 0 0
v -3.46113682 0 -0.33268744
v -3.46113682 7.24669313 -0.33268744
v 1.54663014 7.99601984 0
v -2.23862958 7.99601984 0
v 3.99999976 7.99601984 0
vn 0 -0 1
vn 0 -0.83572 0.54915
vn 1 0 -0
vn -1 0 0
vn 0 -0 1
vn 0 -0.83572 0.54915
vt 0.9375 0.93359
vt 0.9375 0
vt 1 0
vt 1 0.93359
vt 0 0.93359
vt 0 0
vt 0.06641 0
vt 0.06641 0.93359
vt 0.53516 0.93359
vt 0.53516 0.89844
vt 0.69141 0.89844
vt 0.69141 0.93359
vt 0.21875 0.93359
vt 0.21875 0
vt 0.30469 0
vt 0.30469 0.93359
vt 0.04297 0.9375
vt 0.04297 0
vt 0 0.90625
vt 0.46094 0.93359
vt 0.46094 0
vt 0.53516 0
vt 0.30469 1
vt 0.46094 1
vt 0.69141 0
vt 0.77734 0
vt 0.77734 0.93359
vt 0.06641 0.89844
vt 0.21875 0.89844
vt 0.30469 0.89844
vt 0.46094 0.89844
vt 0.77734 0.89844
vt 0.9375 0.89844
vt 0 1
vt 0.06641 1
vt 0.77734 1
vt 0.9375 1
vt 0.53516 1
vt 0.69141 1
vt 0.21875 1
vt 1 1
usemtl mat0
f 1/1/1 2/2/1 3/3/1
f 1/1/1 3/3/1 4/4/1
f 5/5/1 6/6/1 7/7/1
f 5/5/1 7/7/1 8/8/1
f 9/9/2 10/10/2 11/11/2
f 9/9/2 11/11/2 12/12/2
f 13/13/1 14/14/1 15/15/1
f 13/13/1 15/15/1 16/16/1
f 17/17/3 18/18/3 19/6/3
f 17/17/3 19/6/3 20/19/3
f 21/20/1 22/21/1 23/22/1
f 21/20/1 23/22/1 9/9/1
f 24/23/1 16/16/1 21/20/1
f 24/23/1 21/20/1 25/24/1
f 12/12/1 26/25/1 27/26/1
f 12/12/1 27/26/1 28/27/1
f 29/19/4 30/6/4 31/18/4
f 29/19/4 31/18/4 32/17/4
f 33/28/1 34/7/1 35/14/1
f 33/28/1 35/14/1 36/29/1
f 37/30/1 38/15/1 39/21/1
f 37/30/1 39/21/1 40/31/1
f 10/10/1 41/22/1 42/25/1
f 10/10/1 42/25/1 11/11/1
f 43/32/1 44/26/1 45/2/1
f 43/32/1 45/2/1 46/33/1
f 47/19/4 48/6/4 49/18/4
f 47/19/4 49/18/4 50/17/4
f 51/34/1 5/5/1 8/8/1
f 51/34/1 8/8/1 52/35/1
f 53/17/3 54/18/3 55/6/3
f 53/17/3 55/6/3 56/19/3
f 16/16/2 37/30/2 40/31/2
f 16/16/2 40/31/2 21/20/2
f 57/19/4 58/6/4 59/18/4
f 57/19/4 59/18/4 60/17/4
f 61/36/5 28/27/5 1/1/5
f 61/36/5 1/1/5 62/37/5
f 63/17/3 64/18/3 65/6/3
f 63/17/3 65/6/3 66/19/3
f 8/8/6 33/28/6 36/29/6
f 8/8/6 36/29/6 13/13/6
f 67/19/4 68/6/4 69/18/4
f 67/19/4 69/18/4 70/17/4
f 25/24/1 21/20/1 9/9/1
f 25/24/1 9/9/1 71/38/1
f 72/17/3 73/18/3 74/6/3
f 72/17/3 74/6/3 75/19/3
f 28/27/2 43/32/2 46/33/2
f 28/27/2 46/33/2 1/1/2
f 76/39/1 12/12/1 28/27/1
f 76/39/1 28/27/1 61/36/1
f 77/40/1 13/13/1 16/16/1
f 77/40/1 16/16/1 24/23/1
f 71/38/1 9/9/1 12/12/1
f 71/38/1 12/12/1 76/39/1
f 62/37/1 1/1/1 4/4/1
f 62/37/1 4/4/1 78/41/1
f 52/35/1 8/8/1 13/13/1
f 52/35/1 13/13/1 77/40/1
# Vertices: 78, normals: 6, texture coordinates: 41, faces: 60

