# Blender 4.4.3
# www.blender.org
mtllib compact_classic.mtl
o compact_classic
v 0.761828 0.320487 1.808145
v 0.000000 1.419073 0.504364
v 0.501464 1.365661 0.471300
v 0.636470 0.320487 0.750486
v 0.251490 0.305837 1.866149
v 0.319768 0.603346 1.745531
v 0.273627 0.485400 -1.733677
v 0.636470 0.663777 0.735747
v 0.000000 0.482253 -1.788314
v 0.000000 0.320487 1.899556
v 0.616971 0.922499 0.718464
v 0.388487 0.493642 -1.646521
v 0.396423 0.837243 1.537677
v 0.000000 0.898709 1.573709
v 0.000000 1.474357 -0.710788
v 0.000000 1.521037 -0.256953
v 0.548085 1.441007 -0.256927
v 0.685219 0.320487 -0.591076
v 0.497003 0.904841 1.178133
v 0.663243 0.934199 -0.256469
v 0.000000 1.239463 -1.210405
v 0.490465 1.145171 -1.179104
v 0.765613 0.317435 0.948872
v 0.604678 0.871009 -1.112307
v 0.000000 0.582494 1.851338
v 0.695817 0.660219 -0.474732
v 0.685219 0.656660 -0.702507
v 0.000000 1.047126 0.721007
v 0.000000 0.854315 -1.611618
v 0.415010 0.780336 -1.527550
v 0.481746 0.706008 -1.466365
v 0.000000 1.015056 1.212045
v 0.587885 0.674623 0.907342
v 0.000000 0.769401 1.732968
v 0.376481 0.782721 1.640275
v 0.483873 0.837781 1.264514
v 0.761828 0.493979 1.655522
v 0.761828 0.567800 1.050791
v 0.761828 0.620451 1.541590
v 0.761828 0.697385 1.301139
v 0.529176 1.399271 -0.683663
v 0.742870 0.335950 -1.574034
v 0.765613 0.320487 -0.700443
v 0.772976 0.723491 -1.089416
v 0.772976 0.656660 -0.811874
v 0.772976 0.591554 -1.336651
v 0.543153 0.296467 -1.747457
v 0.000000 0.281394 -1.890136
v 0.275420 0.317435 0.948872
v 0.275420 0.493979 1.655522
v 0.275420 0.567800 1.050791
v 0.275420 0.620451 1.541590
v 0.275420 0.697385 1.301139
v 0.275420 0.335950 -1.574033
v 0.275420 0.320487 -0.700443
v 0.275420 0.723491 -1.089416
v 0.275420 0.656660 -0.811874
v 0.275420 0.591554 -1.336651
v 0.000000 0.242118 -0.700684
v 0.265483 0.320487 1.809371
v 0.000000 0.317435 0.948872
v 0.000000 0.239066 0.948631
v 0.000000 0.335950 -1.574033
v 0.000000 0.320487 -0.700443
v 0.765613 0.239066 0.948631
v 0.765613 0.242118 -0.700684
v 0.683776 1.067937 0.713759
v 0.683776 1.090095 0.711722
v 0.660060 1.057440 0.676723
v 0.660060 1.126145 0.676723
v 0.716190 1.067937 0.713759
v 0.716190 1.090095 0.711722
v 0.787606 1.057440 0.676723
v 0.787606 1.126145 0.676723
v 0.660060 1.057440 0.696723
v 0.660060 1.126145 0.696723
v 0.683776 1.067937 0.735905
v 0.683776 1.090095 0.735905
v 0.716190 1.090095 0.735905
v 0.716190 1.067937 0.735905
v 0.595872 0.872707 0.735905
v 0.628285 0.872707 0.735905
v 0.628285 0.872707 0.713759
v 0.595872 0.872707 0.713759
v 0.761828 0.315720 1.752945
v 0.717398 0.436021 1.839899
v 0.282245 0.370396 1.763295
v 0.284409 0.436021 2.033312
v 0.241770 0.370396 1.765570
v 0.333333 0.436021 1.962413
v 0.717398 0.348521 1.839899
v 0.284409 0.436021 2.009430
v 0.711510 0.392271 1.816696
v 0.000000 0.436021 2.022413
v 0.000000 0.436021 1.981152
v 0.241770 0.414146 1.765570
v 0.000000 0.348521 1.981152
v 0.000000 0.348521 2.022413
v 0.333333 0.348521 1.962413
v 0.282245 0.414146 1.763295
v 0.282245 0.436021 1.965285
v 0.284409 0.348521 2.033312
v 0.335889 0.348521 2.033312
v 0.335889 0.348521 2.007081
v 0.284409 0.348521 2.009430
v 0.282245 0.348521 1.965285
v 0.335889 0.436021 2.007081
v 0.335889 0.436021 2.033312
v 0.335889 0.513704 1.991312
v 0.284409 0.513704 1.992607
v 0.282245 0.305591 1.993482
v 0.333333 0.305591 1.990610
v 0.282245 0.370396 1.948815
v 0.241770 0.370396 1.951090
v 0.241770 0.414146 1.951090
v 0.282245 0.414146 1.948815
v 0.721078 0.436021 -1.739130
v 0.424527 0.370396 -1.690133
v 0.426691 0.392271 -2.004911
v 0.399998 0.370396 -1.692408
v 0.475616 0.392271 -1.934011
v 0.721078 0.348521 -1.739130
v 0.426691 0.436021 -1.981029
v 0.715190 0.392271 -1.715927
v 0.000000 0.436021 -2.029582
v 0.000000 0.436021 -1.988321
v 0.399998 0.414146 -1.692408
v 0.000000 0.348521 -1.988321
v 0.000000 0.348521 -2.029582
v 0.424527 0.414146 -1.690133
v 0.424527 0.425084 -1.936315
v 0.478171 0.392271 -2.004911
v 0.478171 0.348521 -1.978679
v 0.426691 0.348521 -1.981029
v 0.424527 0.359459 -1.936315
v 0.478171 0.436021 -1.978679
v 0.478171 0.513704 -1.962911
v 0.426691 0.513704 -1.964206
v 0.424527 0.305591 -1.965081
v 0.475616 0.305591 -1.962209
v 0.399998 0.370396 -1.938021
v 0.399998 0.414146 -1.938021
v -0.761828 0.320487 1.808145
v -0.501464 1.365661 0.471300
v -0.636470 0.320487 0.750486
v -0.251490 0.305837 1.866149
v -0.319768 0.603346 1.745531
v -0.273627 0.485400 -1.733677
v -0.636470 0.663777 0.735747
v -0.616971 0.922499 0.718464
v -0.388487 0.493642 -1.646521
v -0.396423 0.837243 1.537677
v -0.548085 1.441007 -0.256927
v -0.685219 0.320487 -0.591076
v -0.497003 0.904841 1.178133
v -0.663243 0.934199 -0.256469
v -0.490465 1.145171 -1.179104
v -0.765613 0.317435 0.948872
v -0.604678 0.871009 -1.112307
v -0.695817 0.660219 -0.474732
v -0.685219 0.656660 -0.702507
v -0.415010 0.780336 -1.527550
v -0.481746 0.706008 -1.466365
v -0.587885 0.674623 0.907342
v -0.376481 0.782721 1.640275
v -0.483873 0.837781 1.264514
v -0.761828 0.493979 1.655522
v -0.761828 0.567800 1.050791
v -0.761828 0.620451 1.541590
v -0.761828 0.697385 1.301139
v -0.529176 1.399271 -0.683663
v -0.742870 0.335950 -1.574034
v -0.765613 0.320487 -0.700443
v -0.772976 0.723491 -1.089416
v -0.772976 0.656660 -0.811874
v -0.772976 0.591554 -1.336651
v -0.543153 0.296467 -1.747457
v -0.275420 0.317435 0.948872
v -0.275420 0.493979 1.655522
v -0.275420 0.567800 1.050791
v -0.275420 0.620451 1.541590
v -0.275420 0.697385 1.301139
v -0.275420 0.335950 -1.574033
v -0.275420 0.320487 -0.700443
v -0.275420 0.723491 -1.089416
v -0.275420 0.656660 -0.811874
v -0.275420 0.591554 -1.336651
v -0.265483 0.320487 1.809371
v -0.765613 0.239066 0.948631
v -0.765613 0.242118 -0.700684
v -0.683776 1.067937 0.713759
v -0.683776 1.090095 0.711722
v -0.660060 1.057440 0.676723
v -0.660060 1.126145 0.676723
v -0.716190 1.067937 0.713759
v -0.716190 1.090095 0.711722
v -0.787606 1.057440 0.676723
v -0.787606 1.126145 0.676723
v -0.660060 1.057440 0.696723
v -0.660060 1.126145 0.696723
v -0.683776 1.067937 0.735905
v -0.683776 1.090095 0.735905
v -0.716190 1.090095 0.735905
v -0.716190 1.067937 0.735905
v -0.595872 0.872707 0.735905
v -0.628285 0.872707 0.735905
v -0.628285 0.872707 0.713759
v -0.595872 0.872707 0.713759
v -0.761828 0.315720 1.752945
v -0.717398 0.436021 1.839899
v -0.282245 0.370396 1.763295
v -0.284409 0.436021 2.033312
v -0.241770 0.370396 1.765570
v -0.333333 0.436021 1.962413
v -0.717398 0.348521 1.839899
v -0.284409 0.436021 2.009430
v -0.711510 0.392271 1.816696
v -0.241770 0.414146 1.765570
v -0.333333 0.348521 1.962413
v -0.282245 0.414146 1.763295
v -0.282245 0.436021 1.965285
v -0.284409 0.348521 2.033312
v -0.335889 0.348521 2.033312
v -0.335889 0.348521 2.007081
v -0.284409 0.348521 2.009430
v -0.282245 0.348521 1.965285
v -0.335889 0.436021 2.007081
v -0.335889 0.436021 2.033312
v -0.335889 0.513704 1.991312
v -0.284409 0.513704 1.992607
v -0.282245 0.305591 1.993482
v -0.333333 0.305591 1.990610
v -0.282245 0.370396 1.948815
v -0.241770 0.370396 1.951090
v -0.241770 0.414146 1.951090
v -0.282245 0.414146 1.948815
v -0.721078 0.436021 -1.739130
v -0.424527 0.370396 -1.690133
v -0.426691 0.392271 -2.004911
v -0.399998 0.370396 -1.692408
v -0.475616 0.392271 -1.934011
v -0.721078 0.348521 -1.739130
v -0.426691 0.436021 -1.981029
v -0.715190 0.392271 -1.715927
v -0.399998 0.414146 -1.692408
v -0.424527 0.414146 -1.690133
v -0.424527 0.425084 -1.936315
v -0.478171 0.392271 -2.004911
v -0.478171 0.348521 -1.978679
v -0.426691 0.348521 -1.981029
v -0.424527 0.359459 -1.936315
v -0.478171 0.436021 -1.978679
v -0.478171 0.513704 -1.962911
v -0.426691 0.513704 -1.964206
v -0.424527 0.305591 -1.965081
v -0.475616 0.305591 -1.962209
v -0.399998 0.370396 -1.938021
v -0.399998 0.414146 -1.938021
vn 0.2179 0.4838 0.8476
vn 0.9988 -0.0153 -0.0462
vn 0.9656 0.2515 0.0655
vn 0.9635 0.0886 0.2528
vn 0.5452 0.7879 -0.2863
vn 0.9957 0.0791 0.0484
vn 0.1290 0.9842 0.1212
vn 0.1830 0.3053 0.9345
vn 0.4209 0.8692 0.2595
vn 0.1443 0.9843 -0.1019
vn 0.2020 0.9419 0.2684
vn 0.9731 0.2211 -0.0647
vn 0.8499 0.2765 -0.4486
vn 0.9989 -0.0218 0.0423
vn 0.2156 0.6794 -0.7014
vn 0.1074 0.5031 0.8575
vn 0.2081 0.9751 0.0773
vn 0.2206 0.4499 -0.8654
vn 0.6647 0.2331 -0.7098
vn 0.7586 0.3109 -0.5727
vn 0.9623 0.0117 0.2717
vn 0.1460 0.8044 0.5758
vn 0.9309 0.2106 0.2984
vn 0.3458 0.5034 0.7919
vn 0.9628 0.2395 -0.1255
vn 0.9775 0.1972 -0.0745
vn 0.1716 0.8815 -0.4399
vn 0.5466 0.7955 0.2614
vn 0.7784 0.1898 0.5984
vn 0.4482 0.5265 -0.7225
vn 0.5502 0.6986 -0.4575
vn 0.2060 0.4064 -0.8902
vn 0.4219 0.6530 -0.6290
vn 0.0917 0.9585 0.2699
vn -0.0000 -0.8881 0.4597
vn -0.0000 -0.3146 -0.9492
vn -0.0000 -0.9722 -0.2341
vn -0.0000 -0.9524 -0.3047
vn -0.0000 -0.6805 0.7327
vn -0.0000 -0.8822 0.4708
vn -0.0000 -0.6693 -0.7430
vn -0.0000 -0.3770 0.9262
vn -0.0000 -0.0031 1.0000
vn -0.0000 0.0031 -1.0000
vn 0.0140 0.9999 0.0012
vn 1.0000 -0.0000 -0.0000
vn 0.0002 0.9961 0.0880
vn 0.9997 -0.0227 0.0057
vn -0.0000 -0.9998 -0.0177
vn 0.0006 -1.0000 0.0034
vn -0.0135 -0.9833 0.1815
vn -0.0000 -0.9750 0.2220
vn -0.0000 -1.0000 -0.0019
vn -1.0000 -0.0000 -0.0000
vn -0.0000 -0.0000 -1.0000
vn -0.0000 -1.0000 -0.0000
vn -0.0000 1.0000 -0.0000
vn -0.5527 0.0187 0.8332
vn 0.4474 0.0200 0.8941
vn 0.0499 -0.9154 0.3995
vn 0.1061 0.5183 0.8486
vn -0.0000 -0.0000 1.0000
vn 0.9118 -0.4106 -0.0000
vn -0.9118 0.4106 -0.0000
vn -0.0495 -0.5796 -0.8134
vn 0.3082 0.1621 0.9374
vn -0.0561 -0.0000 -0.9984
vn 0.0456 -0.0000 0.9990
vn -0.1658 -0.8381 -0.5197
vn -0.9983 0.0321 0.0489
vn -0.0382 0.3410 -0.9393
vn -0.1234 -0.0000 -0.9924
vn -0.9987 0.0503 -0.0000
vn -0.1658 0.8381 -0.5197
vn 0.9693 -0.0000 -0.2459
vn 0.4014 -0.0000 0.9159
vn -0.3595 -0.0000 -0.9331
vn 0.9983 -0.0116 -0.0571
vn 0.0111 0.4699 0.8827
vn -0.9987 0.0106 0.0490
vn 0.9977 -0.0375 -0.0571
vn 0.0202 -0.6934 0.7202
vn -0.0469 -0.5484 -0.8349
vn 0.9982 -0.0594 -0.0000
vn -0.0449 0.6009 -0.7981
vn -0.0449 -0.6009 -0.7981
vn 0.1131 -0.0000 -0.9936
vn -0.2192 -0.9754 0.0217
vn -0.5825 -0.5325 0.6141
vn -0.9980 0.0297 -0.0555
vn -0.0022 -0.9920 0.1261
vn 0.0492 0.2596 0.9644
vn -0.1248 -0.0000 0.9922
vn -0.9498 0.1499 0.2745
vn -0.2192 0.9754 0.0217
vn -0.5825 0.5325 0.6141
vn -0.0022 0.9920 0.1261
vn 0.9693 -0.0000 0.2459
vn -0.0450 -0.0000 0.9990
vn 0.7022 -0.0000 -0.7120
vn 0.9988 -0.0097 0.0477
vn 0.0119 0.3223 -0.9466
vn -0.9989 0.0099 -0.0459
vn 0.9961 -0.0272 0.0836
vn 0.0253 -0.4303 -0.9023
vn 0.0735 -0.3746 0.9243
vn 0.9520 -0.1574 -0.2624
vn -0.1180 0.1108 0.9868
vn -0.1180 -0.1108 0.9868
vn -0.2179 0.4838 0.8476
vn -0.9988 -0.0153 -0.0462
vn -0.9656 0.2515 0.0655
vn -0.9635 0.0886 0.2528
vn -0.5452 0.7879 -0.2863
vn -0.9957 0.0791 0.0484
vn -0.1290 0.9842 0.1212
vn -0.1830 0.3053 0.9345
vn -0.4209 0.8692 0.2595
vn -0.1443 0.9843 -0.1019
vn -0.2020 0.9419 0.2684
vn -0.9731 0.2211 -0.0647
vn -0.8499 0.2765 -0.4486
vn -0.9989 -0.0218 0.0423
vn -0.2156 0.6794 -0.7014
vn -0.1074 0.5031 0.8575
vn -0.2081 0.9751 0.0773
vn -0.2206 0.4499 -0.8654
vn -0.6647 0.2331 -0.7098
vn -0.7586 0.3109 -0.5727
vn -0.9623 0.0117 0.2717
vn -0.1460 0.8044 0.5758
vn -0.9309 0.2106 0.2984
vn -0.3458 0.5034 0.7919
vn -0.9628 0.2395 -0.1255
vn -0.9775 0.1972 -0.0745
vn -0.1716 0.8815 -0.4399
vn -0.5466 0.7955 0.2614
vn -0.7784 0.1898 0.5984
vn -0.4482 0.5265 -0.7225
vn -0.5502 0.6986 -0.4575
vn -0.2060 0.4064 -0.8902
vn -0.4219 0.6530 -0.6290
vn -0.0917 0.9585 0.2699
vn -0.0140 0.9999 0.0012
vn -0.0002 0.9961 0.0880
vn -0.9997 -0.0227 0.0057
vn -0.0006 -1.0000 0.0034
vn 0.0135 -0.9833 0.1815
vn 0.5527 0.0187 0.8332
vn -0.4474 0.0200 0.8941
vn -0.0499 -0.9154 0.3995
vn -0.1061 0.5183 0.8486
vn -0.9118 -0.4106 -0.0000
vn 0.9118 0.4106 -0.0000
vn 0.0495 -0.5796 -0.8134
vn -0.3082 0.1621 0.9374
vn 0.0561 -0.0000 -0.9984
vn -0.0456 -0.0000 0.9990
vn 0.1658 -0.8381 -0.5197
vn 0.9983 0.0321 0.0489
vn 0.0382 0.3410 -0.9393
vn 0.1234 -0.0000 -0.9924
vn 0.9987 0.0503 -0.0000
vn 0.1658 0.8381 -0.5197
vn -0.9693 -0.0000 -0.2459
vn -0.4014 -0.0000 0.9159
vn 0.3595 -0.0000 -0.9331
vn -0.9983 -0.0116 -0.0571
vn -0.0111 0.4699 0.8827
vn 0.9987 0.0106 0.0490
vn -0.9977 -0.0375 -0.0571
vn -0.0202 -0.6934 0.7202
vn 0.0469 -0.5484 -0.8349
vn -0.9982 -0.0594 -0.0000
vn 0.0449 0.6009 -0.7981
vn 0.0449 -0.6009 -0.7981
vn -0.1131 -0.0000 -0.9936
vn 0.2192 -0.9754 0.0217
vn 0.5825 -0.5325 0.6141
vn 0.9980 0.0297 -0.0555
vn 0.0022 -0.9920 0.1261
vn -0.0492 0.2596 0.9644
vn 0.1248 -0.0000 0.9922
vn 0.9498 0.1499 0.2745
vn 0.2192 0.9754 0.0217
vn 0.5825 0.5325 0.6141
vn 0.0022 0.9920 0.1261
vn -0.9693 -0.0000 0.2459
vn 0.0450 -0.0000 0.9990
vn -0.7022 -0.0000 -0.7120
vn -0.9988 -0.0097 0.0477
vn -0.0119 0.3223 -0.9466
vn 0.9989 0.0099 -0.0459
vn -0.9961 -0.0272 0.0836
vn -0.0253 -0.4303 -0.9023
vn -0.0735 -0.3746 0.9243
vn -0.9520 -0.1574 -0.2624
vn 0.1180 0.1108 0.9868
vn 0.1180 -0.1108 0.9868
vt 0.728719 0.405725
vt 0.739847 0.445217
vt 0.665973 0.430508
vt 0.665973 0.388151
vt 0.661123 0.007135
vt 0.693749 0.105564
vt 0.627059 0.106606
vt 0.563154 0.186824
vt 0.563287 0.335213
vt 0.350070 0.313152
vt 0.277702 0.183399
vt 0.272642 0.107648
vt 0.143116 0.178229
vt 0.117824 0.158594
vt 0.222401 0.110823
vt 0.268523 0.842918
vt 0.232404 0.744166
vt 0.313435 0.739551
vt 0.325001 0.811598
vt 0.440353 0.855222
vt 0.436380 0.658078
vt 0.543194 0.658078
vt 0.542745 0.838133
vt 0.233393 0.588711
vt 0.262150 0.517969
vt 0.369921 0.589435
vt 0.344161 0.635277
vt 0.219683 0.642802
vt 0.325996 0.675420
vt 0.379396 0.850417
vt 0.373651 0.660183
vt 0.665973 0.470547
vt 0.743760 0.467018
vt 0.763496 0.526284
vt 0.665973 0.536870
vt 0.688232 0.322993
vt 0.917399 0.120012
vt 0.935314 0.141775
vt 0.833292 0.248595
vt 0.813735 0.168323
vt 0.268327 0.007135
vt 0.050686 0.337811
vt 0.192065 0.335381
vt 0.192065 0.524803
vt 0.024982 0.509629
vt 0.194633 0.007349
vt 0.165121 0.120575
vt 0.036999 0.134222
vt 0.036999 0.039191
vt 0.787036 0.592512
vt 0.665973 0.609451
vt 0.098850 0.217112
vt 0.192065 0.203193
vt 0.970147 0.057834
vt 0.995666 0.055420
vt 0.337178 0.917054
vt 0.369921 0.865255
vt 0.007805 0.142473
vt 0.037845 0.158437
vt 0.192065 0.701735
vt 0.011794 0.690182
vt 0.628482 0.839669
vt 0.529663 0.910383
vt 0.529288 0.874088
vt 0.575196 0.816183
vt 0.441037 0.933828
vt 0.440956 0.898692
vt 0.698067 0.672355
vt 0.676890 0.745367
vt 0.589209 0.745010
vt 0.597452 0.654754
vt 0.448641 0.339562
vt 0.446742 0.448626
vt 0.385346 0.553779
vt 0.385346 0.336764
vt 0.451028 0.496001
vt 0.401133 0.636721
vt 0.806611 0.708735
vt 0.808944 0.798878
vt 0.800515 0.804298
vt 0.814393 0.693189
vt 0.863613 0.693189
vt 0.863613 0.867200
vt 0.814393 0.867200
vt 0.893703 0.805566
vt 0.987528 0.808200
vt 0.987528 0.983566
vt 0.893703 0.983566
vt 0.851865 0.805566
vt 0.851865 0.983566
vt 0.902453 0.693189
vt 0.902453 0.867200
vt 0.725064 0.816337
vt 0.802460 0.805566
vt 0.802460 0.983566
vt 0.725064 0.983566
vt 0.940552 0.693189
vt 0.940552 0.867200
vt 0.744059 0.691835
vt 0.744059 0.867200
vt 0.722471 0.965731
vt 0.722471 0.691835
vt 0.824310 0.796016
vt 0.824309 0.971381
vt 0.802721 0.971381
vt 0.802722 0.697485
vt 0.239262 0.246881
vt 0.258647 0.448657
vt 0.207306 0.478498
vt 0.207306 0.230431
vt 0.956144 0.830412
vt 0.864143 0.848820
vt 0.864143 0.730490
vt 0.935664 0.760068
vt 0.801366 0.982031
vt 0.808944 0.981664
vt 0.864143 0.856097
vt 0.933022 0.870327
vt 0.912172 0.952056
vt 0.864143 0.972635
vt 0.968504 0.904439
vt 0.947107 0.936853
vt 0.935629 0.798662
vt 0.817299 0.798662
vt 0.817299 0.700131
vt 0.935629 0.700131
vt 0.788571 0.928475
vt 0.788571 0.799784
vt 0.887102 0.799784
vt 0.883547 0.916267
vt 0.961426 0.894463
vt 0.980980 0.700131
vt 0.935497 0.965891
vt 0.973189 0.792204
vt 0.756696 0.701814
vt 0.979955 0.701814
vt 0.979955 0.975710
vt 0.756696 0.975710
vt 0.744059 0.965731
vt 0.301732 0.246066
vt 0.301732 0.494132
vt 0.277745 0.494186
vt 0.277745 0.246120
vt 0.949356 0.368779
vt 0.949356 0.391939
vt 0.942614 0.391939
vt 0.942614 0.368779
vt 0.269895 0.195959
vt 0.269895 0.219118
vt 0.226901 0.219118
vt 0.226901 0.195959
vt 0.912049 0.398644
vt 0.919519 0.397958
vt 0.919519 0.406109
vt 0.912049 0.406109
vt 0.951755 0.411254
vt 0.958416 0.368779
vt 0.958416 0.412299
vt 0.935256 0.411773
vt 0.935256 0.368779
vt 0.941998 0.368779
vt 0.934639 0.372822
vt 0.934248 0.380312
vt 0.924789 0.392464
vt 0.924789 0.369305
vt 0.971184 0.369617
vt 0.978678 0.369305
vt 0.982192 0.396426
vt 0.959032 0.396426
vt 0.968335 0.350885
vt 0.966820 0.361706
vt 0.959032 0.368688
vt 0.959032 0.325169
vt 0.933841 0.332180
vt 0.934639 0.343078
vt 0.920131 0.368688
vt 0.920131 0.325169
vt 0.927170 0.393081
vt 0.934639 0.393081
vt 0.934639 0.404007
vt 0.927170 0.404007
vt 0.903351 0.401827
vt 0.893388 0.397341
vt 0.893388 0.325169
vt 0.903351 0.329655
vt 0.895881 0.402443
vt 0.903351 0.403130
vt 0.903351 0.410595
vt 0.895881 0.410595
vt 0.950766 0.392555
vt 0.950766 0.403482
vt 0.942614 0.403482
vt 0.942614 0.392555
vt 0.959032 0.407969
vt 0.959032 0.397043
vt 0.966497 0.397043
vt 0.966497 0.407969
vt 0.911433 0.397341
vt 0.903967 0.397341
vt 0.903967 0.325169
vt 0.911433 0.325169
vt 0.892771 0.397341
vt 0.882808 0.401827
vt 0.882808 0.329655
vt 0.892771 0.325169
vt 0.919514 0.397341
vt 0.912049 0.397341
vt 0.912049 0.325169
vt 0.919514 0.325169
vt 0.991396 0.693189
vt 0.992672 0.870920
vt 0.665973 0.345107
vt 0.718067 0.357620
vt 0.909758 0.501468
vt 0.918352 0.501468
vt 0.918352 0.516074
vt 0.909758 0.516074
vt 0.977775 0.457241
vt 0.984542 0.457241
vt 0.984542 0.464544
vt 0.977775 0.464544
vt 0.934703 0.511725
vt 0.938689 0.511725
vt 0.938689 0.526331
vt 0.934703 0.526331
vt 0.934703 0.478548
vt 0.934703 0.431023
vt 0.949309 0.431023
vt 0.949309 0.478548
vt 0.942374 0.510810
vt 0.942374 0.479842
vt 0.949131 0.479463
vt 0.949131 0.510431
vt 0.894602 0.431023
vt 0.902831 0.432280
vt 0.901553 0.501798
vt 0.894602 0.499067
vt 0.958517 0.528423
vt 0.958517 0.521045
vt 0.965686 0.525747
vt 0.950224 0.431023
vt 0.957602 0.431023
vt 0.957442 0.478547
vt 0.950563 0.478210
vt 0.939658 0.511790
vt 0.948199 0.511725
vt 0.948199 0.525476
vt 0.939604 0.525632
vt 0.950224 0.510431
vt 0.950224 0.479463
vt 0.957527 0.479463
vt 0.957527 0.510431
vt 0.969471 0.479462
vt 0.973122 0.520131
vt 0.958517 0.520131
vt 0.962168 0.479462
vt 0.980700 0.456326
vt 0.977775 0.453617
vt 0.980700 0.446544
vt 0.941459 0.510810
vt 0.934703 0.510431
vt 0.934703 0.479463
vt 0.941459 0.479842
vt 0.885457 0.501798
vt 0.885457 0.433754
vt 0.892409 0.431023
vt 0.893687 0.500541
vt 0.895943 0.502713
vt 0.902831 0.502713
vt 0.902831 0.517318
vt 0.895943 0.517318
vt 0.929936 0.499982
vt 0.933788 0.502065
vt 0.929936 0.514723
vt 0.958517 0.478547
vt 0.958856 0.431361
vt 0.965735 0.431023
vt 0.965894 0.478547
vt 0.950224 0.511345
vt 0.954220 0.518648
vt 0.950224 0.525951
vt 0.885457 0.502713
vt 0.893999 0.502713
vt 0.893999 0.517318
vt 0.885457 0.517318
vt 0.903746 0.500553
vt 0.903746 0.431023
vt 0.918352 0.431023
vt 0.918352 0.500553
vt 0.904465 0.501468
vt 0.908844 0.501468
vt 0.908844 0.516074
vt 0.904465 0.516074
vt 0.919267 0.431023
vt 0.933788 0.497500
vt 0.919267 0.499068
vt 0.974037 0.513196
vt 0.977569 0.511345
vt 0.977569 0.525985
vt 0.921702 0.515638
vt 0.929021 0.517122
vt 0.921702 0.528870
vt 0.919267 0.499982
vt 0.927860 0.499982
vt 0.927862 0.514724
vt 0.919267 0.514622
vt 0.904465 0.516989
vt 0.911843 0.516989
vt 0.909038 0.529956
vt 0.919724 0.521985
vt 0.912758 0.524676
vt 0.912758 0.516989
vt 0.903500 0.528350
vt 0.894914 0.528015
vt 0.894926 0.518233
vt 0.903468 0.518233
vt 0.885457 0.518497
vt 0.893995 0.518233
vt 0.893995 0.526807
vt 0.885457 0.527070
vt 0.933788 0.522670
vt 0.930681 0.525755
vt 0.930681 0.515638
vt 0.966809 0.478366
vt 0.966809 0.431178
vt 0.971377 0.431023
vt 0.971377 0.437790
vt 0.981340 0.479462
vt 0.981340 0.510430
vt 0.974037 0.510430
vt 0.974037 0.479462
vt 0.977775 0.431023
vt 0.980525 0.434675
vt 0.980525 0.441978
vt 0.977775 0.445629
vt 0.972292 0.431023
vt 0.976861 0.471599
vt 0.976861 0.478366
vt 0.972292 0.478211
vt 0.824310 0.697485
vt 0.985250 0.547917
vt 0.985250 0.562280
vt 0.981330 0.555098
vt 0.919591 0.618408
vt 0.905228 0.618408
vt 0.905228 0.547917
vt 0.919591 0.547917
vt 0.980496 0.588604
vt 0.976085 0.588366
vt 0.976085 0.547917
vt 0.980111 0.548290
vt 0.942231 0.605932
vt 0.941110 0.552767
vt 0.950165 0.547917
vt 0.950165 0.603916
vt 0.911538 0.635943
vt 0.919012 0.636827
vt 0.911538 0.643507
vt 0.904394 0.547917
vt 0.903575 0.618139
vt 0.896846 0.618905
vt 0.896846 0.548415
vt 0.934451 0.614926
vt 0.934451 0.635419
vt 0.925999 0.635334
vt 0.925913 0.620080
vt 0.971660 0.645159
vt 0.960888 0.645159
vt 0.962683 0.604750
vt 0.969864 0.604750
vt 0.929504 0.547917
vt 0.936685 0.547917
vt 0.940276 0.614091
vt 0.925913 0.614091
vt 0.936844 0.630587
vt 0.936844 0.614926
vt 0.937437 0.622428
vt 0.980496 0.589438
vt 0.980111 0.629752
vt 0.976085 0.630126
vt 0.976085 0.589677
vt 0.958933 0.605932
vt 0.950999 0.603916
vt 0.950999 0.547917
vt 0.960054 0.552767
vt 0.976085 0.645323
vt 0.976085 0.630960
vt 0.982858 0.630960
vt 0.982858 0.645323
vt 0.974216 0.604750
vt 0.974216 0.625841
vt 0.972494 0.612944
vt 0.896011 0.618905
vt 0.888463 0.618408
vt 0.888463 0.547917
vt 0.895193 0.548683
vt 0.924750 0.619242
vt 0.924750 0.633605
vt 0.920820 0.626423
vt 0.896858 0.641222
vt 0.888463 0.646608
vt 0.888463 0.635836
vt 0.960888 0.547917
vt 0.975250 0.547917
vt 0.975250 0.603916
vt 0.960888 0.603916
vt 0.951019 0.635873
vt 0.946714 0.643055
vt 0.946714 0.628692
vt 0.951831 0.614822
vt 0.950397 0.627789
vt 0.950397 0.606767
vt 0.910704 0.627932
vt 0.905228 0.639735
vt 0.905228 0.619242
vt 0.949562 0.606767
vt 0.949562 0.627789
vt 0.941110 0.627858
vt 0.941112 0.606767
vt 0.904394 0.619740
vt 0.904394 0.634994
vt 0.897926 0.623663
vt 0.941110 0.643654
vt 0.941110 0.628692
vt 0.945879 0.634557
vt 0.911538 0.635108
vt 0.911587 0.619242
vt 0.919986 0.619249
vt 0.919986 0.634911
vt 0.888463 0.629763
vt 0.888557 0.619740
vt 0.896950 0.620040
vt 0.896950 0.635002
vt 0.935286 0.622450
vt 0.936009 0.614926
vt 0.936009 0.630792
vt 0.923169 0.547917
vt 0.925079 0.614161
vt 0.923169 0.618144
vt 0.960054 0.647083
vt 0.952872 0.647083
vt 0.952872 0.606767
vt 0.960054 0.606767
vt 0.920425 0.618145
vt 0.920425 0.547917
vt 0.922335 0.551900
s 0
usemtl Material
f 6/1/1 35/2/1 34/3/1 25/4/1
f 18/5/2 27/6/2 26/7/2
f 20/8/3 17/9/3 3/10/3 11/11/3
f 8/12/4 11/11/4 19/13/4 36/14/4 33/15/4
f 33/16/5 36/17/5 40/18/5 38/19/5
f 26/7/6 20/8/6 11/11/6 8/12/6
f 17/20/7 16/21/7 2/22/7 3/23/7
f 6/24/8 60/25/8 85/26/8 37/27/8
f 36/17/9 35/28/9 39/29/9 40/18/9
f 41/30/10 15/31/10 16/21/10 17/20/10
f 14/32/11 13/33/11 19/34/11 32/35/11
f 20/8/12 41/36/12 17/9/12
f 31/37/13 30/38/13 22/39/13 24/40/13
f 18/5/14 26/7/14 8/12/14 4/41/14
f 30/42/15 29/43/15 21/44/15 22/45/15
f 11/46/16 3/47/16 2/48/16 28/49/16
f 32/35/17 19/34/17 11/50/17 28/51/17
f 7/52/18 9/53/18 29/43/18 30/42/18
f 12/54/19 7/55/19 30/38/19 31/37/19
f 4/56/20 33/16/20 38/19/20 23/57/20
f 33/15/21 4/41/21 8/12/21
f 34/3/22 35/2/22 13/33/22 14/32/22
f 35/58/23 36/14/23 19/13/23 13/59/23
f 35/28/24 6/24/24 37/27/24 39/29/24
f 24/40/25 22/39/25 41/36/25 20/8/25
f 27/6/26 24/40/26 20/8/26 26/7/26
f 22/45/27 21/44/27 15/60/27 41/61/27
f 24/62/28 27/63/28 45/64/28 44/65/28
f 27/63/29 18/66/29 43/67/29 45/64/29
f 12/68/30 31/69/30 46/70/30 42/71/30
f 31/69/31 24/62/31 44/65/31 46/70/31
f 9/72/32 7/73/32 47/74/32 48/75/32
f 7/73/33 12/76/33 42/77/33 47/74/33
f 10/78/34 5/79/34 60/80/34
f 38/81/35 40/82/35 53/83/35 51/84/35
f 45/85/36 43/86/36 55/87/36 57/88/36
f 44/89/37 45/85/37 57/88/37 56/90/37
f 40/82/38 39/91/38 52/92/38 53/83/38
f 42/93/39 46/94/39 58/95/39 54/96/39
f 46/94/40 44/89/40 56/90/40 58/95/40
f 39/91/41 37/97/41 50/98/41 52/92/41
f 23/99/42 38/81/42 51/84/42 49/100/42
f 23/99/43 49/100/43 62/101/43 65/102/43
f 55/103/44 43/104/44 66/105/44 59/106/44
f 18/107/45 4/108/45 23/109/45 43/110/45
f 57/111/46 55/112/46 54/113/46 58/114/46
f 85/115/47 60/80/47 5/79/47 1/116/47
f 49/117/48 51/118/48 50/119/48 60/120/48
f 51/118/46 53/121/46 52/122/46 50/119/46
f 54/123/49 55/124/49 64/125/49 63/126/49
f 10/127/50 61/128/50 49/129/50 60/130/50
f 47/131/51 54/123/51 63/126/51 48/132/51
f 42/133/52 54/123/52 47/131/52
f 56/134/46 57/111/46 58/114/46
f 66/135/53 65/136/53 62/137/53 59/138/53
f 61/139/43 62/101/43 49/100/43
f 43/140/46 23/141/46 65/142/46 66/143/46
f 75/144/54 76/145/54 70/146/54 69/147/54
f 69/148/55 70/149/55 74/150/55 73/151/55
f 71/152/46 72/153/46 79/154/46 80/155/46
f 69/156/56 73/157/56 75/158/56
f 74/159/57 70/160/57 76/161/57
f 67/162/58 68/163/58 76/164/58 75/165/58
f 72/166/59 71/167/59 73/168/59 74/169/59
f 71/170/60 67/171/60 75/172/60 73/173/60
f 68/174/61 72/175/61 74/176/61 76/177/61
f 80/178/62 79/179/62 78/180/62 77/181/62
f 80/182/62 77/183/62 81/184/62 82/185/62
f 68/186/54 67/187/54 77/188/54 78/189/54
f 72/190/57 68/191/57 78/192/57 79/193/57
f 84/194/56 83/195/56 82/196/56 81/197/56
f 71/198/63 80/199/63 82/200/63 83/201/63
f 67/202/55 71/203/55 83/204/55 84/205/55
f 77/206/64 67/207/64 84/208/64 81/209/64
f 85/210/65 60/211/65 50/98/65 37/97/65
f 10/212/66 60/213/66 6/1/66 25/4/66
f 102/214/62 103/215/62 108/216/62 88/217/62
f 87/218/67 89/219/67 96/220/67 100/221/67
f 105/222/54 102/223/54 88/224/54 92/225/54
f 98/226/68 105/227/68 92/228/68 94/229/68
f 114/230/56 89/231/56 87/232/56 113/233/56
f 93/234/69 91/235/69 104/236/69 99/237/69
f 105/238/70 106/239/70 111/240/70
f 106/241/56 105/242/56 98/243/56 97/244/56
f 90/245/71 101/246/71 110/247/71 109/248/71
f 113/249/46 87/250/46 100/251/46 116/252/46
f 114/253/72 97/254/72 95/255/72 115/256/72
f 102/257/73 105/258/73 111/259/73
f 115/260/57 116/261/57 100/262/57 96/263/57
f 93/264/74 90/265/74 107/266/74 86/267/74
f 97/268/54 98/269/54 94/270/54 95/271/54
f 108/272/46 107/273/46 109/274/46
f 101/275/57 95/276/57 94/277/57 92/278/57
f 91/279/75 93/280/75 86/281/75
f 99/282/67 106/283/67 101/284/67 90/285/67
f 104/286/76 91/287/76 86/288/76 107/289/76
f 103/290/46 104/291/46 107/292/46 108/293/46
f 93/294/77 99/295/77 90/296/77
f 92/297/54 88/298/54 110/299/54
f 107/300/78 90/301/78 109/302/78
f 88/303/79 108/304/79 109/305/79 110/306/79
f 101/307/80 92/308/80 110/309/80
f 99/310/81 104/311/81 112/312/81
f 103/313/82 102/314/82 111/315/82 112/316/82
f 106/317/83 99/318/83 112/319/83 111/320/83
f 104/321/84 103/322/84 112/323/84
f 95/324/85 101/325/85 116/326/85 115/327/85
f 89/328/54 114/329/54 115/330/54 96/331/54
f 106/332/46 113/333/46 116/334/46 101/335/46
f 97/336/86 114/337/86 113/338/86 106/339/86
f 55/103/44 59/106/44 64/340/44
f 134/341/54 123/342/54 119/343/54
f 129/344/87 125/345/87 123/346/87 134/347/87
f 141/348/88 135/349/88 118/350/88 120/351/88
f 124/352/89 121/353/89 133/354/89 122/355/89
f 134/356/90 139/357/90 135/358/90
f 135/359/91 128/360/91 129/361/91 134/362/91
f 121/363/92 137/364/92 138/365/92 131/366/92
f 135/367/46 131/368/46 130/369/46 118/370/46
f 141/371/93 142/372/93 126/373/93 128/374/93
f 119/375/94 139/376/94 134/377/94
f 142/378/95 127/379/95 130/380/95 131/381/95
f 124/382/96 117/383/96 136/384/96 121/385/96
f 128/386/54 126/387/54 125/388/54 129/389/54
f 132/390/46 137/391/46 136/392/46
f 131/393/97 123/394/97 125/395/97 126/396/97
f 122/397/98 117/398/98 124/399/98
f 121/400/99 131/401/99 135/402/99
f 133/403/100 136/404/100 117/405/100 122/406/100
f 132/407/46 136/408/46 133/409/46
f 123/410/54 138/411/54 119/412/54
f 136/413/101 137/414/101 121/415/101
f 119/416/102 138/417/102 137/418/102 132/419/102
f 131/420/103 138/421/103 123/422/103
f 121/423/104 140/424/104 133/425/104
f 132/426/105 140/427/105 139/428/105 119/429/105
f 135/430/106 139/431/106 140/432/106 121/433/106
f 133/434/107 140/435/107 132/436/107
f 126/437/108 142/438/108 131/439/108
f 120/440/54 127/441/54 142/442/54 141/443/54
f 128/444/109 135/445/109 141/446/109
f 147/1/110 25/4/110 34/3/110 165/2/110
f 154/5/111 160/7/111 161/6/111
f 156/8/112 150/11/112 144/10/112 153/9/112
f 149/12/113 164/15/113 166/14/113 155/13/113 150/11/113
f 164/16/114 168/19/114 170/18/114 166/17/114
f 160/7/115 149/12/115 150/11/115 156/8/115
f 153/20/116 144/23/116 2/22/116 16/21/116
f 147/24/117 167/27/117 209/26/117 188/25/117
f 166/17/118 170/18/118 169/29/118 165/28/118
f 171/30/119 153/20/119 16/21/119 15/31/119
f 14/32/120 32/35/120 155/34/120 152/33/120
f 156/8/121 153/9/121 171/36/121
f 163/37/122 159/40/122 157/39/122 162/38/122
f 154/5/123 145/41/123 149/12/123 160/7/123
f 162/42/124 157/45/124 21/44/124 29/43/124
f 150/46/125 28/49/125 2/48/125 144/47/125
f 32/35/126 28/51/126 150/50/126 155/34/126
f 148/52/127 162/42/127 29/43/127 9/53/127
f 151/54/128 163/37/128 162/38/128 148/55/128
f 145/56/129 158/57/129 168/19/129 164/16/129
f 164/15/130 149/12/130 145/41/130
f 34/3/131 14/32/131 152/33/131 165/2/131
f 165/58/132 152/59/132 155/13/132 166/14/132
f 165/28/133 169/29/133 167/27/133 147/24/133
f 159/40/134 156/8/134 171/36/134 157/39/134
f 161/6/135 160/7/135 156/8/135 159/40/135
f 157/45/136 171/61/136 15/60/136 21/44/136
f 159/62/137 174/65/137 175/64/137 161/63/137
f 161/63/138 175/64/138 173/67/138 154/66/138
f 151/68/139 172/71/139 176/70/139 163/69/139
f 163/69/140 176/70/140 174/65/140 159/62/140
f 9/72/141 48/75/141 177/74/141 148/73/141
f 148/73/142 177/74/142 172/77/142 151/76/142
f 10/78/143 188/80/143 146/79/143
f 168/81/35 180/84/35 182/83/35 170/82/35
f 175/85/36 186/88/36 184/87/36 173/86/36
f 174/89/37 185/90/37 186/88/37 175/85/37
f 170/82/38 182/83/38 181/92/38 169/91/38
f 172/93/39 183/96/39 187/95/39 176/94/39
f 176/94/40 187/95/40 185/90/40 174/89/40
f 169/91/41 181/92/41 179/98/41 167/97/41
f 158/99/42 178/100/42 180/84/42 168/81/42
f 158/99/43 189/102/43 62/101/43 178/100/43
f 184/103/44 59/106/44 190/105/44 173/104/44
f 154/107/144 173/110/144 158/109/144 145/108/144
f 186/111/54 187/114/54 183/113/54 184/112/54
f 209/115/145 143/116/145 146/79/145 188/80/145
f 178/117/146 188/120/146 179/119/146 180/118/146
f 180/118/54 179/119/54 181/122/54 182/121/54
f 183/123/49 63/126/49 64/125/49 184/124/49
f 10/127/147 188/130/147 178/129/147 61/128/147
f 177/131/148 48/132/148 63/126/148 183/123/148
f 172/133/52 177/131/52 183/123/52
f 185/134/54 187/114/54 186/111/54
f 190/135/53 59/138/53 62/137/53 189/136/53
f 61/139/43 178/100/43 62/101/43
f 173/140/54 190/143/54 189/142/54 158/141/54
f 199/144/46 193/147/46 194/146/46 200/145/46
f 193/148/55 197/151/55 198/150/55 194/149/55
f 195/152/54 204/155/54 203/154/54 196/153/54
f 193/156/56 199/158/56 197/157/56
f 198/159/57 200/161/57 194/160/57
f 191/162/149 199/165/149 200/164/149 192/163/149
f 196/166/150 198/169/150 197/168/150 195/167/150
f 195/170/151 197/173/151 199/172/151 191/171/151
f 192/174/152 200/177/152 198/176/152 196/175/152
f 204/178/62 201/181/62 202/180/62 203/179/62
f 204/182/62 206/185/62 205/184/62 201/183/62
f 192/186/46 202/189/46 201/188/46 191/187/46
f 196/190/57 203/193/57 202/192/57 192/191/57
f 208/194/56 205/197/56 206/196/56 207/195/56
f 195/198/153 207/201/153 206/200/153 204/199/153
f 191/202/55 208/205/55 207/204/55 195/203/55
f 201/206/154 205/209/154 208/208/154 191/207/154
f 209/210/155 167/97/155 179/98/155 188/211/155
f 10/212/156 25/4/156 147/1/156 188/213/156
f 222/214/62 212/217/62 228/216/62 223/215/62
f 211/218/157 220/221/157 218/220/157 213/219/157
f 225/222/46 216/225/46 212/224/46 222/223/46
f 98/226/158 94/229/158 216/228/158 225/227/158
f 234/230/56 233/233/56 211/232/56 213/231/56
f 217/234/159 219/237/159 224/236/159 215/235/159
f 225/238/160 231/240/160 226/239/160
f 226/241/56 97/244/56 98/243/56 225/242/56
f 214/245/161 229/248/161 230/247/161 221/246/161
f 233/249/54 236/252/54 220/251/54 211/250/54
f 234/253/162 235/256/162 95/255/162 97/254/162
f 222/257/163 231/259/163 225/258/163
f 235/260/57 218/263/57 220/262/57 236/261/57
f 217/264/164 210/267/164 227/266/164 214/265/164
f 228/272/54 229/274/54 227/273/54
f 221/275/57 216/278/57 94/277/57 95/276/57
f 215/279/165 210/281/165 217/280/165
f 219/282/157 214/285/157 221/284/157 226/283/157
f 224/286/166 227/289/166 210/288/166 215/287/166
f 223/290/54 228/293/54 227/292/54 224/291/54
f 217/294/167 214/296/167 219/295/167
f 216/297/46 230/299/46 212/298/46
f 227/300/168 229/302/168 214/301/168
f 212/303/169 230/306/169 229/305/169 228/304/169
f 221/307/170 230/309/170 216/308/170
f 219/310/171 232/312/171 224/311/171
f 223/313/172 232/316/172 231/315/172 222/314/172
f 226/317/173 231/320/173 232/319/173 219/318/173
f 224/321/174 232/323/174 223/322/174
f 95/324/175 235/327/175 236/326/175 221/325/175
f 213/328/46 218/331/46 235/330/46 234/329/46
f 226/332/54 221/335/54 236/334/54 233/333/54
f 97/336/176 226/339/176 233/338/176 234/337/176
f 184/103/44 64/340/44 59/106/44
f 250/341/46 239/343/46 243/342/46
f 129/344/177 250/347/177 243/346/177 125/345/177
f 257/348/178 240/351/178 238/350/178 251/349/178
f 244/352/179 242/355/179 249/354/179 241/353/179
f 250/356/180 251/358/180 255/357/180
f 251/359/181 250/362/181 129/361/181 128/360/181
f 241/363/182 247/366/182 254/365/182 253/364/182
f 251/367/54 238/370/54 246/369/54 247/368/54
f 257/371/183 128/374/183 126/373/183 258/372/183
f 239/375/184 250/377/184 255/376/184
f 258/378/185 247/381/185 246/380/185 245/379/185
f 244/382/186 241/385/186 252/384/186 237/383/186
f 248/390/54 252/392/54 253/391/54
f 247/393/187 126/396/187 125/395/187 243/394/187
f 242/397/188 244/399/188 237/398/188
f 241/400/189 251/402/189 247/401/189
f 249/403/190 242/406/190 237/405/190 252/404/190
f 248/407/54 249/409/54 252/408/54
f 243/410/46 239/412/46 254/411/46
f 252/413/191 241/415/191 253/414/191
f 239/416/192 248/419/192 253/418/192 254/417/192
f 247/420/193 243/422/193 254/421/193
f 241/423/194 249/425/194 256/424/194
f 248/426/195 239/429/195 255/428/195 256/427/195
f 251/430/196 241/433/196 256/432/196 255/431/196
f 249/434/197 248/436/197 256/435/197
f 126/437/198 247/439/198 258/438/198
f 240/440/46 257/443/46 258/442/46 245/441/46
f 128/444/199 257/446/199 251/445/199
o wheel_FR
v -0.614675 0.333574 1.311171
v -0.750947 0.333574 1.311171
v -0.614675 0.333574 0.970492
v -0.750947 0.333574 0.970492
v -0.614675 0.092678 1.070274
v -0.750947 0.092678 1.070274
v -0.614675 -0.007105 1.311171
v -0.750947 -0.007105 1.311171
v -0.614675 0.092678 1.552067
v -0.750947 0.092678 1.552067
v -0.614675 0.333574 1.651850
v -0.750947 0.333574 1.651850
v -0.614675 0.574471 1.552067
v -0.750947 0.574471 1.552067
v -0.614675 0.674253 1.311171
v -0.750947 0.674253 1.311171
v -0.614675 0.574471 1.070274
v -0.750947 0.574471 1.070274
vn -1.0000 -0.0000 -0.0000
vn 1.0000 -0.0000 -0.0000
vn -0.0000 -0.3827 -0.9239
vn -0.0000 -0.9239 -0.3827
vn -0.0000 -0.9239 0.3827
vn -0.0000 -0.3827 0.9239
vn -0.0000 0.3827 0.9239
vn -0.0000 0.9239 0.3827
vn -0.0000 0.9239 -0.3827
vn -0.0000 0.3827 -0.9239
vt 0.125000 0.995000
vt 0.209853 0.959853
vt 0.125000 0.875000
vt 0.040147 0.959853
vt 0.245000 0.875000
vt 0.209853 0.790147
vt 0.328756 0.943268
vt 0.316256 0.943268
vt 0.316256 0.993268
vt 0.328756 0.993268
vt 0.125000 0.755000
vt 0.040147 0.790147
vt 0.303756 0.943268
vt 0.303756 0.993268
vt 0.291256 0.943268
vt 0.291256 0.993268
vt 0.005000 0.875000
vt 0.278756 0.943268
vt 0.278756 0.993268
vt 0.266256 0.943268
vt 0.266256 0.993268
vt 0.253756 0.943268
vt 0.253756 0.993268
vt 0.241256 0.943268
vt 0.241256 0.993268
vt 0.228756 0.943268
vt 0.228756 0.993268
s 0
usemtl Material
f 262/447/200 264/448/200 260/449/200 276/450/200
f 265/451/201 263/448/201 259/449/201 267/452/201
f 261/453/202 263/454/202 264/455/202 262/456/202
f 260/449/200 264/448/200 266/451/200 268/452/200
f 269/457/201 267/452/201 259/449/201 271/458/201
f 263/454/203 265/459/203 266/460/203 264/455/203
f 265/459/204 267/461/204 268/462/204 266/460/204
f 260/449/200 268/452/200 270/457/200 272/458/200
f 273/463/201 271/458/201 259/449/201 275/450/201
f 267/461/205 269/464/205 270/465/205 268/462/205
f 269/464/206 271/466/206 272/467/206 270/465/206
f 260/449/200 272/458/200 274/463/200 276/450/200
f 271/466/207 273/468/207 274/469/207 272/467/207
f 273/468/208 275/470/208 276/471/208 274/469/208
f 275/470/209 261/472/209 262/473/209 276/471/209
f 259/449/201 263/448/201 261/447/201 275/450/201
o wheel_RL
v 0.614675 0.333574 -1.088829
v 0.750947 0.333574 -1.088829
v 0.614675 0.333574 -1.429508
v 0.750947 0.333574 -1.429508
v 0.614675 0.092678 -1.329726
v 0.750947 0.092678 -1.329726
v 0.614675 -0.007105 -1.088829
v 0.750947 -0.007105 -1.088829
v 0.614675 0.092678 -0.847933
v 0.750947 0.092678 -0.847933
v 0.614675 0.333574 -0.748150
v 0.750947 0.333574 -0.748150
v 0.614675 0.574471 -0.847933
v 0.750947 0.574471 -0.847933
v 0.614675 0.674253 -1.088829
v 0.750947 0.674253 -1.088829
v 0.614675 0.574471 -1.329726
v 0.750947 0.574471 -1.329726
vn 1.0000 -0.0000 -0.0000
vn -1.0000 -0.0000 -0.0000
vn -0.0000 -0.3827 -0.9239
vn -0.0000 -0.9239 -0.3827
vn -0.0000 -0.9239 0.3827
vn -0.0000 -0.3827 0.9239
vn -0.0000 0.3827 0.9239
vn -0.0000 0.9239 0.3827
vn -0.0000 0.9239 -0.3827
vn -0.0000 0.3827 -0.9239
vt 0.125000 0.995000
vt 0.040147 0.959853
vt 0.125000 0.875000
vt 0.209853 0.959853
vt 0.245000 0.875000
vt 0.209853 0.790147
vt 0.328756 0.943268
vt 0.328756 0.993268
vt 0.316256 0.993268
vt 0.316256 0.943268
vt 0.125000 0.755000
vt 0.040147 0.790147
vt 0.303756 0.993268
vt 0.303756 0.943268
vt 0.291256 0.993268
vt 0.291256 0.943268
vt 0.005000 0.875000
vt 0.278756 0.993268
vt 0.278756 0.943268
vt 0.266256 0.993268
vt 0.266256 0.943268
vt 0.253756 0.993268
vt 0.253756 0.943268
vt 0.241256 0.993268
vt 0.241256 0.943268
vt 0.228756 0.993268
vt 0.228756 0.943268
s 0
usemtl Material
f 280/474/210 294/475/210 278/476/210 282/477/210
f 283/478/211 285/479/211 277/476/211 281/477/211
f 279/480/212 280/481/212 282/482/212 281/483/212
f 278/476/210 286/479/210 284/478/210 282/477/210
f 287/484/211 289/485/211 277/476/211 285/479/211
f 281/483/213 282/482/213 284/486/213 283/487/213
f 283/487/214 284/486/214 286/488/214 285/489/214
f 278/476/210 290/485/210 288/484/210 286/479/210
f 291/490/211 293/475/211 277/476/211 289/485/211
f 285/489/215 286/488/215 288/491/215 287/492/215
f 287/492/216 288/491/216 290/493/216 289/494/216
f 278/476/210 294/475/210 292/490/210 290/485/210
f 289/494/217 290/493/217 292/495/217 291/496/217
f 291/496/218 292/495/218 294/497/218 293/498/218
f 293/498/219 294/497/219 280/499/219 279/500/219
f 277/476/211 293/475/211 279/474/211 281/477/211
o wheel_RR
v -0.614675 0.333574 -1.088829
v -0.750947 0.333574 -1.088829
v -0.614675 0.333574 -1.429508
v -0.750947 0.333574 -1.429508
v -0.614675 0.092678 -1.329726
v -0.750947 0.092678 -1.329726
v -0.614675 -0.007105 -1.088829
v -0.750947 -0.007105 -1.088829
v -0.614675 0.092678 -0.847933
v -0.750947 0.092678 -0.847933
v -0.614675 0.333574 -0.748150
v -0.750947 0.333574 -0.748150
v -0.614675 0.574471 -0.847933
v -0.750947 0.574471 -0.847933
v -0.614675 0.674253 -1.088829
v -0.750947 0.674253 -1.088829
v -0.614675 0.574471 -1.329726
v -0.750947 0.574471 -1.329726
vn -1.0000 -0.0000 -0.0000
vn 1.0000 -0.0000 -0.0000
vn -0.0000 -0.3827 -0.9239
vn -0.0000 -0.9239 -0.3827
vn -0.0000 -0.9239 0.3827
vn -0.0000 -0.3827 0.9239
vn -0.0000 0.3827 0.9239
vn -0.0000 0.9239 0.3827
vn -0.0000 0.9239 -0.3827
vn -0.0000 0.3827 -0.9239
vt 0.125000 0.995000
vt 0.209853 0.959853
vt 0.125000 0.875000
vt 0.040147 0.959853
vt 0.245000 0.875000
vt 0.209853 0.790147
vt 0.328756 0.943268
vt 0.316256 0.943268
vt 0.316256 0.993268
vt 0.328756 0.993268
vt 0.125000 0.755000
vt 0.040147 0.790147
vt 0.303756 0.943268
vt 0.303756 0.993268
vt 0.291256 0.943268
vt 0.291256 0.993268
vt 0.005000 0.875000
vt 0.278756 0.943268
vt 0.278756 0.993268
vt 0.266256 0.943268
vt 0.266256 0.993268
vt 0.253756 0.943268
vt 0.253756 0.993268
vt 0.241256 0.943268
vt 0.241256 0.993268
vt 0.228756 0.943268
vt 0.228756 0.993268
s 0
usemtl Material
f 298/501/220 300/502/220 296/503/220 312/504/220
f 301/505/221 299/502/221 295/503/221 303/506/221
f 297/507/222 299/508/222 300/509/222 298/510/222
f 296/503/220 300/502/220 302/505/220 304/506/220
f 305/511/221 303/506/221 295/503/221 307/512/221
f 299/508/223 301/513/223 302/514/223 300/509/223
f 301/513/224 303/515/224 304/516/224 302/514/224
f 296/503/220 304/506/220 306/511/220 308/512/220
f 309/517/221 307/512/221 295/503/221 311/504/221
f 303/515/225 305/518/225 306/519/225 304/516/225
f 305/518/226 307/520/226 308/521/226 306/519/226
f 296/503/220 308/512/220 310/517/220 312/504/220
f 307/520/227 309/522/227 310/523/227 308/521/227
f 309/522/228 311/524/228 312/525/228 310/523/228
f 311/524/229 297/526/229 298/527/229 312/525/229
f 295/503/221 299/502/221 297/501/221 311/504/221
o wheel_FL
v 0.614675 0.333574 1.311171
v 0.750947 0.333574 1.311171
v 0.614675 0.333574 0.970492
v 0.750947 0.333574 0.970492
v 0.614675 0.092678 1.070274
v 0.750947 0.092678 1.070274
v 0.614675 -0.007105 1.311171
v 0.750947 -0.007105 1.311171
v 0.614675 0.092678 1.552067
v 0.750947 0.092678 1.552067
v 0.614675 0.333574 1.651850
v 0.750947 0.333574 1.651850
v 0.614675 0.574471 1.552067
v 0.750947 0.574471 1.552067
v 0.614675 0.674253 1.311171
v 0.750947 0.674253 1.311171
v 0.614675 0.574471 1.070274
v 0.750947 0.574471 1.070274
vn 1.0000 -0.0000 -0.0000
vn -1.0000 -0.0000 -0.0000
vn -0.0000 -0.3827 -0.9239
vn -0.0000 -0.9239 -0.3827
vn -0.0000 -0.9239 0.3827
vn -0.0000 -0.3827 0.9239
vn -0.0000 0.3827 0.9239
vn -0.0000 0.9239 0.3827
vn -0.0000 0.9239 -0.3827
vn -0.0000 0.3827 -0.9239
vt 0.125000 0.995000
vt 0.040147 0.959853
vt 0.125000 0.875000
vt 0.209853 0.959853
vt 0.245000 0.875000
vt 0.209853 0.790147
vt 0.328756 0.943268
vt 0.328756 0.993268
vt 0.316256 0.993268
vt 0.316256 0.943268
vt 0.125000 0.755000
vt 0.040147 0.790147
vt 0.303756 0.993268
vt 0.303756 0.943268
vt 0.291256 0.993268
vt 0.291256 0.943268
vt 0.005000 0.875000
vt 0.278756 0.993268
vt 0.278756 0.943268
vt 0.266256 0.993268
vt 0.266256 0.943268
vt 0.253756 0.993268
vt 0.253756 0.943268
vt 0.241256 0.993268
vt 0.241256 0.943268
vt 0.228756 0.993268
vt 0.228756 0.943268
s 0
usemtl Material
f 316/528/230 330/529/230 314/530/230 318/531/230
f 319/532/231 321/533/231 313/530/231 317/531/231
f 315/534/232 316/535/232 318/536/232 317/537/232
f 314/530/230 322/533/230 320/532/230 318/531/230
f 323/538/231 325/539/231 313/530/231 321/533/231
f 317/537/233 318/536/233 320/540/233 319/541/233
f 319/541/234 320/540/234 322/542/234 321/543/234
f 314/530/230 326/539/230 324/538/230 322/533/230
f 327/544/231 329/529/231 313/530/231 325/539/231
f 321/543/235 322/542/235 324/545/235 323/546/235
f 323/546/236 324/545/236 326/547/236 325/548/236
f 314/530/230 330/529/230 328/544/230 326/539/230
f 325/548/237 326/547/237 328/549/237 327/550/237
f 327/550/238 328/549/238 330/551/238 329/552/238
f 329/552/239 330/551/239 316/553/239 315/554/239
f 313/530/231 329/529/231 315/528/231 317/531/231
