# File generated by ImageToStl.com - Free Image and 3D model conversion tools

mtllib IndustrialBuilding.mtl

o obj1
v 1.56537187 7.41356277 -0.07118385
v 1.56537187 6.28016472 -0.07118385
v 3.68971658 6.28016472 -0.07118385
v 3.68971658 7.41356277 -0.07118385
v -3.75917077 7.41356277 -0.07118385
v -3.75917077 6.28016472 -0.07118385
v -1.68722129 6.28016472 -0.07118385
v -1.68722129 7.41356277 -0.07118385
v -1.13862395 7.41356277 -0.07118385
v -1.13862395 6.28016472 -0.07118385
v 1.02366006 6.28016472 -0.07118385
v 1.02366006 7.41356277 -0.07118385
v -1.13862395 1.70014632 -0.07118385
v -1.13862395 0.59518808 -0.07118385
v 1.02366006 0.59518808 -0.07118385
v 1.02366006 1.70014632 -0.07118385
v -1.13862395 3.62795329 -0.07118385
v -1.13862395 2.49018049 -0.07118385
v 1.02366006 2.49018049 -0.07118385
v 1.02366006 3.62795329 -0.07118385
v -1.13862395 5.51638269 -0.07118385
v -1.13862395 4.40267372 -0.07118385
v 1.02366006 4.40267372 -0.07118385
v 1.02366006 5.51638269 -0.07118385
v -3.75917077 1.70014632 -0.07118385
v -3.75917077 0.59518808 -0.07118385
v -1.68722129 0.59518808 -0.07118385
v -1.68722129 1.70014632 -0.07118385
v -3.75917077 3.62795329 -0.07118385
v -3.75917077 2.49018049 -0.07118385
v -1.68722129 2.49018049 -0.07118385
v -1.68722129 3.62795329 -0.07118385
v -3.75917077 5.51638269 -0.07118385
v -3.75917077 4.40267372 -0.07118385
v -1.68722129 4.40267372 -0.07118385
v -1.68722129 5.51638269 -0.07118385
v 1.56537187 1.70014632 -0.07118385
v 1.56537187 0.59518808 -0.07118385
v 3.68971658 0.59518808 -0.07118385
v 3.68971658 1.70014632 -0.07118385
v 1.56537187 3.62795329 -0.07118385
v 1.56537187 2.49018049 -0.07118385
v 3.68971658 2.49018049 -0.07118385
v 3.68971658 3.62795329 -0.07118385
v 1.56537187 5.51638269 -0.07118385
v 1.56537187 4.40267372 -0.07118385
v 3.68971658 4.40267372 -0.07118385
v 3.68971658 5.51638269 -0.07118385
v -3.99999976 2.09190321 0
v -3.99999976 0 0
v -3.7933948 0.56096411 0
v -3.7933948 1.73437023 0
v 1.05788398 1.73437023 0
v 1.05788398 0.56096411 0
v 1.53114796 0.56096411 0
v 1.53114796 1.73437023 0
v 1.31668758 8 0
v 1.53114796 7.44778681 0
v 3.72394061 7.44778681 0
v 3.99999976 8 0
v -1.65299737 2.45595646 0
v -1.65299737 1.73437023 0
v -1.17284787 1.73437023 0
v -1.17284787 2.45595646 0
v 3.72394061 0.56096411 0
v 3.99999976 0 0
v 3.99999976 2.09455299 0
v 3.72394061 1.73437023 0
v 1.53114796 4.36844969 0
v 1.53114796 3.66217732 0
v 3.72394061 3.66217732 0
v 3.72394061 4.36844969 0
v -1.17284787 6.24594069 0
v -1.17284787 5.55060673 0
v 1.05788398 5.55060673 0
v 1.05788398 6.24594069 0
v -3.7933948 2.45595646 0
v 1.53114796 6.24594069 0
v 1.53114796 5.55060673 0
v 3.72394061 5.55060673 0
v 3.72394061 6.24594069 0
v 1.05788398 4.36844969 0
v 1.05788398 3.66217732 0
v -1.65299737 0.56096411 0
v -1.17284787 0.56096411 0
v -1.39524651 0 0
v 1.3022728 0 0
v 1.05788398 7.44778681 0
v -1.41560912 8 0
v -1.17284787 7.44778681 0
v 1.05788398 2.45595646 0
v 1.53114796 2.45595646 0
v 3.72394061 2.45595646 0
v -3.7933948 6.24594069 0
v -3.7933948 5.55060673 0
v -1.65299737 5.55060673 0
v -1.65299737 6.24594069 0
v -1.65299737 4.36844969 0
v -1.65299737 3.66217732 0
v -1.17284787 3.66217732 0
v -1.17284787 4.36844969 0
v -3.99999976 4 0
v -3.7933948 3.66217732 0
v -3.7933948 4.36844969 0
v 3.99999976 5.90860128 0
v -1.65299737 7.44778681 0
v -3.99999976 8 0
v -3.7933948 7.44778681 0
v -3.99999976 5.91384602 0
v 3.99999976 4.0139904 0
vn 0 -0 1
vn 0 -0 1
vn 0.90125 0 0.43331
vn 0 0.90125 0.4333
vn -0.90125 0 0.43331
vn 0 -0.90125 0.43331
vn 0 0.90125 0.4333
vn 0 -0.90125 0.43331
vn 0.90125 0 0.43331
vn 0.90125 0 0.4333
vn 0.90125 0 0.43331
vn -0.90125 0 0.43331
vn -0.90125 0 0.43331
vn -0.90125 0 0.4333
vn 0.90125 0 0.4333
vn -0.90125 0 0.4333
vn -0.90125 0 0.4333
vn 0.90125 0 0.4333
vn 0.90125 0 0.4333
vn -0.90125 0 0.4333
vn 0 0.90125 0.43331
vn 0 -0.90125 0.4333
vn 0 0.90125 0.43331
vn 0 -0.90125 0.4333
vt 0.69531 0.92578
vt 0.69531 0.78516
vt 0.96094 0.78516
vt 0.96094 0.92578
vt 0.03125 0.92578
vt 0.03125 0.78516
vt 0.28906 0.78516
vt 0.28906 0.92578
vt 0.35938 0.92578
vt 0.35938 0.78516
vt 0.625 0.78516
vt 0.625 0.92578
vt 0.35938 0.21094
vt 0.35938 0.07422
vt 0.625 0.07422
vt 0.625 0.21094
vt 0.35938 0.45312
vt 0.35938 0.3125
vt 0.625 0.3125
vt 0.625 0.45312
vt 0.35938 0.69141
vt 0.35938 0.55078
vt 0.625 0.55078
vt 0.625 0.6875
vt 0.03125 0.21484
vt 0.03125 0.07422
vt 0.28906 0.07422
vt 0.28906 0.21484
vt 0.03125 0.45312
vt 0.03125 0.3125
vt 0.28906 0.3125
vt 0.28906 0.45312
vt 0.03125 0.69141
vt 0.03125 0.55078
vt 0.28906 0.55078
vt 0.28906 0.69141
vt 0.69141 0.21094
vt 0.69141 0.07422
vt 0.96094 0.07422
vt 0.96094 0.21094
vt 0.69141 0.45312
vt 0.69531 0.3125
vt 0.96094 0.3125
vt 0.96094 0.45312
vt 0.69531 0.6875
vt 0.69531 0.55078
vt 0.96094 0.55078
vt 0.96094 0.6875
vt 0 0.26172
vt 0 0
vt 0.02734 0.07031
vt 0.02734 0.21875
vt 0.62891 0.21875
vt 0.62891 0.07031
vt 0.6875 0.07031
vt 0.6875 0.21875
vt 0.66016 1
vt 0.6875 0.92969
vt 0.96484 0.92969
vt 1 1
vt 0.29297 0.30859
vt 0.29297 0.21875
vt 0.35547 0.21875
vt 0.35547 0.30859
vt 0.96484 0.07031
vt 1 0
vt 1 0.26172
vt 0.96484 0.21484
vt 0.6875 0.54688
vt 0.6875 0.45703
vt 0.96484 0.45703
vt 0.96484 0.54688
vt 0.35547 0.78125
vt 0.35547 0.69531
vt 0.62891 0.69531
vt 0.62891 0.78125
vt 0.02734 0.30859
vt 0.6875 0.78125
vt 0.6875 0.69531
vt 0.96484 0.69531
vt 0.96484 0.78125
vt 0.62891 0.54688
vt 0.62891 0.45703
vt 0.29297 0.07031
vt 0.35547 0.07031
vt 0.32422 0
vt 0.66016 0
vt 0.62891 0.92969
vt 0.32422 1
vt 0.35547 0.92969
vt 0.62891 0.30859
vt 0.6875 0.30859
vt 0.96484 0.30859
vt 0.02734 0.78125
vt 0.02734 0.69531
vt 0.29297 0.69531
vt 0.29297 0.78125
vt 0.29297 0.54688
vt 0.29297 0.45703
vt 0.35547 0.45703
vt 0.35547 0.54688
vt 0 0.5
vt 0.02734 0.45703
vt 0.02734 0.54688
vt 1 0.73828
vt 0.29297 0.92969
vt 0 1
vt 0.02734 0.92969
vt 0 0.73828
vt 1 0.5
usemtl mat0
f 1/1/1 2/2/1 3/3/1
f 1/1/1 3/3/1 4/4/1
f 5/5/1 6/6/1 7/7/1
f 5/5/1 7/7/1 8/8/1
f 9/9/1 10/10/1 11/11/1
f 9/9/1 11/11/1 12/12/1
f 13/13/1 14/14/1 15/15/1
f 13/13/1 15/15/1 16/16/1
f 17/17/1 18/18/1 19/19/1
f 17/17/1 19/19/1 20/20/1
f 21/21/1 22/22/1 23/23/1
f 21/21/1 23/23/1 24/24/1
f 25/25/1 26/26/1 27/27/1
f 25/25/1 27/27/1 28/28/1
f 29/29/1 30/30/1 31/31/1
f 29/29/1 31/31/1 32/32/1
f 33/33/1 34/34/1 35/35/1
f 33/33/1 35/35/1 36/36/1
f 37/37/1 38/38/1 39/39/1
f 37/37/1 39/39/1 40/40/1
f 41/41/1 42/42/1 43/43/1
f 41/41/1 43/43/1 44/44/1
f 45/45/1 46/46/1 47/47/1
f 45/45/1 47/47/1 48/48/1
f 49/49/1 50/50/1 51/51/1
f 49/49/1 51/51/1 52/52/1
f 53/53/1 54/54/1 55/55/1
f 53/53/1 55/55/1 56/56/1
f 57/57/1 58/58/1 59/59/1
f 57/57/1 59/59/1 60/60/1
f 61/61/1 62/62/1 63/63/1
f 61/61/1 63/63/1 64/64/1
f 65/65/1 66/66/1 67/67/1
f 68/68/1 65/65/1 67/67/1
f 69/69/1 70/70/1 71/71/1
f 69/69/1 71/71/1 72/72/1
f 73/73/2 74/74/2 75/75/2
f 73/73/2 75/75/2 76/76/2
f 77/77/1 52/52/1 62/62/1
f 77/77/1 62/62/1 61/61/1
f 78/78/1 79/79/1 80/80/1
f 78/78/1 80/80/1 81/81/1
f 82/82/1 83/83/1 70/70/1
f 82/82/1 70/70/1 69/69/1
f 62/62/1 84/84/1 85/85/1
f 62/62/1 85/85/1 63/63/1
f 85/85/1 86/86/1 87/87/1
f 85/85/1 87/87/1 54/54/1
f 88/88/1 76/76/1 78/78/1
f 88/88/1 78/78/1 58/58/1
f 89/89/1 90/90/1 88/88/1
f 89/89/1 88/88/1 57/57/1
f 83/83/1 91/91/1 92/92/1
f 83/83/1 92/92/1 70/70/1
f 92/92/1 56/56/1 68/68/1
f 92/92/1 68/68/1 93/93/1
f 75/75/1 82/82/1 69/69/1
f 75/75/1 69/69/1 79/79/1
f 94/94/1 95/95/1 96/96/1
f 94/94/1 96/96/1 97/97/1
f 91/91/1 53/53/1 56/56/1
f 91/91/1 56/56/1 92/92/1
f 93/93/1 68/68/1 67/67/1
f 64/64/2 63/63/2 53/53/2
f 64/64/2 53/53/2 91/91/2
f 98/98/1 99/99/1 100/100/1
f 98/98/1 100/100/1 101/101/1
f 101/101/1 100/100/1 83/83/1
f 101/101/1 83/83/1 82/82/1
f 99/99/1 61/61/1 64/64/1
f 99/99/1 64/64/1 100/100/1
f 102/102/2 103/103/2 99/99/2
f 102/102/2 99/99/2 98/98/2
f 104/104/2 102/102/2 98/98/2
f 97/97/1 96/96/1 74/74/1
f 97/97/1 74/74/1 73/73/1
f 80/80/1 105/105/1 81/81/1
f 57/57/1 88/88/1 58/58/1
f 96/96/1 98/98/1 101/101/1
f 96/96/1 101/101/1 74/74/1
f 76/76/1 75/75/1 79/79/1
f 76/76/1 79/79/1 78/78/1
f 90/90/1 89/89/1 106/106/1
f 107/107/1 108/108/1 106/106/1
f 107/107/1 106/106/1 89/89/1
f 106/106/1 97/97/1 73/73/1
f 106/106/1 73/73/1 90/90/1
f 81/81/1 105/105/1 60/60/1
f 59/59/1 81/81/1 60/60/1
f 107/107/1 109/109/1 94/94/1
f 107/107/1 94/94/1 108/108/1
f 72/72/1 71/71/1 110/110/1
f 72/72/2 110/110/2 105/105/2
f 80/80/2 72/72/2 105/105/2
f 77/77/1 49/49/1 52/52/1
f 55/55/1 87/87/1 66/66/1
f 55/55/1 66/66/1 65/65/1
f 93/93/2 67/67/2 110/110/2
f 71/71/2 93/93/2 110/110/2
f 55/55/1 54/54/1 87/87/1
f 85/85/1 84/84/1 86/86/1
f 51/51/1 50/50/1 86/86/1
f 51/51/1 86/86/1 84/84/1
f 102/102/1 49/49/1 77/77/1
f 102/102/1 77/77/1 103/103/1
f 109/109/1 95/95/1 94/94/1
f 109/109/1 102/102/1 104/104/1
f 109/109/1 104/104/1 95/95/1
f 52/52/3 51/51/3 26/26/3
f 52/52/3 26/26/3 25/25/3
f 38/38/4 55/55/4 65/65/4
f 38/38/4 65/65/4 39/39/4
f 3/3/5 81/81/5 59/59/5
f 4/4/5 3/3/5 59/59/5
f 108/108/6 5/5/6 8/8/6
f 108/108/6 8/8/6 106/106/6
f 26/26/7 51/51/7 84/84/7
f 26/26/7 84/84/7 27/27/7
f 14/14/4 85/85/4 54/54/4
f 14/14/4 54/54/4 15/15/4
f 58/58/6 1/1/6 4/4/6
f 58/58/6 4/4/6 59/59/6
f 90/90/8 9/9/8 12/12/8
f 90/90/8 12/12/8 88/88/8
f 108/108/9 94/94/9 6/6/9
f 108/108/9 6/6/9 5/5/9
f 95/95/10 104/104/10 34/34/10
f 95/95/10 34/34/10 33/33/10
f 103/103/11 77/77/11 30/30/11
f 103/103/11 30/30/11 29/29/11
f 39/39/12 65/65/12 68/68/12
f 40/40/12 39/39/12 68/68/12
f 43/43/13 93/93/13 71/71/13
f 44/44/13 43/43/13 71/71/13
f 47/47/14 72/72/14 80/80/14
f 48/48/14 47/47/14 80/80/14
f 90/90/15 73/73/15 10/10/15
f 90/90/15 10/10/15 9/9/15
f 11/11/16 76/76/16 88/88/16
f 12/12/16 11/11/16 88/88/16
f 27/27/17 84/84/17 62/62/17
f 28/28/17 27/27/17 62/62/17
f 100/100/18 64/64/18 18/18/18
f 100/100/18 18/18/18 17/17/18
f 35/35/17 98/98/17 96/96/17
f 36/36/17 35/35/17 96/96/17
f 56/56/19 55/55/19 38/38/19
f 56/56/19 38/38/19 37/37/19
f 19/19/20 91/91/20 83/83/20
f 20/20/20 19/19/20 83/83/20
f 79/79/19 69/69/19 46/46/19
f 79/79/19 46/46/19 45/45/19
f 18/18/21 64/64/21 91/91/21
f 18/18/21 91/91/21 19/19/21
f 100/100/8 17/17/8 20/20/8
f 100/100/8 20/20/8 83/83/8
f 10/10/21 73/73/21 76/76/21
f 10/10/21 76/76/21 11/11/21
f 52/52/22 25/25/22 28/28/22
f 52/52/22 28/28/22 62/62/22
f 34/34/23 104/104/23 98/98/23
f 34/34/23 98/98/23 35/35/23
f 95/95/6 33/33/6 36/36/6
f 95/95/6 36/36/6 96/96/6
f 56/56/24 37/37/24 40/40/24
f 56/56/24 40/40/24 68/68/24
f 46/46/23 69/69/23 72/72/23
f 46/46/23 72/72/23 47/47/23
f 79/79/6 45/45/6 48/48/6
f 79/79/6 48/48/6 80/80/6
f 7/7/16 97/97/16 106/106/16
f 8/8/16 7/7/16 106/106/16
f 58/58/15 78/78/15 2/2/15
f 58/58/15 2/2/15 1/1/15
f 63/63/19 85/85/19 14/14/19
f 63/63/19 14/14/19 13/13/19
f 31/31/20 61/61/20 99/99/20
f 32/32/20 31/31/20 99/99/20
f 74/74/19 101/101/19 22/22/19
f 74/74/19 22/22/19 21/21/19
f 15/15/17 54/54/17 53/53/17
f 16/16/17 15/15/17 53/53/17
f 70/70/18 92/92/18 42/42/18
f 70/70/18 42/42/18 41/41/18
f 23/23/17 82/82/17 75/75/17
f 24/24/17 23/23/17 75/75/17
f 63/63/22 13/13/22 16/16/22
f 63/63/22 16/16/22 53/53/22
f 22/22/21 101/101/21 82/82/21
f 22/22/21 82/82/21 23/23/21
f 74/74/8 21/21/8 24/24/8
f 74/74/8 24/24/8 75/75/8
f 30/30/23 77/77/23 61/61/23
f 30/30/23 61/61/23 31/31/23
f 103/103/6 29/29/6 32/32/6
f 103/103/6 32/32/6 99/99/6
f 6/6/23 94/94/23 97/97/23
f 6/6/23 97/97/23 7/7/23
f 42/42/23 92/92/23 93/93/23
f 42/42/23 93/93/23 43/43/23
f 70/70/6 41/41/6 44/44/6
f 70/70/6 44/44/6 71/71/6
f 2/2/23 78/78/23 81/81/23
f 2/2/23 81/81/23 3/3/23
# Vertices: 110, normals: 24, texture coordinates: 110, faces: 204

