# Blender 5.0.0
# www.blender.org
mtllib obamium.mtl
o Cone
v 1.396214 0.000000 1.396214
v 1.405076 0.015508 1.384888
v 1.384888 0.015508 1.405076
v 1.403742 0.002344 1.392556
v 1.392556 0.002344 1.403742
v 1.401358 0.004254 1.401358
v 1.400684 0.017908 1.393354
v 1.406878 0.007832 1.388546
v 1.403856 0.008942 1.398144
v 1.388548 0.007832 1.406878
v 1.393354 0.017908 1.400684
v 1.398144 0.008942 1.403856
v -1.396214 0.000000 1.396214
v -1.384888 0.015508 1.405076
v -1.405076 0.015508 1.384888
v -1.392556 0.002344 1.403742
v -1.403742 0.002344 1.392556
v -1.401358 0.004254 1.401358
v -1.393354 0.017908 1.400684
v -1.388546 0.007832 1.406878
v -1.398144 0.008942 1.403856
v -1.406878 0.007832 1.388548
v -1.400684 0.017908 1.393354
v -1.403856 0.008942 1.398146
v -1.396214 -0.000000 -1.396214
v -1.405076 0.015508 -1.384888
v -1.384888 0.015508 -1.405076
v -1.403742 0.002344 -1.392556
v -1.392556 0.002344 -1.403742
v -1.401358 0.004254 -1.401358
v -1.400684 0.017908 -1.393354
v -1.406878 0.007832 -1.388546
v -1.403856 0.008942 -1.398144
v -1.388548 0.007832 -1.406878
v -1.393354 0.017908 -1.400684
v -1.398144 0.008942 -1.403856
v 1.396214 -0.000000 -1.396214
v 1.384888 0.015508 -1.405076
v 1.405076 0.015508 -1.384888
v 1.392556 0.002344 -1.403742
v 1.403742 0.002344 -1.392556
v 1.401358 0.004254 -1.401358
v 1.393354 0.017908 -1.400684
v 1.388546 0.007832 -1.406878
v 1.398144 0.008942 -1.403856
v 1.406878 0.007832 -1.388548
v 1.400684 0.017908 -1.393354
v 1.403856 0.008942 -1.398146
v 0.020186 2.365742 -0.000000
v 0.000000 2.365742 -0.020186
v -0.020186 2.365742 -0.000000
v 0.000000 2.365742 0.020186
v 0.015796 2.368142 -0.008466
v 0.015796 2.368144 0.008466
v 0.008056 2.375086 -0.000000
v -0.008466 2.368142 -0.015796
v 0.008466 2.368144 -0.015796
v 0.000000 2.375086 -0.008056
v -0.015796 2.368142 0.008466
v -0.015796 2.368142 -0.008466
v -0.008056 2.375086 -0.000000
v 0.008466 2.368142 0.015796
v -0.008466 2.368144 0.015796
v 0.000000 2.375086 0.008056
vn 0.1942 -0.9616 0.1942
vn 0.6812 -0.7089 0.1831
vn 0.6298 -0.4546 0.6298
vn 0.1830 -0.7089 0.6812
vn 0.9870 -0.0629 0.1480
vn 0.8587 0.1684 0.4840
vn 0.8971 0.4221 0.1303
vn 0.7180 0.5550 0.4201
vn 0.4201 0.5550 0.7180
vn 0.4840 0.1684 0.8587
vn 0.1303 0.4221 0.8971
vn 0.1480 -0.0629 0.9870
vn -0.1942 -0.9616 0.1942
vn -0.1830 -0.7089 0.6812
vn -0.6298 -0.4546 0.6298
vn -0.6811 -0.7089 0.1830
vn -0.1480 -0.0629 0.9870
vn -0.4840 0.1684 0.8587
vn -0.1303 0.4221 0.8971
vn -0.4201 0.5550 0.7180
vn -0.7180 0.5550 0.4201
vn -0.8587 0.1684 0.4841
vn -0.8971 0.4221 0.1303
vn -0.9870 -0.0629 0.1480
vn -0.1942 -0.9616 -0.1942
vn -0.6812 -0.7089 -0.1831
vn -0.6298 -0.4546 -0.6298
vn -0.1830 -0.7089 -0.6812
vn -0.9870 -0.0629 -0.1480
vn -0.8587 0.1684 -0.4840
vn -0.8971 0.4221 -0.1303
vn -0.7180 0.5550 -0.4201
vn -0.4201 0.5550 -0.7180
vn -0.4840 0.1684 -0.8587
vn -0.1303 0.4221 -0.8971
vn -0.1480 -0.0629 -0.9870
vn 0.1942 -0.9616 -0.1942
vn 0.1830 -0.7089 -0.6812
vn 0.6298 -0.4546 -0.6298
vn 0.6811 -0.7089 -0.1830
vn 0.1480 -0.0629 -0.9870
vn 0.4840 0.1684 -0.8587
vn 0.1303 0.4221 -0.8971
vn 0.4201 0.5550 -0.7180
vn 0.7180 0.5550 -0.4201
vn 0.8587 0.1684 -0.4841
vn 0.8971 0.4221 -0.1303
vn 0.9870 -0.0629 -0.1480
vn 0.7491 0.6624 -0.0000
vn 0.5923 0.7460 -0.3045
vn 0.3479 0.9375 -0.0000
vn 0.5922 0.7460 0.3045
vn 0.3045 0.7460 -0.5922
vn -0.0000 0.9376 -0.3478
vn -0.0000 0.6624 -0.7491
vn -0.3046 0.7460 -0.5922
vn -0.5923 0.7460 -0.3046
vn -0.3479 0.9375 -0.0000
vn -0.7491 0.6625 -0.0000
vn -0.5923 0.7460 0.3045
vn -0.3045 0.7460 0.5922
vn -0.0000 0.9376 0.3478
vn -0.0000 0.6624 0.7491
vn 0.3046 0.7460 0.5923
vt 0.688117 0.391478
vt 0.689755 0.391025
vt 0.689236 0.392115
vt 0.687321 0.392410
vt 0.692033 0.390529
vt 0.692032 0.391717
vt 0.685506 0.997727
vt 0.687346 0.997258
vt 0.688388 0.999683
vt 0.686301 0.999684
vt 0.691077 0.996204
vt 0.694247 0.997928
vt 0.692710 0.995533
vt 0.695292 0.996902
vt 0.686448 0.393706
vt 0.688536 0.393706
vt 0.080832 0.391382
vt 0.081627 0.392313
vt 0.079713 0.392018
vt 0.079195 0.390929
vt 0.082498 0.393609
vt 0.080411 0.393608
vt 0.994201 0.699557
vt 0.994411 0.698419
vt 0.998624 0.699120
vt 0.997579 0.700145
vt 0.994105 0.695696
vt 0.998323 0.694996
vt 0.993896 0.694558
vt 0.997279 0.693971
vt 0.076917 0.390433
vt 0.076917 0.391620
vt 0.080976 0.046015
vt 0.079338 0.046468
vt 0.079857 0.045379
vt 0.081772 0.045083
vt 0.077060 0.046964
vt 0.077061 0.045777
vt 0.692409 0.398610
vt 0.690775 0.397939
vt 0.693950 0.396216
vt 0.694995 0.397242
vt 0.687741 0.396153
vt 0.688783 0.393732
vt 0.685902 0.395687
vt 0.686698 0.393732
vt 0.082645 0.043787
vt 0.080557 0.043788
vt 0.688427 0.045764
vt 0.687632 0.044833
vt 0.689546 0.045127
vt 0.690064 0.046216
vt 0.686761 0.043537
vt 0.688849 0.043536
vt 0.084214 0.395827
vt 0.082375 0.396294
vt 0.081336 0.393873
vt 0.083421 0.393873
vt 0.080727 0.396712
vt 0.077845 0.394760
vt 0.083434 0.997956
vt 0.082640 0.999914
vt 0.080554 0.999915
vt 0.079945 0.997071
vt 0.692341 0.046712
vt 0.692342 0.045524
vt 0.384363 0.701103
vt 0.380874 0.700218
vt 0.382120 0.698989
vt 0.386203 0.700635
vt 0.381352 0.692823
vt 0.383000 0.692405
vt 0.384839 0.693480
vt 0.382597 0.694049
vt 0.384840 0.691938
vt 0.386678 0.692404
vt 0.389240 0.694088
vt 0.387554 0.694728
vt 0.390874 0.694760
vt 0.391083 0.695898
vt 0.388519 0.695531
vt 0.392042 0.698065
vt 0.389480 0.698431
vt 0.391832 0.699203
vt 0.390199 0.699874
vt 0.384838 0.694368
s 1
usemtl Material.001
f 1/1/1 4/2/2 6/3/3 5/4/4
f 4/2/2 8/5/5 9/6/6 6/3/3
f 2/7/7 7/8/8 9/9/6 8/10/5
f 7/8/8 11/11/9 12/12/10 9/9/6
f 3/13/11 10/14/12 12/12/10 11/11/9
f 10/15/12 5/4/4 6/3/3 12/16/10
f 6/3/3 9/6/6 12/16/10
f 13/17/13 16/18/14 18/19/15 17/20/16
f 16/18/14 20/21/17 21/22/18 18/19/15
f 14/23/19 19/24/20 21/25/18 20/26/17
f 19/24/20 23/27/21 24/28/22 21/25/18
f 15/29/23 22/30/24 24/28/22 23/27/21
f 22/31/24 17/20/16 18/19/15 24/32/22
f 18/19/15 21/22/18 24/32/22
f 25/33/25 28/34/26 30/35/27 29/36/28
f 28/34/26 32/37/29 33/38/30 30/35/27
f 26/39/31 31/40/32 33/41/30 32/42/29
f 31/40/32 35/43/33 36/44/34 33/41/30
f 27/45/35 34/46/36 36/44/34 35/43/33
f 34/47/36 29/36/28 30/35/27 36/48/34
f 30/35/27 33/38/30 36/48/34
f 37/49/37 40/50/38 42/51/39 41/52/40
f 40/50/38 44/53/41 45/54/42 42/51/39
f 38/55/43 43/56/44 45/57/42 44/58/41
f 43/56/44 47/59/45 48/60/46 45/57/42
f 39/61/47 46/62/48 48/63/46 47/64/45
f 46/65/48 41/52/40 42/51/39 48/66/46
f 42/51/39 45/54/42 48/66/46
f 49/67/49 53/68/50 55/69/51 54/70/52
f 53/71/50 57/72/53 58/73/54 55/74/51
f 50/75/55 56/76/56 58/73/54 57/72/53
f 56/76/56 60/77/57 61/78/58 58/73/54
f 51/79/59 59/80/60 61/81/58 60/77/57
f 59/80/60 63/82/61 64/83/62 61/81/58
f 52/84/63 62/85/64 64/83/62 63/82/61
f 62/85/64 54/70/52 55/69/51 64/83/62
f 55/74/51 58/73/54 61/78/58 64/86/62
f 3/13/11 14/23/19 20/26/17 10/14/12
f 10/15/12 20/21/17 16/18/14 5/4/4
f 5/4/4 16/18/14 13/17/13 1/1/1
f 2/7/7 49/67/49 54/70/52 7/8/8
f 7/8/8 54/70/52 62/85/64 11/11/9
f 11/11/9 62/85/64 52/84/63 3/13/11
f 51/79/59 15/29/23 23/27/21 59/80/60
f 59/80/60 23/27/21 19/24/20 63/82/61
f 63/82/61 19/24/20 14/23/19 52/84/63
f 15/29/23 26/39/31 32/42/29 22/30/24
f 22/31/24 32/37/29 28/34/26 17/20/16
f 17/20/16 28/34/26 25/33/25 13/17/13
f 50/75/55 27/45/35 35/43/33 56/76/56
f 56/76/56 35/43/33 31/40/32 60/77/57
f 60/77/57 31/40/32 26/39/31 51/79/59
f 27/45/35 38/55/43 44/58/41 34/46/36
f 34/47/36 44/53/41 40/50/38 29/36/28
f 29/36/28 40/50/38 37/49/37 25/33/25
f 49/67/49 39/61/47 47/64/45 53/68/50
f 53/71/50 47/59/45 43/56/44 57/72/53
f 57/72/53 43/56/44 38/55/43 50/75/55
f 39/61/47 2/7/7 8/10/5 46/62/48
f 46/65/48 8/5/5 4/2/2 41/52/40
f 41/52/40 4/2/2 1/1/1 37/49/37
f 1/1/1 13/17/13 25/33/25 37/49/37
f 3/13/11 52/84/63 14/23/19
f 39/61/47 49/67/49 2/7/7
f 15/29/23 51/79/59 26/39/31
f 27/45/35 50/75/55 38/55/43
