# File generated by ImageToStl.com - Free Image and 3D model conversion tools

mtllib Park Bench (1).mtl

o obj1
v 0.68135577 -0.61484462 -0.55092877
v 0.6786809 -0.61240637 -0.50105989
v 0.5426327 -0.6118468 -0.52082533
v 0.28481969 0.2408662 -0.60863549
v 0.43542421 0.2240037 -0.59303367
v 0.43902451 0.2146505 -0.64430529
v 0.5426327 -0.6118468 -0.52082533
v 0.28715411 0.23808689 -0.64713389
v 0.53776097 -0.61048418 -0.55525953
v 0.43542421 0.2240037 -0.59303367
v 0.6786809 -0.61240637 -0.50105989
v 0.68135577 -0.61484462 -0.55092877
v 0.28715411 0.23808689 -0.64713389
v 0.43902451 0.2146505 -0.64430529
v 0.68135577 -0.61484462 -0.55092877
v 0.6786809 -0.61240637 -0.50105989
v 0.43542421 0.2240037 -0.59303367
v 0.5426327 -0.6118468 -0.52082533
v 0.5426327 -0.6118468 -0.52082533
v 0.53776097 -0.61048418 -0.55525953
v 0.68135577 -0.61484462 -0.55092877
v 0.68135577 -0.61484462 -0.55092877
v 0.53776097 -0.61048418 -0.55525953
v 0.28715411 0.23808689 -0.64713389
v 0.43902451 0.2146505 -0.64430529
v 0.28715411 0.23808689 -0.64713389
v 0.28481969 0.2408662 -0.60863549
v 0.43542421 0.2240037 -0.59303367
v 0.28481969 0.2408662 -0.60863549
v 0.5426327 -0.6118468 -0.52082533
v 0.5426327 -0.6118468 -0.52082533
v 0.28481969 0.2408662 -0.60863549
v 0.28715411 0.23808689 -0.64713389
v 0.68135577 -0.61484462 -0.55092877
v 0.43902451 0.2146505 -0.64430529
v 0.43542421 0.2240037 -0.59303367
vn -0.01112 -0.99877 0.04824
vn 0.12697 0.97734 -0.16937
vn -0.95517 -0.26861 0.12451
vn 0.95842 0.28287 0.03758
vn 0.0013 -0.11149 -0.99376
vn -0.14318 0.06694 0.98743
vn -0.02927 -0.99894 -0.03539
vn 0.02697 -0.09973 -0.99465
vn 0.15335 0.98623 -0.0619
vn -0.0946 0.07363 0.99279
vn -0.9555 -0.29268 -0.03681
vn 0.95927 0.28204 0.01591
vt -0.01877 0.07298
vt -0.01412 0.07114
vt -0.02031 0.05886
vt 0.02279 0.01296
vt 0.01737 0.0272
vt 0.02227 0.029
vt -0.00156 0.04658
vt -0.05648 0.11744
vt 0.00066 0.04926
vt 0.08169 0.09644
vt 0.00765 0.04965
vt 0.00516 0.05399
vt -0.11088 0.08717
vt -0.10162 0.09943
vt -0.01661 0.0813
vt 0.01679 0.0755
vt 0.10224 0.09476
vt 0.02362 0.06357
vt -0.02205 0.06031
vt -0.02544 0.06108
vt -0.01992 0.07435
vt -0.01664 0.08021
vt -0.02386 0.06778
vt -0.11091 0.08613
vt 0.03552 0.03235
vt 0.04083 0.01792
vt 0.03727 0.0164
vt 0.10217 0.09597
vt 0.11097 0.08354
vt 0.02333 0.06534
vt -0.0111 0.05216
vt -0.08814 0.09775
vt -0.08621 0.1011
vt 0.00451 0.05273
vt 0.07658 0.10131
vt 0.07986 0.09724
usemtl mat0
f 1/1/1 2/2/1 3/3/1
f 4/4/2 5/5/2 6/6/2
f 7/7/3 8/8/3 9/9/3
f 10/10/4 11/11/4 12/12/4
f 13/13/5 14/14/5 15/15/5
f 16/16/6 17/17/6 18/18/6
f 19/19/7 20/20/7 21/21/7
f 22/22/8 23/23/8 24/24/8
f 25/25/9 26/26/9 27/27/9
f 28/28/10 29/29/10 30/30/10
f 31/31/11 32/32/11 33/33/11
f 34/34/12 35/35/12 36/36/12
# Vertices: 36, normals: 12, texture coordinates: 36, faces: 12

o obj2
v 0.69223958 -0.61492032 0.60273361
v 0.69185829 -0.61806482 0.65263319
v 0.55521828 -0.62418222 0.63877058
v 0.2429321 0.2145333 0.65696663
v 0.39485639 0.2058703 0.66427678
v 0.3965053 0.2023665 0.61217862
v 0.55521828 -0.62418222 0.63877058
v 0.24354871 0.2160885 0.61833382
v 0.54860079 -0.6194241 0.60493451
v 0.39485639 0.2058703 0.66427678
v 0.69185829 -0.61806482 0.65263319
v 0.69223958 -0.61492032 0.60273361
v 0.24354871 0.2160885 0.61833382
v 0.3965053 0.2023665 0.61217862
v 0.69223958 -0.61492032 0.60273361
v 0.69185829 -0.61806482 0.65263319
v 0.39485639 0.2058703 0.66427678
v 0.55521828 -0.62418222 0.63877058
v 0.55521828 -0.62418222 0.63877058
v 0.54860079 -0.6194241 0.60493451
v 0.69223958 -0.61492032 0.60273361
v 0.69223958 -0.61492032 0.60273361
v 0.54860079 -0.6194241 0.60493451
v 0.24354871 0.2160885 0.61833382
v 0.3965053 0.2023665 0.61217862
v 0.24354871 0.2160885 0.61833382
v 0.2429321 0.2145333 0.65696663
v 0.39485639 0.2058703 0.66427678
v 0.2429321 0.2145333 0.65696663
v 0.55521828 -0.62418222 0.63877058
v 0.55521828 -0.62418222 0.63877058
v 0.2429321 0.2145333 0.65696663
v 0.24354871 0.2160885 0.61833382
v 0.69223958 -0.61492032 0.60273361
v 0.3965053 0.2023665 0.61217862
v 0.39485639 0.2058703 0.66427678
vn 0.05096 -0.99675 -0.06242
vn 0.05993 0.99608 -0.06509
vn -0.9302 -0.34177 0.13386
vn 0.94049 0.33861 0.02853
vn -0.04049 -0.0031 -0.99918
vn -0.09861 -0.04959 0.99389
vn 0.02879 -0.98905 -0.14472
vn -0.01564 0.01032 -0.99982
vn 0.09093 0.99499 0.04151
vn -0.05032 -0.04039 0.99792
vn -0.93696 -0.34824 -0.02897
vn 0.94034 0.34018 0.00688
vt 0.0883 0.03874
vt 0.09297 0.03693
vt 0.08686 0.02462
vt -0.08534 -0.01552
vt -0.09081 -0.00131
vt -0.08591 0.00051
vt -0.06647 -0.05743
vt -0.14203 -0.0092
vt -0.06527 -0.05416
vt 0.1295 -0.0363
vt 0.04617 -0.0633
vt 0.04484 -0.05848
vt -0.11027 0.07351
vt -0.10226 0.08662
vt -0.01588 0.07694
vt 0.01417 0.08761
vt 0.10114 0.09795
vt 0.01973 0.07503
vt 0.08311 0.02239
vt 0.0797 0.0231
vt 0.08501 0.03646
vt -0.01598 0.07901
vt -0.02193 0.06593
vt -0.11037 0.07555
vt -0.07122 -0.00344
vt -0.06608 -0.01792
vt -0.06965 -0.0194
vt 0.10259 0.09408
vt 0.11009 0.08082
vt 0.02105 0.07162
vt -0.04738 -0.06252
vt -0.13342 -0.03783
vt -0.1324 -0.0341
vt 0.04621 -0.05942
vt 0.1284 -0.03114
vt 0.13051 -0.03591
usemtl mat0
f 37/37/13 38/38/13 39/39/13
f 40/40/14 41/41/14 42/42/14
f 43/43/15 44/44/15 45/45/15
f 46/46/16 47/47/16 48/48/16
f 49/49/17 50/50/17 51/51/17
f 52/52/18 53/53/18 54/54/18
f 55/55/19 56/56/19 57/57/19
f 58/58/20 59/59/20 60/60/20
f 61/61/21 62/62/21 63/63/21
f 64/64/22 65/65/22 66/66/22
f 67/67/23 68/68/23 69/69/23
f 70/70/24 71/71/24 72/72/24
# Vertices: 36, normals: 12, texture coordinates: 36, faces: 12

o obj3
v 0.38400429 0.25461519 -0.69107741
v 0.2892698 0.2020845 0.69466013
v 0.293199 0.2411873 0.69529623
v 0.38007519 0.21551239 -0.69171339
v 0.40241161 0.23009899 0.70234209
v 0.3984825 0.1909962 0.70170599
v 0.48928791 0.2044239 -0.68466753
v 0.49321699 0.2435268 -0.68403149
v 0.3984825 0.1909962 0.70170599
v 0.2892698 0.2020845 0.69466013
v 0.38007519 0.21551239 -0.69171339
v 0.48928791 0.2044239 -0.68466753
v 0.49321699 0.2435268 -0.68403149
v 0.293199 0.2411873 0.69529623
v 0.40241161 0.23009899 0.70234209
v 0.38400429 0.25461519 -0.69107741
v 0.293199 0.2411873 0.69529623
v 0.2892698 0.2020845 0.69466013
v 0.3984825 0.1909962 0.70170599
v 0.40241161 0.23009899 0.70234209
v 0.49321699 0.2435268 -0.68403149
v 0.38007519 0.21551239 -0.69171339
v 0.38400429 0.25461519 -0.69107741
v 0.48928791 0.2044239 -0.68466753
vn -0.99284 0.1008 -0.06405
vn 0.99284 -0.1008 0.06405
vn -0.09996 -0.99486 -0.01618
vn 0.09996 0.99486 0.01618
vn -0.06536 -0.00966 0.99782
vn 0.06536 0.00966 -0.99782
vt -0.031 0.14691
vt -0.1414 0.06246
vt -0.1437 0.06565
vt -0.0287 0.14372
vt 0.1437 0.06565
vt 0.1414 0.06246
vt 0.0287 0.14372
vt 0.031 0.14691
vt 0.08248 -0.00794
vt 0.07786 -0.01792
vt -0.04819 0.04054
vt -0.04356 0.05052
vt 0.04356 0.05052
vt -0.07786 -0.01792
vt -0.08248 -0.00794
vt 0.04819 0.04054
vt 0.10653 0.08816
vt 0.10323 0.08604
vt 0.09727 0.09529
vt 0.10058 0.09741
vt -0.10058 0.09741
vt -0.10323 0.08604
vt -0.10653 0.08816
vt -0.09727 0.09529
usemtl mat0
f 73/73/25 74/74/25 75/75/25
f 74/74/25 73/73/25 76/76/25
f 77/77/26 78/78/26 79/79/26
f 79/79/26 80/80/26 77/77/26
f 81/81/27 82/82/27 83/83/27
f 83/83/27 84/84/27 81/81/27
f 85/85/28 86/86/28 87/87/28
f 86/86/28 85/85/28 88/88/28
f 89/89/29 90/90/29 91/91/29
f 91/91/29 92/92/29 89/89/29
f 93/93/30 94/94/30 95/95/30
f 94/94/30 93/93/30 96/96/30
# Vertices: 24, normals: 6, texture coordinates: 24, faces: 12

o obj4
v 0.2478603 0.25823331 -0.70090032
v 0.1583581 0.21111061 0.68537909
v 0.1598843 0.2503846 0.68569821
v 0.246334 0.2189593 -0.70121938
v 0.26958051 0.2460653 0.69263369
v 0.26805419 0.2067913 0.69231462
v 0.35603011 0.21464001 -0.69428402
v 0.3575564 0.253914 -0.69396478
v 0.26805419 0.2067913 0.69231462
v 0.1583581 0.21111061 0.68537909
v 0.246334 0.2189593 -0.70121938
v 0.35603011 0.21464001 -0.69428402
v 0.3575564 0.253914 -0.69396478
v 0.1598843 0.2503846 0.68569821
v 0.26958051 0.2460653 0.69263369
v 0.2478603 0.25823331 -0.70090032
v 0.1598843 0.2503846 0.68569821
v 0.1583581 0.21111061 0.68537909
v 0.26805419 0.2067913 0.69231462
v 0.26958051 0.2460653 0.69263369
v 0.3575564 0.253914 -0.69396478
v 0.246334 0.2189593 -0.70121938
v 0.2478603 0.25823331 -0.70090032
v 0.35603011 0.21464001 -0.69428402
vn -0.99724 0.03927 -0.06305
vn 0.99724 -0.03927 0.06305
vn -0.03883 -0.99921 -0.00812
vn 0.03883 0.99921 0.00812
vn -0.06332 -0.00565 0.99798
vn 0.06332 0.00565 -0.99798
vt -0.03697 0.14418
vt -0.14361 0.05503
vt -0.14604 0.05811
vt -0.03453 0.14109
vt 0.14604 0.05811
vt 0.14361 0.05503
vt 0.03453 0.14109
vt 0.03697 0.14418
vt 0.08099 -0.01134
vt 0.07654 -0.0214
vt -0.05052 0.03482
vt -0.04607 0.04488
vt 0.04607 0.04488
vt -0.07654 -0.0214
vt -0.08099 -0.01134
vt 0.05052 0.03482
vt 0.11312 0.0765
vt 0.1097 0.07458
vt 0.10432 0.08417
vt 0.10774 0.08609
vt -0.10774 0.08609
vt -0.1097 0.07458
vt -0.11312 0.0765
vt -0.10432 0.08417
usemtl mat0
f 97/97/31 98/98/31 99/99/31
f 98/98/31 97/97/31 100/100/31
f 101/101/32 102/102/32 103/103/32
f 103/103/32 104/104/32 101/101/32
f 105/105/33 106/106/33 107/107/33
f 107/107/33 108/108/33 105/105/33
f 109/109/34 110/110/34 111/111/34
f 110/110/34 109/109/34 112/112/34
f 113/113/35 114/114/35 115/115/35
f 115/115/35 116/116/35 113/113/35
f 117/117/36 118/118/36 119/119/36
f 118/118/36 117/117/36 120/120/36
# Vertices: 24, normals: 6, texture coordinates: 24, faces: 12

o obj5
v -0.02399717 0.25706729 -0.7117855
v -0.1060261 0.2228296 0.6753341
v -0.1073093 0.26211289 0.6751141
v -0.0227139 0.217784 -0.71156549
v 0.00243399 0.26573479 0.68169332
v 0.00371727 0.2264515 0.68191332
v 0.08702941 0.221406 -0.70498627
v 0.08574612 0.26068929 -0.70520627
v 0.00371727 0.2264515 0.68191332
v -0.1060261 0.2228296 0.6753341
v -0.0227139 0.217784 -0.71156549
v 0.08702941 0.221406 -0.70498627
v 0.08574612 0.26068929 -0.70520627
v -0.1073093 0.26211289 0.6751141
v 0.00243399 0.26573479 0.68169332
v -0.02399717 0.25706729 -0.7117855
v -0.1073093 0.26211289 0.6751141
v -0.1060261 0.2228296 0.6753341
v 0.00371727 0.2264515 0.68191332
v 0.00243399 0.26573479 0.68169332
v 0.08574612 0.26068929 -0.70520627
v -0.0227139 0.217784 -0.71156549
v -0.02399717 0.25706729 -0.7117855
v 0.08702941 0.221406 -0.70498627
vn -0.99767 -0.03293 -0.05981
vn 0.99767 0.03293 0.05981
vn 0.03265 -0.99945 0.0056
vn -0.03265 0.99945 -0.0056
vn -0.05996 0.00363 0.99819
vn 0.05996 -0.00363 -0.99819
vt -0.04645 0.14077
vt -0.14795 0.0458
vt -0.15055 0.04875
vt -0.04385 0.13782
vt 0.15055 0.04875
vt 0.14795 0.0458
vt 0.04385 0.13782
vt 0.04645 0.14077
vt 0.0763 -0.02622
vt 0.07206 -0.03637
vt -0.05615 0.01718
vt -0.05191 0.02733
vt 0.05191 0.02733
vt -0.07206 -0.03637
vt -0.0763 -0.02622
vt 0.05614 0.01718
vt 0.12565 0.05297
vt 0.12209 0.05129
vt 0.11739 0.06123
vt 0.12095 0.06291
vt -0.12095 0.06291
vt -0.12209 0.05129
vt -0.12565 0.05297
vt -0.11739 0.06123
usemtl mat0
f 121/121/37 122/122/37 123/123/37
f 122/122/37 121/121/37 124/124/37
f 125/125/38 126/126/38 127/127/38
f 127/127/38 128/128/38 125/125/38
f 129/129/39 130/130/39 131/131/39
f 131/131/39 132/132/39 129/129/39
f 133/133/40 134/134/40 135/135/40
f 134/134/40 133/133/40 136/136/40
f 137/137/41 138/138/41 139/139/41
f 139/139/41 140/140/41 137/137/41
f 141/141/42 142/142/42 143/143/42
f 142/142/42 141/141/42 144/144/42
# Vertices: 24, normals: 6, texture coordinates: 24, faces: 12

o obj6
v 0.1120843 0.2633172 -0.7024287
v 0.02522147 0.2233049 0.68424249
v 0.026348 0.26259351 0.68433273
v 0.1109578 0.2240286 -0.70251882
v 0.13609309 0.25943121 0.69111598
v 0.1349666 0.2201426 0.69102591
v 0.2207029 0.2208664 -0.69573551
v 0.2218294 0.26015511 -0.69564539
v 0.1349666 0.2201426 0.69102591
v 0.02522147 0.2233049 0.68424249
v 0.1109578 0.2240286 -0.70251882
v 0.2207029 0.2208664 -0.69573551
v 0.2218294 0.26015511 -0.69564539
v 0.026348 0.26259351 0.68433273
v 0.13609309 0.25943121 0.69111598
v 0.1120843 0.2633172 -0.7024287
v 0.026348 0.26259351 0.68433273
v 0.02522147 0.2233049 0.68424249
v 0.1349666 0.2201426 0.69102591
v 0.13609309 0.25943121 0.69111598
v 0.2218294 0.26015511 -0.69564539
v 0.1109578 0.2240286 -0.70251882
v 0.1120843 0.2633172 -0.7024287
v 0.2207029 0.2208664 -0.69573551
vn -0.99768 0.02875 -0.06167
vn 0.99768 -0.02875 0.06167
vn -0.02866 -0.99959 -0.00229
vn 0.02866 0.99959 0.00229
vn -0.06171 -0.00052 0.99809
vn 0.06171 0.00052 -0.99809
vt -0.03861 0.14345
vt -0.14503 0.05404
vt -0.14747 0.05712
vt -0.03617 0.14037
vt 0.14747 0.05712
vt 0.14503 0.05404
vt 0.03617 0.14037
vt 0.03861 0.14345
vt 0.07754 -0.02247
vt 0.07315 -0.03255
vt -0.05425 0.0229
vt -0.04986 0.03299
vt 0.04986 0.03299
vt -0.07315 -0.03255
vt -0.07754 -0.02247
vt 0.05425 0.0229
vt 0.11988 0.06505
vt 0.11643 0.06316
vt 0.11114 0.0728
vt 0.11458 0.0747
vt -0.11458 0.0747
vt -0.11643 0.06316
vt -0.11987 0.06505
vt -0.11114 0.0728
usemtl mat0
f 145/145/43 146/146/43 147/147/43
f 146/146/43 145/145/43 148/148/43
f 149/149/44 150/150/44 151/151/44
f 151/151/44 152/152/44 149/149/44
f 153/153/45 154/154/45 155/155/45
f 155/155/45 156/156/45 153/153/45
f 157/157/46 158/158/46 159/159/46
f 158/158/46 157/157/46 160/160/46
f 161/161/47 162/162/47 163/163/47
f 163/163/47 164/164/47 161/161/47
f 165/165/48 166/166/48 167/167/48
f 166/166/48 165/165/48 168/168/48
# Vertices: 24, normals: 6, texture coordinates: 24, faces: 12

o obj7
v -0.4242411 0.2443613 -0.71000779
v -0.4893634 0.20616169 0.6779049
v -0.4923926 0.2453493 0.67772818
v -0.42121199 0.2051737 -0.70983112
v -0.38285261 0.25384089 0.68310171
v -0.37982339 0.2146534 0.68327838
v -0.31167191 0.2136654 -0.70445758
v -0.31470111 0.25285289 -0.70463431
v -0.37982339 0.2146534 0.68327838
v -0.4893634 0.20616169 0.6779049
v -0.42121199 0.2051737 -0.70983112
v -0.31167191 0.2136654 -0.70445758
v -0.31470111 0.25285289 -0.70463431
v -0.4923926 0.2453493 0.67772818
v -0.38285261 0.25384089 0.68310171
v -0.4242411 0.2443613 -0.71000779
v -0.4923926 0.2453493 0.67772818
v -0.4893634 0.20616169 0.6779049
v -0.37982339 0.2146534 0.68327838
v -0.38285261 0.25384089 0.68310171
v -0.31470111 0.25285289 -0.70463431
v -0.42121199 0.2051737 -0.70983112
v -0.4242411 0.2443613 -0.71000779
v -0.31167191 0.2136654 -0.70445758
vn -0.99582 -0.0772 -0.04885
vn 0.99582 0.0772 0.04885
vn 0.07707 -0.99702 0.00449
vn -0.07707 0.99702 -0.00449
vn -0.04905 0.00071 0.9988
vn 0.04905 -0.00071 -0.9988
vt -0.05444 0.1389
vt -0.15204 0.03993
vt -0.15476 0.04276
vt -0.05172 0.13606
vt 0.15476 0.04276
vt 0.15204 0.03993
vt 0.05172 0.13606
vt 0.05444 0.1389
vt 0.06592 -0.05648
vt 0.06184 -0.0667
vt -0.06722 -0.01525
vt -0.06315 -0.00503
vt 0.06315 -0.00503
vt -0.06184 -0.0667
vt -0.06592 -0.05648
vt 0.06722 -0.01525
vt 0.14237 0.01692
vt 0.13874 0.01541
vt 0.13452 0.02557
vt 0.13815 0.02708
vt -0.13815 0.02708
vt -0.13874 0.01541
vt -0.14237 0.01692
vt -0.13452 0.02557
usemtl mat0
f 169/169/49 170/170/49 171/171/49
f 170/170/49 169/169/49 172/172/49
f 173/173/50 174/174/50 175/175/50
f 175/175/50 176/176/50 173/173/50
f 177/177/51 178/178/51 179/179/51
f 179/179/51 180/180/51 177/177/51
f 181/181/52 182/182/52 183/183/52
f 182/182/52 181/181/52 184/184/52
f 185/185/53 186/186/53 187/187/53
f 187/187/53 188/188/53 185/185/53
f 189/189/54 190/190/54 191/191/54
f 190/190/54 189/189/54 192/192/54
# Vertices: 24, normals: 6, texture coordinates: 24, faces: 12

o obj8
v -0.28847659 0.25664759 -0.70214462
v -0.35817629 0.2124643 0.68536812
v -0.35879499 0.25176421 0.68547511
v -0.28785789 0.2173477 -0.70225161
v -0.2489496 0.25347841 0.69104749
v -0.24833091 0.21417861 0.69094062
v -0.17801251 0.219062 -0.696679
v -0.17863131 0.25836179 -0.69657212
v -0.24833091 0.21417861 0.69094062
v -0.35817629 0.2124643 0.68536812
v -0.28785789 0.2173477 -0.70225161
v -0.17801251 0.219062 -0.696679
v -0.17863131 0.25836179 -0.69657212
v -0.35879499 0.25176421 0.68547511
v -0.2489496 0.25347841 0.69104749
v -0.28847659 0.25664759 -0.70214462
v -0.35879499 0.25176421 0.68547511
v -0.35817629 0.2124643 0.68536812
v -0.24833091 0.21417861 0.69094062
v -0.2489496 0.25347841 0.69104749
v -0.17863131 0.25836179 -0.69657212
v -0.28785789 0.2173477 -0.70225161
v -0.28847659 0.25664759 -0.70214462
v -0.17801251 0.219062 -0.696679
vn -0.99859 -0.01558 -0.05066
vn 0.99859 0.01558 0.05066
vn 0.01574 -0.99987 -0.00272
vn -0.01574 0.99987 0.00272
vn -0.05061 -0.00351 0.99871
vn 0.05061 0.00351 -0.99871
vt -0.04426 0.1408
vt -0.14776 0.04803
vt -0.1503 0.05103
vt -0.04172 0.1378
vt 0.1503 0.05103
vt 0.14776 0.04803
vt 0.04172 0.1378
vt 0.04426 0.1408
vt 0.06675 -0.05248
vt 0.06255 -0.06265
vt -0.06583 -0.00951
vt -0.06163 0.00065
vt 0.06163 0.00065
vt -0.06255 -0.06265
vt -0.06675 -0.05248
vt 0.06583 -0.00951
vt 0.13715 0.02925
vt 0.13362 0.02752
vt 0.12879 0.03741
vt 0.13232 0.03913
vt -0.13232 0.03913
vt -0.13362 0.02752
vt -0.13715 0.02925
vt -0.12879 0.03741
usemtl mat0
f 193/193/55 194/194/55 195/195/55
f 194/194/55 193/193/55 196/196/55
f 197/197/56 198/198/56 199/199/56
f 199/199/56 200/200/56 197/197/56
f 201/201/57 202/202/57 203/203/57
f 203/203/57 204/204/57 201/201/57
f 205/205/58 206/206/58 207/207/58
f 206/206/58 205/205/58 208/208/58
f 209/209/59 210/210/59 211/211/59
f 211/211/59 212/212/59 209/209/59
f 213/213/60 214/214/60 215/215/60
f 214/214/60 213/213/60 216/216/60
# Vertices: 24, normals: 6, texture coordinates: 24, faces: 12

o obj9
v -0.1526003 0.25759959 -0.70211488
v -0.22462501 0.2061961 0.68503028
v -0.22484121 0.2454989 0.6853618
v -0.1523841 0.2182968 -0.7024464
v -0.1149917 0.24605501 0.69108617
v -0.1147755 0.20675211 0.69075471
v -0.04253452 0.2188528 -0.69672209
v -0.04275073 0.2581557 -0.69639063
v -0.1147755 0.20675211 0.69075471
v -0.22462501 0.2061961 0.68503028
v -0.1523841 0.2182968 -0.7024464
v -0.04253452 0.2188528 -0.69672209
v -0.04275073 0.2581557 -0.69639063
v -0.22484121 0.2454989 0.6853618
v -0.1149917 0.24605501 0.69108617
v -0.1526003 0.25759959 -0.70211488
v -0.22484121 0.2454989 0.6853618
v -0.22462501 0.2061961 0.68503028
v -0.1147755 0.20675211 0.69075471
v -0.1149917 0.24605501 0.69108617
v -0.04275073 0.2581557 -0.69639063
v -0.1523841 0.2182968 -0.7024464
v -0.1526003 0.25759959 -0.70211488
v -0.04253452 0.2188528 -0.69672209
vn -0.99863 -0.00505 -0.05204
vn 0.99863 0.00505 0.05204
vn 0.0055 -0.99995 -0.00843
vn -0.0055 0.99995 0.00843
vn -0.05199 -0.00871 0.99861
vn 0.05199 0.00871 -0.99861
vt -0.0423 0.14134
vt -0.14614 0.04894
vt -0.14867 0.05195
vt -0.03977 0.13833
vt 0.14867 0.05195
vt 0.14614 0.04894
vt 0.03977 0.13833
vt 0.0423 0.14134
vt 0.06989 -0.04121
vt 0.06562 -0.05135
vt -0.06246 0.00249
vt -0.0582 0.01263
vt 0.0582 0.01263
vt -0.06562 -0.05135
vt -0.06989 -0.04121
vt 0.06246 0.00249
vt 0.13091 0.04098
vt 0.1274 0.03923
vt 0.12248 0.04906
vt 0.12599 0.05082
vt -0.12599 0.05082
vt -0.1274 0.03923
vt -0.13091 0.04098
vt -0.12247 0.04906
usemtl mat0
f 217/217/61 218/218/61 219/219/61
f 218/218/61 217/217/61 220/220/61
f 221/221/62 222/222/62 223/223/62
f 223/223/62 224/224/62 221/221/62
f 225/225/63 226/226/63 227/227/63
f 227/227/63 228/228/63 225/225/63
f 229/229/64 230/230/64 231/231/64
f 230/230/64 229/229/64 232/232/64
f 233/233/65 234/234/65 235/235/65
f 235/235/65 236/236/65 233/233/65
f 237/237/66 238/238/66 239/239/66
f 238/238/66 237/237/66 240/240/66
# Vertices: 24, normals: 6, texture coordinates: 24, faces: 12

o obj10
v -0.72606653 -0.57594812 0.63134342
v -0.71958101 -0.58107913 0.58203202
v -0.58574277 -0.58720273 0.61285281
v -0.26605779 0.2488285 0.60056013
v -0.41600239 0.24050739 0.57493031
v -0.42407581 0.2390883 0.62652522
v -0.58574277 -0.58720273 0.61285281
v -0.27140579 0.25192371 0.63873231
v -0.5832932 -0.58112788 0.6470347
v -0.41600239 0.24050739 0.57493031
v -0.71958101 -0.58107913 0.58203202
v -0.72606653 -0.57594812 0.63134342
v -0.27140579 0.25192371 0.63873231
v -0.42407581 0.2390883 0.62652522
v -0.72606653 -0.57594812 0.63134342
v -0.71958101 -0.58107913 0.58203202
v -0.41600239 0.24050739 0.57493031
v -0.58574277 -0.58720273 0.61285281
v -0.58574277 -0.58720273 0.61285281
v -0.5832932 -0.58112788 0.6470347
v -0.72606653 -0.57594812 0.63134342
v -0.72606653 -0.57594812 0.63134342
v -0.5832932 -0.58112788 0.6470347
v -0.27140579 0.25192371 0.63873231
v -0.42407581 0.2390883 0.62652522
v -0.27140579 0.25192371 0.63873231
v -0.26605779 0.2488285 0.60056013
v -0.41600239 0.24050739 0.57493031
v -0.26605779 0.2488285 0.60056013
v -0.58574277 -0.58720273 0.61285281
v -0.58574277 -0.58720273 0.61285281
v -0.26605779 0.2488285 0.60056013
v -0.27140579 0.25192371 0.63873231
v -0.72606653 -0.57594812 0.63134342
v -0.42407581 0.2390883 0.62652522
v -0.41600239 0.24050739 0.57493031
vn -0.06721 -0.99325 0.09451
vn -0.05852 0.99812 0.0183
vn 0.93649 -0.35066 -0.00479
vn -0.92677 0.34108 -0.15738
vn -0.0827 0.03653 0.9959
vn 0.21962 -0.08955 -0.97147
vn -0.05526 -0.98238 0.17855
vn -0.10731 0.05007 0.99296
vn -0.07619 0.99292 -0.09119
vn 0.17227 -0.08031 -0.98177
vn 0.92312 -0.35067 0.15776
vn -0.92926 0.34351 -0.13596
vt 0.05138 -0.10024
vt 0.04686 -0.09811
vt 0.05382 -0.08625
vt -0.0576 -0.04485
vt -0.05016 -0.05814
vt -0.05475 -0.06064
vt 0.07702 -0.00491
vt 0.11491 0.07633
vt 0.08042 -0.00567
vt -0.12654 0.05369
vt -0.08317 -0.02241
vt -0.08761 -0.02469
vt 0.12855 0.04011
vt 0.13462 0.026
vt 0.0768 -0.0389
vt -0.06842 -0.02726
vt -0.12339 0.04093
vt -0.06072 -0.01587
vt 0.06127 -0.08379
vt 0.06468 -0.08446
vt 0.05955 -0.09788
vt 0.07516 -0.0369
vt 0.06781 -0.02455
vt 0.12617 0.04259
vt -0.07215 -0.06011
vt -0.07781 -0.04582
vt -0.0743 -0.04421
vt -0.12688 0.03574
vt -0.11991 0.04929
vt -0.06333 -0.02008
vt 0.08585 -0.01971
vt 0.12933 0.05854
vt 0.13273 0.0567
vt -0.08643 -0.02267
vt -0.12854 0.05336
vt -0.12421 0.05627
usemtl mat0
f 241/241/67 242/242/67 243/243/67
f 244/244/68 245/245/68 246/246/68
f 247/247/69 248/248/69 249/249/69
f 250/250/70 251/251/70 252/252/70
f 253/253/71 254/254/71 255/255/71
f 256/256/72 257/257/72 258/258/72
f 259/259/73 260/260/73 261/261/73
f 262/262/74 263/263/74 264/264/74
f 265/265/75 266/266/75 267/267/75
f 268/268/76 269/269/76 270/270/76
f 271/271/77 272/272/77 273/273/77
f 274/274/78 275/275/78 276/276/78
# Vertices: 36, normals: 12, texture coordinates: 36, faces: 12

o obj11
v -0.67829692 -0.57850462 -0.5756942
v -0.67735058 -0.58219898 -0.62554848
v -0.54094869 -0.58942717 -0.60997993
v -0.22061791 0.2461157 -0.63351917
v -0.37251899 0.238778 -0.64255959
v -0.37482119 0.23586071 -0.59044999
v -0.54094869 -0.58942717 -0.60997993
v -0.2216801 0.2480997 -0.59491569
v -0.5346905 -0.58435988 -0.57612038
v -0.37251899 0.238778 -0.64255959
v -0.67735058 -0.58219898 -0.62554848
v -0.67829692 -0.57850462 -0.5756942
v -0.2216801 0.2480997 -0.59491569
v -0.37482119 0.23586071 -0.59044999
v -0.67829692 -0.57850462 -0.5756942
v -0.67735058 -0.58219898 -0.62554848
v -0.37251899 0.238778 -0.64255959
v -0.54094869 -0.58942717 -0.60997993
v -0.54094869 -0.58942717 -0.60997993
v -0.5346905 -0.58435988 -0.57612038
v -0.67829692 -0.57850462 -0.5756942
v -0.67829692 -0.57850462 -0.5756942
v -0.5346905 -0.58435988 -0.57612038
v -0.2216801 0.2480997 -0.59491569
v -0.37482119 0.23586071 -0.59044999
v -0.2216801 0.2480997 -0.59491569
v -0.22061791 0.2461157 -0.63351917
v -0.37251899 0.238778 -0.64255959
v -0.22061791 0.2461157 -0.63351917
v -0.54094869 -0.58942717 -0.60997993
v -0.54094869 -0.58942717 -0.60997993
v -0.22061791 0.2461157 -0.63351917
v -0.2216801 0.2480997 -0.59491569
v -0.67829692 -0.57850462 -0.5756942
v -0.37482119 0.23586071 -0.59044999
v -0.37251899 0.238778 -0.64255959
vn -0.06104 -0.99549 0.07261
vn -0.05136 0.99724 0.05356
vn 0.92848 -0.3518 -0.11896
vn -0.93687 0.34696 -0.04349
vn 0.02855 0.00747 0.99956
vn 0.10998 -0.06139 -0.99204
vn -0.03979 -0.9871 0.15508
vn 0.00383 0.02113 0.99977
vn -0.0811 0.99528 -0.05338
vn 0.06182 -0.05178 -0.99674
vn 0.93324 -0.35655 0.044
vn -0.93696 0.34876 -0.02187
vt -0.06347 -0.05841
vt -0.06819 -0.05674
vt -0.06247 -0.04424
vt 0.06189 0.00228
vt 0.06803 -0.01166
vt 0.06323 -0.01371
vt -0.04649 0.04342
vt -0.01759 0.12828
vt -0.04303 0.04304
vt -0.00395 0.12131
vt 0.03227 0.04156
vt 0.02764 0.03969
vt 0.13225 0.03775
vt 0.13797 0.02349
vt 0.0786 -0.03998
vt -0.08491 -0.04129
vt -0.14234 0.02485
vt -0.07764 -0.02962
vt -0.05565 -0.04737
vt -0.05218 -0.0477
vt -0.05595 -0.06157
vt 0.07995 -0.04017
vt 0.07294 -0.02763
vt 0.13306 0.03793
vt 0.04746 -0.01707
vt 0.04318 -0.00231
vt 0.04683 -0.00104
vt -0.14133 0.02473
vt -0.13482 0.0385
vt -0.07599 -0.02898
vt -0.03007 0.04399
vt 0.00609 0.12588
vt 0.00964 0.12436
vt 0.03008 0.03987
vt -0.00471 0.11952
vt -0.00012 0.12201
usemtl mat0
f 277/277/79 278/278/79 279/279/79
f 280/280/80 281/281/80 282/282/80
f 283/283/81 284/284/81 285/285/81
f 286/286/82 287/287/82 288/288/82
f 289/289/83 290/290/83 291/291/83
f 292/292/84 293/293/84 294/294/84
f 295/295/85 296/296/85 297/297/85
f 298/298/86 299/299/86 300/300/86
f 301/301/87 302/302/87 303/303/87
f 304/304/88 305/305/88 306/306/88
f 307/307/89 308/308/89 309/309/89
f 310/310/90 311/311/90 312/312/90
# Vertices: 36, normals: 12, texture coordinates: 36, faces: 12

o obj12
v 0.86323768 -0.2987757 -0.64175773
v 0.87071222 -0.29891989 -0.61891651
v -0.74625379 -0.31536821 -0.66045702
v 0.86639643 -0.2086089 -0.58882558
v -0.73586613 -0.2010843 -0.61520219
v -0.74807161 -0.31759739 -0.63430482
v 0.87071222 -0.29891989 -0.61891651
v 0.86639643 -0.2086089 -0.58882558
v -0.74807161 -0.31759739 -0.63430482
v 0.8691082 -0.2106947 -0.61653268
v 0.86323768 -0.2987757 -0.64175773
v -0.74027288 -0.20492341 -0.65887618
v -0.74807161 -0.31759739 -0.63430482
v -0.73586613 -0.2010843 -0.61520219
v -0.74625379 -0.31536821 -0.66045702
v 0.8691082 -0.2106947 -0.61653268
v 0.86639643 -0.2086089 -0.58882558
v 0.87071222 -0.29891989 -0.61891651
v -0.74625379 -0.31536821 -0.66045702
v -0.74027288 -0.20492341 -0.65887618
v 0.86323768 -0.2987757 -0.64175773
v -0.73586613 -0.2010843 -0.61520219
v -0.74027288 -0.20492341 -0.65887618
v -0.74625379 -0.31536821 -0.66045702
v 0.87071222 -0.29891989 -0.61891651
v 0.86323768 -0.2987757 -0.64175773
v 0.8691082 -0.2106947 -0.61653268
v 0.86639643 -0.2086089 -0.58882558
v 0.8691082 -0.2106947 -0.61653268
v -0.73586613 -0.2010843 -0.61520219
v -0.74027288 -0.20492341 -0.65887618
v -0.73586613 -0.2010843 -0.61520219
v 0.8691082 -0.2106947 -0.61653268
v -0.74807161 -0.31759739 -0.63430482
v -0.74625379 -0.31536821 -0.66045702
v 0.87071222 -0.29891989 -0.61891651
vn 0.01042 -0.9999 -0.00972
vn -0.017 -0.16003 0.98697
vn -0.00537 -0.31633 0.94863
vn 0.02628 0.2736 -0.96148
vn -0.99176 0.11361 -0.05925
vn 0.99524 0.01549 0.09624
vn 0.01148 0.01369 -0.99984
vn -0.99403 0.05246 0.09569
vn 0.95014 0.02567 -0.31076
vn 0.00591 0.9972 -0.07449
vn 0.00589 0.99609 -0.08815
vn 0.0123 -0.99638 -0.08408
vt -0.02199 0.09596
vt -0.01959 0.09589
vt -0.07827 -0.05485
vt 0.04097 0.1068
vt 0.10577 -0.03977
vt 0.09545 -0.04564
vt 0.02852 0.09793
vt 0.03762 0.10077
vt 0.08154 -0.05503
vt -0.03786 0.10122
vt -0.02953 0.09736
vt -0.09555 -0.04908
vt -0 0.08297
vt -0.00814 0.09161
vt 0.00203 0.08463
vt 0.01765 0.1035
vt 0.01983 0.10176
vt 0.01145 0.09722
vt -0.10505 -0.03663
vt -0.11468 -0.03118
vt -0.03491 0.10824
vt 0.01507 0.10207
vt 0.01921 0.10359
vt 0.0241 0.09367
vt -0.0172 0.07889
vt -0.0196 0.07905
vt -0.01649 0.08769
vt 0.01353 0.09018
vt 0.01609 0.09129
vt 0.0648 -0.06164
vt 0.06748 -0.06157
vt 0.06317 -0.06245
vt 0.01548 0.0908
vt -0.08279 -0.05136
vt -0.08516 -0.05022
vt -0.02194 0.09867
usemtl mat0
f 313/313/91 314/314/91 315/315/91
f 316/316/92 317/317/92 318/318/92
f 319/319/93 320/320/93 321/321/93
f 322/322/94 323/323/94 324/324/94
f 325/325/95 326/326/95 327/327/95
f 328/328/96 329/329/96 330/330/96
f 331/331/97 332/332/97 333/333/97
f 334/334/98 335/335/98 336/336/98
f 337/337/99 338/338/99 339/339/99
f 340/340/100 341/341/100 342/342/100
f 343/343/101 344/344/101 345/345/101
f 346/346/102 347/347/102 348/348/102
# Vertices: 36, normals: 12, texture coordinates: 36, faces: 12

o obj13
v 0.70719337 -0.27753851 0.64838612
v 0.71455419 -0.27523509 0.67114842
v -0.9022665 -0.2847122 0.62240553
v 0.7107811 -0.1821454 0.69115442
v -0.89122802 -0.1662385 0.65494561
v -0.90422982 -0.2840533 0.64863372
v 0.71455419 -0.27523509 0.67114842
v 0.7107811 -0.1821454 0.69115442
v -0.90422982 -0.2840533 0.64863372
v 0.71361297 -0.1872697 0.66385758
v 0.70719337 -0.27753851 0.64838612
v -0.89544928 -0.17480271 0.61192912
v -0.90422982 -0.2840533 0.64863372
v -0.89122802 -0.1662385 0.65494561
v -0.9022665 -0.2847122 0.62240553
v 0.71361297 -0.1872697 0.66385758
v 0.7107811 -0.1821454 0.69115442
v 0.71455419 -0.27523509 0.67114842
v -0.9022665 -0.2847122 0.62240553
v -0.89544928 -0.17480271 0.61192912
v 0.70719337 -0.27753851 0.64838612
v -0.89122802 -0.1662385 0.65494561
v -0.89544928 -0.17480271 0.61192912
v -0.9022665 -0.2847122 0.62240553
v 0.71455419 -0.27523509 0.67114842
v 0.70719337 -0.27753851 0.64838612
v 0.71361297 -0.1872697 0.66385758
v 0.7107811 -0.1821454 0.69115442
v 0.71361297 -0.1872697 0.66385758
v -0.89122802 -0.1662385 0.65494561
v -0.89544928 -0.17480271 0.61192912
v -0.89122802 -0.1662385 0.65494561
v 0.71361297 -0.1872697 0.66385758
v -0.90422982 -0.2840533 0.64863372
v -0.9022665 -0.2847122 0.62240553
v 0.71455419 -0.27523509 0.67114842
vn 0.00282 -0.99501 0.09978
vn -0.02307 -0.05095 0.99843
vn -0.01245 -0.21058 0.9775
vn 0.03309 0.16655 -0.98548
vn -0.99056 0.11344 -0.07699
vn 0.99484 0.0189 0.09966
vn 0.01649 -0.09589 -0.99526
vn -0.99406 0.06963 0.08369
vn 0.95183 -0.0152 -0.30626
vn 0.0139 0.983 -0.18309
vn 0.01394 0.98039 -0.19655
vn 0.00509 -0.99966 0.02549
vt 0.10018 0.03909
vt 0.10258 0.03912
vt 0.05068 -0.11408
vt 0.05629 0.10348
vt 0.12755 -0.04006
vt 0.1175 -0.04638
vt 0.06375 0.10003
vt 0.07269 0.10334
vt 0.1247 -0.04996
vt -0.06652 0.10472
vt -0.0584 0.10044
vt -0.1317 -0.04249
vt -0.10944 0.00915
vt -0.11676 0.01849
vt -0.10726 0.01063
vt 0.11339 0.01656
vt 0.11574 0.01505
vt 0.10787 0.00967
vt -0.10929 -0.04723
vt -0.11871 -0.04143
vt -0.0338 0.09493
vt -0.09953 0.0481
vt -0.09526 0.04918
vt -0.09141 0.03882
vt 0.10085 0.07671
vt 0.09844 0.07664
vt 0.1007 0.08554
vt -0.1098 0.03919
vt -0.10719 0.04017
vt -0.06609 -0.11498
vt -0.0636 -0.11408
vt -0.06795 -0.11475
vt -0.10789 0.0407
vt 0.04376 -0.11477
vt 0.04135 -0.11373
vt 0.09849 0.0376
usemtl mat0
f 349/349/103 350/350/103 351/351/103
f 352/352/104 353/353/104 354/354/104
f 355/355/105 356/356/105 357/357/105
f 358/358/106 359/359/106 360/360/106
f 361/361/107 362/362/107 363/363/107
f 364/364/108 365/365/108 366/366/108
f 367/367/109 368/368/109 369/369/109
f 370/370/110 371/371/110 372/372/110
f 373/373/111 374/374/111 375/375/111
f 376/376/112 377/377/112 378/378/112
f 379/379/113 380/380/113 381/381/113
f 382/382/114 383/383/114 384/384/114
# Vertices: 36, normals: 12, texture coordinates: 36, faces: 12

o obj14
v 0.60875928 -0.20765249 -0.66268629
v 0.5753119 -0.20915291 0.72687513
v 0.57429677 -0.1698765 0.72578132
v 0.60977441 -0.246929 -0.66159248
v 0.68422627 -0.1669616 0.72843051
v 0.68524128 -0.2062382 0.72952431
v 0.71970379 -0.2440142 -0.6589433
v 0.71868873 -0.20473769 -0.66003698
v 0.68524128 -0.2062382 0.72952431
v 0.5753119 -0.20915291 0.72687513
v 0.60977441 -0.246929 -0.66159248
v 0.71970379 -0.2440142 -0.6589433
v 0.71868873 -0.20473769 -0.66003698
v 0.57429677 -0.1698765 0.72578132
v 0.68422627 -0.1669616 0.72843051
v 0.60875928 -0.20765249 -0.66268629
v 0.57429677 -0.1698765 0.72578132
v 0.5753119 -0.20915291 0.72687513
v 0.68524128 -0.2062382 0.72952431
v 0.68422627 -0.1669616 0.72843051
v 0.71868873 -0.20473769 -0.66003698
v 0.60977441 -0.246929 -0.66159248
v 0.60875928 -0.20765249 -0.66268629
v 0.71970379 -0.2440142 -0.6589433
vn -0.99936 -0.0265 -0.02408
vn 0.99936 0.0265 0.02408
vn 0.02583 -0.99928 0.02783
vn -0.02583 0.99928 -0.02783
vn -0.0248 0.02719 0.99932
vn 0.0248 -0.02719 -0.99932
vt -0.01152 0.10342
vt -0.11971 0.01615
vt -0.12209 0.01928
vt -0.00914 0.10029
vt 0.12209 0.01928
vt 0.11971 0.01615
vt 0.00914 0.10029
vt 0.01152 0.10342
vt 0.10386 0.03496
vt 0.10008 0.02463
vt -0.03037 0.07246
vt -0.02659 0.08279
vt 0.02659 0.08279
vt -0.10008 0.02463
vt -0.10386 0.03496
vt 0.03037 0.07246
vt 0.05544 0.09062
vt 0.05189 0.08891
vt 0.04712 0.09882
vt 0.05066 0.10053
vt -0.05066 0.10053
vt -0.05189 0.08891
vt -0.05544 0.09062
vt -0.04712 0.09882
usemtl mat0
f 385/385/115 386/386/115 387/387/115
f 386/386/115 385/385/115 388/388/115
f 389/389/116 390/390/116 391/391/116
f 391/391/116 392/392/116 389/389/116
f 393/393/117 394/394/117 395/395/117
f 395/395/117 396/396/117 393/393/117
f 397/397/118 398/398/118 399/399/118
f 398/398/118 397/397/118 400/400/118
f 401/401/119 402/402/119 403/403/119
f 403/403/119 404/404/119 401/401/119
f 405/405/120 406/406/120 407/407/120
f 406/406/120 405/405/120 408/408/120
# Vertices: 24, normals: 6, texture coordinates: 24, faces: 12

o obj15
v 0.74512613 -0.2022521 -0.65824449
v 0.70679158 -0.2094983 0.73117262
v 0.70819581 -0.17022809 0.73030418
v 0.74372208 -0.2415223 -0.65737623
v 0.81808668 -0.1740907 0.733316
v 0.81668258 -0.21336091 0.73418432
v 0.8536129 -0.2453849 -0.65436441
v 0.85501713 -0.20611469 -0.65523273
v 0.81668258 -0.21336091 0.73418432
v 0.70679158 -0.2094983 0.73117262
v 0.74372208 -0.2415223 -0.65737623
v 0.8536129 -0.2453849 -0.65436441
v 0.85501713 -0.20611469 -0.65523273
v 0.70819581 -0.17022809 0.73030418
v 0.81808668 -0.1740907 0.733316
v 0.74512613 -0.2022521 -0.65824449
v 0.70819581 -0.17022809 0.73030418
v 0.70679158 -0.2094983 0.73117262
v 0.81668258 -0.21336091 0.73418432
v 0.81808668 -0.1740907 0.733316
v 0.85501713 -0.20611469 -0.65523273
v 0.74372208 -0.2415223 -0.65737623
v 0.74512613 -0.2022521 -0.65824449
v 0.8536129 -0.2453849 -0.65436441
vn -0.99901 0.03512 -0.02738
vn 0.99901 -0.03511 0.02738
vn -0.03572 -0.99912 0.02209
vn 0.03572 0.99912 -0.02209
vn -0.02658 0.02305 0.99938
vn 0.02658 -0.02305 -0.99938
vt -0.00838 0.10752
vt -0.12079 0.02577
vt -0.12301 0.02902
vt -0.00616 0.10428
vt 0.12301 0.02902
vt 0.12079 0.02577
vt 0.00616 0.10428
vt 0.00838 0.10752
vt 0.10682 0.04101
vt 0.10289 0.03074
vt -0.02687 0.08041
vt -0.02293 0.09068
vt 0.02293 0.09068
vt -0.10289 0.03074
vt -0.10682 0.04101
vt 0.02687 0.08041
vt 0.04961 0.10276
vt 0.04618 0.10084
vt 0.04081 0.11045
vt 0.04424 0.11236
vt -0.04424 0.11236
vt -0.04618 0.10084
vt -0.04961 0.10276
vt -0.04081 0.11045
usemtl mat0
f 409/409/121 410/410/121 411/411/121
f 410/410/121 409/409/121 412/412/121
f 413/413/122 414/414/122 415/415/122
f 415/415/122 416/416/122 413/413/122
f 417/417/123 418/418/123 419/419/123
f 419/419/123 420/420/123 417/417/123
f 421/421/124 422/422/124 423/423/124
f 422/422/124 421/421/124 424/424/124
f 425/425/125 426/426/125 427/427/125
f 427/427/125 428/428/125 425/425/125
f 429/429/126 430/430/126 431/431/126
f 430/430/126 429/429/126 432/432/126
# Vertices: 24, normals: 6, texture coordinates: 24, faces: 12

o obj16
v -0.76874512 -0.2004046 -0.72555017
v -0.84247923 -0.1801087 0.66230923
v -0.84558529 -0.1409705 0.66045868
v -0.76563913 -0.2395428 -0.72369969
v -0.73609817 -0.13201261 0.66614449
v -0.73299217 -0.17115089 0.66799498
v -0.65615189 -0.23058499 -0.71801388
v -0.65925801 -0.1914468 -0.71986443
v -0.73299217 -0.17115089 0.66799498
v -0.84247923 -0.1801087 0.66230923
v -0.76563913 -0.2395428 -0.72369969
v -0.65615189 -0.23058499 -0.71801388
v -0.65925801 -0.1914468 -0.71986443
v -0.84558529 -0.1409705 0.66045868
v -0.73609817 -0.13201261 0.66614449
v -0.76874512 -0.2004046 -0.72555017
v -0.84558529 -0.1409705 0.66045868
v -0.84247923 -0.1801087 0.66230923
v -0.73299217 -0.17115089 0.66799498
v -0.73609817 -0.13201261 0.66614449
v -0.65925801 -0.1914468 -0.71986443
v -0.76563913 -0.2395428 -0.72369969
v -0.76874512 -0.2004046 -0.72555017
v -0.65615189 -0.23058499 -0.71801388
vn -0.99534 -0.08143 -0.05169
vn 0.99534 0.08143 0.05169
vn 0.07902 -0.99576 0.04708
vn -0.07902 0.99576 -0.04708
vn -0.0553 0.04278 0.99755
vn 0.0553 -0.04278 -0.99755
vt -0.02701 0.10858
vt -0.12789 0.01296
vt -0.13051 0.01589
vt -0.02439 0.10565
vt 0.13051 0.01589
vt 0.12789 0.01296
vt 0.02439 0.10565
vt 0.02701 0.10858
vt 0.05738 -0.09229
vt 0.05345 -0.10256
vt -0.07628 -0.05282
vt -0.07235 -0.04255
vt 0.07235 -0.04255
vt -0.05345 -0.10256
vt -0.05738 -0.09229
vt 0.07628 -0.05282
vt 0.12108 -0.03152
vt 0.11747 -0.03306
vt 0.11314 -0.02295
vt 0.11675 -0.0214
vt -0.11675 -0.0214
vt -0.11747 -0.03306
vt -0.12108 -0.03152
vt -0.11314 -0.02295
usemtl mat0
f 433/433/127 434/434/127 435/435/127
f 434/434/127 433/433/127 436/436/127
f 437/437/128 438/438/128 439/439/128
f 439/439/128 440/440/128 437/437/128
f 441/441/129 442/442/129 443/443/129
f 443/443/129 444/444/129 441/441/129
f 445/445/130 446/446/130 447/447/130
f 446/446/130 445/445/130 448/448/130
f 449/449/131 450/450/131 451/451/131
f 451/451/131 452/452/131 449/449/131
f 453/453/132 454/454/132 455/455/132
f 454/454/132 453/453/132 456/456/132
# Vertices: 24, normals: 6, texture coordinates: 24, faces: 12

o obj17
v -0.633057 -0.1874911 -0.71737522
v -0.71135408 -0.17320091 0.67030889
v -0.71205169 -0.1339331 0.6687519
v -0.63235939 -0.226759 -0.71581823
v -0.602247 -0.1317375 0.67492467
v -0.60154939 -0.1710052 0.67648178
v -0.52255458 -0.2245634 -0.70964527
v -0.52325219 -0.18529551 -0.71120232
v -0.60154939 -0.1710052 0.67648178
v -0.71135408 -0.17320091 0.67030889
v -0.63235939 -0.226759 -0.71581823
v -0.52255458 -0.2245634 -0.70964527
v -0.52325219 -0.18529551 -0.71120232
v -0.71205169 -0.1339331 0.6687519
v -0.602247 -0.1317375 0.67492467
v -0.633057 -0.1874911 -0.71737522
v -0.71205169 -0.1339331 0.6687519
v -0.71135408 -0.17320091 0.67030889
v -0.60154939 -0.1710052 0.67648178
v -0.602247 -0.1317375 0.67492467
v -0.52325219 -0.18529551 -0.71120232
v -0.63235939 -0.226759 -0.71581823
v -0.633057 -0.1874911 -0.71737522
v -0.52255458 -0.2245634 -0.70964527
vn -0.99822 -0.01996 -0.05612
vn 0.99822 0.01996 0.05612
vn 0.01775 -0.99906 0.03961
vn -0.01775 0.99906 -0.03961
vn -0.05685 0.03855 0.99764
vn 0.05686 -0.03855 -0.99764
vt -0.01785 0.10687
vt -0.12421 0.01738
vt -0.12665 0.02046
vt -0.01541 0.10379
vt 0.12665 0.02046
vt 0.12421 0.01738
vt 0.01541 0.10379
vt 0.01785 0.10687
vt 0.05882 -0.08593
vt 0.05475 -0.09615
vt -0.07432 -0.04471
vt -0.07025 -0.03449
vt 0.07025 -0.03449
vt -0.05475 -0.09615
vt -0.05882 -0.08593
vt 0.07432 -0.04471
vt 0.11569 -0.01919
vt 0.11218 -0.02096
vt 0.10724 -0.01113
vt 0.11076 -0.00936
vt -0.11076 -0.00936
vt -0.11218 -0.02096
vt -0.11569 -0.01919
vt -0.10724 -0.01113
usemtl mat0
f 457/457/133 458/458/133 459/459/133
f 458/458/133 457/457/133 460/460/133
f 461/461/134 462/462/134 463/463/134
f 463/463/134 464/464/134 461/461/134
f 465/465/135 466/466/135 467/467/135
f 467/467/135 468/468/135 465/465/135
f 469/469/136 470/470/136 471/471/136
f 470/470/136 469/469/136 472/472/136
f 473/473/137 474/474/137 475/475/137
f 475/475/137 476/476/137 473/473/137
f 477/477/138 478/478/138 479/479/138
f 478/478/138 477/477/138 480/480/138
# Vertices: 24, normals: 6, texture coordinates: 24, faces: 12

