# File generated by ImageToStl.com - Free Image and 3D model conversion tools

mtllib psx_-_normal_building.mtl

o obj1
v 0.02280934 0.00230059 2.18129521
v 0.2768593 0.00230059 2.18129521
v 0.2768593 0.65193605 2.18129521
v 0.02280934 0.65193605 2.18129521
v 0.02280934 0.65193605 1.82666244
v 0.2768593 0.65193605 1.82666244
v 0.2768593 0.00230059 1.82666244
v 0.02280934 0.00230059 1.82666244
v 0.2768593 0.00230059 2.18129521
v 0.2768593 0.00230059 1.82666244
v 0.2768593 0.65193605 1.82666244
v 0.2768593 0.65193605 2.18129521
v 0.02280934 0.00230059 1.82666244
v 0.02280934 0.00230059 2.18129521
v 0.02280934 0.65193605 2.18129521
v 0.02280934 0.65193605 1.82666244
vn 0 0 1
vn 0 0 -1
vn 1 0 0
vn -1 0 0
vt -1.00475 1.6251
vt 1.88845 1.6251
vt 1.88845 -0.6251
vt -1.00475 -0.6251
usemtl mat0
f 1/1/1 2/2/1 3/3/1
f 1/1/1 3/3/1 4/4/1
f 5/1/2 6/2/2 7/3/2
f 5/1/2 7/3/2 8/4/2
f 9/1/3 10/2/3 11/3/3
f 9/1/3 11/3/3 12/4/3
f 13/1/4 14/2/4 15/3/4
f 13/1/4 15/3/4 16/4/4
# Vertices: 16, normals: 4, texture coordinates: 4, faces: 8

o obj2
v 0.02280934 0.65193605 2.18129521
v 0.2768593 0.65193605 2.18129521
v 0.2768593 0.65193605 1.82666244
v 0.02280934 0.65193605 1.82666244
v 0.02280934 0.00230059 1.82666244
v 0.2768593 0.00230059 1.82666244
v 0.2768593 0.00230059 2.18129521
v 0.02280934 0.00230059 2.18129521
vn 0 1 0
vn 0 -1 0
vt 1.02984 0.99801
vt 1.25418 0.99801
vt 1.25418 0.50308
vt 1.02984 0.50308
vt 1.02984 0.99801
vt 1.25418 0.99801
usemtl mat1
f 17/5/5 18/6/5 19/7/5
f 17/5/5 19/7/5 20/8/5
f 21/9/6 22/10/6 23/7/6
f 21/9/6 23/7/6 24/8/6
# Vertices: 8, normals: 2, texture coordinates: 6, faces: 4

