# File generated by ImageToStl.com - Free Image and 3D model conversion tools

mtllib model.mtl

o obj1
v 0.5 1.5625 -0.4375
v 0.5 1.5625 0.4375
v 0.375 0 0.3125
v 0.375 0 -0.3125
v -0.375 0 0.3125
v -0.5 1.5625 0.4375
v -0.5 1.5625 -0.4375
v -0.375 0 -0.3125
v -0.375 2.0625 0.25
v 0.375 2.0625 0.25
v 0.375 2.0625 -0.25
v -0.375 2.0625 -0.25
v 0.375 0 -0.3125
v 0.375 0 0.3125
v -0.375 0 0.3125
v -0.375 0 -0.3125
v 0.375 0 0.3125
v 0.5 1.5625 0.4375
v -0.5 1.5625 0.4375
v -0.375 0 0.3125
v -0.5 1.5625 -0.4375
v 0.5 1.5625 -0.4375
v 0.375 0 -0.3125
v -0.375 0 -0.3125
v 0.53125 1.625 0.46875
v -0.53125 1.625 0.46875
v -0.53125 1.5625 0.46875
v 0.53125 1.5625 0.46875
v 0.53125 1.625 -0.46875
v 0.53125 1.625 0.46875
v 0.53125 1.5625 0.46875
v 0.53125 1.5625 -0.46875
v -0.53125 1.625 -0.46875
v 0.53125 1.625 -0.46875
v 0.53125 1.5625 -0.46875
v -0.53125 1.5625 -0.46875
v -0.53125 1.625 0.46875
v -0.53125 1.625 -0.46875
v -0.53125 1.5625 -0.46875
v -0.53125 1.5625 0.46875
v 0.375 2.0625 0.25
v -0.375 2.0625 0.25
v -0.5 1.625 0.4375
v 0.5 1.625 0.4375
v 0.375 2.0625 -0.25
v 0.375 2.0625 0.25
v 0.5 1.625 0.4375
v 0.5 1.625 -0.4375
v -0.375 2.0625 -0.25
v 0.375 2.0625 -0.25
v 0.5 1.625 -0.4375
v -0.5 1.625 -0.4375
v -0.375 2.0625 0.25
v -0.375 2.0625 -0.25
v -0.5 1.625 -0.4375
v -0.5 1.625 0.4375
v 0.53125 1.625 -0.46875
v -0.5 1.625 -0.4375
v 0.5 1.625 -0.4375
v -0.53125 1.5625 -0.46875
v 0.53125 1.5625 -0.46875
v 0.5 1.5625 -0.4375
v -0.5 1.5625 -0.4375
v -0.53125 1.625 0.46875
v -0.5 1.625 0.4375
v -0.53125 1.5625 0.46875
v -0.5 1.5625 0.4375
v 0.53125 1.625 0.46875
v 0.5 1.625 0.4375
v 0.53125 1.5625 0.46875
v 0.5 1.5625 0.4375
vn 0.99682 -0.07975 0
vn -0.99682 -0.07975 0
vn 0 1 0
vn 0 -1 0
vn 0 -0.07975 0.99682
vn 0 -0.07975 -0.99682
vn 0 0 1
vn 1 0 0
vn 0 0 -1
vn -1 0 0
vn 0 0.39392 0.91915
vn 0.96152 0.27472 0
vn 0 0.39392 -0.91915
vn -0.96152 0.27472 0
vt 0.22041 0.57005
vt 0.00166 0.57005
vt 0.03291 0.17818
vt 0.18916 0.17818
vt 0.19306 0.17818
vt 0.22431 0.57005
vt 0.00556 0.57005
vt 0.03681 0.17818
vt 0 0.875
vt 0.1875 0.875
vt 0.1875 1
vt 0 1
vt 0.20312 0.84375
vt 0.20312 1
vt 0.01562 1
vt 0.01562 0.84375
vt 0.21875 0.17969
vt 0.25 0.57031
vt 0 0.57031
vt 0.03125 0.17969
vt 0.26562 1
vt 0 0.98438
vt 0.26562 0.98438
vt 0.23438 1
vt 0.23438 0.98438
vt 0.21875 1
vt 0.03125 1
vt 0.25 0.875
vt 0.17188 1
vt 0.04688 1
vt 0 0.89062
vt 0.21875 0.89062
vt 0.57812 1
vt 0.32812 1
vt 0.32812 0.875
vt 0.57812 0.875
vt 0.00781 0.99219
vt 0.25781 0.99219
vt 0 0.76562
vt 0.26562 0.76562
vt 0.25781 0.77344
vt 0.00781 0.77344
usemtl mat0
f 1/1/1 2/2/1 3/3/1
f 1/1/1 3/3/1 4/4/1
f 5/5/2 6/6/2 7/7/2
f 5/5/2 7/7/2 8/8/2
f 9/9/3 10/10/3 11/11/3
f 9/9/3 11/11/3 12/12/3
f 13/13/4 14/14/4 15/15/4
f 13/13/4 15/15/4 16/16/4
f 17/17/5 18/18/5 19/19/5
f 17/17/5 19/19/5 20/20/5
f 21/18/6 22/19/6 23/20/6
f 21/18/6 23/20/6 24/17/6
f 25/21/7 26/12/7 27/22/7
f 25/21/7 27/22/7 28/23/7
f 29/24/8 30/12/8 31/22/8
f 29/24/8 31/22/8 32/25/8
f 33/21/9 34/12/9 35/22/9
f 33/21/9 35/22/9 36/23/9
f 37/24/10 38/12/10 39/22/10
f 37/24/10 39/22/10 40/25/10
f 41/26/11 42/27/11 43/9/11
f 41/26/11 43/9/11 44/28/11
f 45/29/12 46/30/12 47/31/12
f 45/29/12 47/31/12 48/32/12
f 49/33/13 50/34/13 51/35/13
f 49/33/13 51/35/13 52/36/13
f 53/29/14 54/30/14 55/31/14
f 53/29/14 55/31/14 56/32/14
f 57/21/3 38/12/3 58/37/3
f 57/21/3 58/37/3 59/38/3
f 60/39/4 61/40/4 62/41/4
f 60/39/4 62/41/4 63/42/4
f 38/12/3 64/39/3 65/42/3
f 38/12/3 65/42/3 58/37/3
f 66/12/4 60/39/4 63/42/4
f 66/12/4 63/42/4 67/37/4
f 64/39/3 68/40/3 69/41/3
f 64/39/3 69/41/3 65/42/3
f 70/21/4 66/12/4 67/37/4
f 70/21/4 67/37/4 71/38/4
f 68/40/3 57/21/3 59/38/3
f 68/40/3 59/38/3 69/41/3
f 61/40/4 70/21/4 71/38/4
f 61/40/4 71/38/4 62/41/4
# Vertices: 71, normals: 14, texture coordinates: 42, faces: 44

