mtllib scene.mtl
o Plane_fastfood_0
usemtl fastfood
v -1.698970637493491 2.3768750678235135 1.2106794744223925
v 1.698970637493491 2.3768750678235135 1.2106794744223925
v 1.698970637493491 2.8083778772399475 1.210679404121662
v -1.698970637493491 2.8083778772399475 1.210679404121662
v -2.1035539633731393 2.2687241067031856 1.1829187485680728
v -2.1035539633731393 2.5949014580398684 1.1829186954270372
v -2.1035539633731393 2.5949010725958965 -1.182919540953189
v -2.1035539633731393 2.2687237212592137 -1.1829194878121534
v -2.1035539633731393 2.2687237212592137 -1.1829194878121534
v -2.1035539633731393 2.5949010725958965 -1.182919540953189
v 2.1035539633731393 2.5949010725958965 -1.182919540953189
v 2.1035539633731393 2.2687237212592137 -1.1829194878121534
v 2.1035539633731393 2.2687237212592137 -1.1829194878121534
v 2.1035539633731393 2.5949010725958965 -1.182919540953189
v 2.1035539633731393 2.5949014580398684 1.1829186954270372
v 2.1035539633731393 2.2687241067031856 1.1829187485680728
v 2.1035539633731393 2.2687241067031856 1.1829187485680728
v 2.1035539633731393 2.5949014580398684 1.1829186954270372
v -2.1035539633731393 2.5949014580398684 1.1829186954270372
v -2.1035539633731393 2.2687241067031856 1.1829187485680728
v 2.1035539633731393 -0.009506149998112577 1.1829191197388929
v 2.1035539633731393 2.2687241067031856 1.1829187485680728
v -2.1035539633731393 2.2687241067031856 1.1829187485680728
v -2.1035539633731393 -0.009506149998112577 1.1829191197388929
v 2.1035539633731393 -0.009506535442084327 -1.1829191166413333
v 2.1035539633731393 2.2687237212592137 -1.1829194878121534
v 2.1035539633731393 2.2687241067031856 1.1829187485680728
v 2.1035539633731393 -0.009506149998112577 1.1829191197388929
v -2.1035539633731393 -0.009506535442084327 -1.1829191166413333
v -2.1035539633731393 2.2687237212592137 -1.1829194878121534
v 2.1035539633731393 2.2687237212592137 -1.1829194878121534
v 2.1035539633731393 -0.009506535442084327 -1.1829191166413333
v -2.1035539633731393 -0.009506149998112577 1.1829191197388929
v -2.1035539633731393 2.2687241067031856 1.1829187485680728
v -2.1035539633731393 2.2687237212592137 -1.1829194878121534
v -2.1035539633731393 -0.009506535442084327 -1.1829191166413333
v -2.1035539633731393 2.2687241067031856 1.1829187485680728
v 2.1035539633731393 2.2687241067031856 1.1829187485680728
v 2.1035539633731393 2.186130341505642 2.1085410853520745
v -2.1035539633731393 2.186130341505642 2.1085410853520745
v -2.1035539633731393 2.186130341505642 2.1085410853520745
v 2.1035539633731393 2.186130341505642 2.1085410853520745
v 2.1035539633731393 2.0494230386530874 2.108541107624521
v -2.1035539633731393 2.0494230386530874 2.108541107624521
vt 0.8493432998657227 0.8245776891708374
vt 0.019454509019851685 0.824577808380127
vt 0.019454509019851685 0.9299647808074951
vt 0.8493432998657227 0.9299647808074951
vt 0.6592845916748047 0.45766305923461914
vt 0.6592845916748047 0.3704618215560913
vt 0.010380983352661133 0.3704618215560913
vt 0.010380983352661133 0.45766305923461914
vt 0.6592845916748047 0.37046194076538086
vt 0.6592845916748047 0.45766305923461914
vt 0.010380983352661133 0.45766305923461914
vt 0.010380983352661133 0.37046194076538086
vt 0.010380983352661133 0.37046194076538086
vt 0.010380983352661133 0.45766305923461914
vt 0.6592845916748047 0.45766305923461914
vt 0.6592845916748047 0.37046194076538086
vt 0.010380983352661133 0.45766305923461914
vt 0.010380983352661133 0.37046194076538086
vt 0.6592845916748047 0.37046194076538086
vt 0.6592845916748047 0.45766305923461914
vt 0.6412234902381897 0.35444003343582153
vt 0.6412236094474792 0.01000446081161499
vt 0.011022984981536865 0.01000434160232544
vt 0.01102292537689209 0.35444003343582153
vt 0.9849600195884705 0.35444003343582153
vt 0.9849600195884705 0.013624072074890137
vt 0.6412234902381897 0.013624072074890137
vt 0.6412234902381897 0.35444003343582153
vt 0.7330959439277649 0.636961817741394
vt 0.9828709363937378 0.636961817741394
vt 0.982870876789093 0.37085068225860596
vt 0.7330958843231201 0.37085068225860596
vt 0.7330959439277649 0.636961817741394
vt 0.9828709363937378 0.636961817741394
vt 0.982870876789093 0.37085068225860596
vt 0.7330958843231201 0.37085068225860596
vt 0.6203508377075195 0.4961049556732178
vt 0.010896801948547363 0.4961049556732178
vt 0.010896801948547363 0.7354508638381958
vt 0.6203508377075195 0.7354508638381958
vt 0.6203508377075195 0.7354508638381958
vt 0.010896801948547363 0.7354508638381958
vt 0.010896801948547363 0.7697765827178955
vt 0.6203508377075195 0.7697765827178955
vn 0 1.6292067894774215e-7 0.9999999999999868
vn 0 1.6292067894774215e-7 0.9999999999999868
vn 0 1.6292067894774215e-7 0.9999999999999868
vn 0 1.6292067894774215e-7 0.9999999999999868
vn -1 0 0
vn -1 0 0
vn -1 0 0
vn -1 0 0
vn 0 -1.6292067894774215e-7 -0.9999999999999868
vn 0 -1.6292067894774215e-7 -0.9999999999999868
vn 0 -1.6292067894774215e-7 -0.9999999999999868
vn 0 -1.6292067894774215e-7 -0.9999999999999868
vn 1 0 0
vn 1 0 0
vn 1 0 0
vn 1 0 0
vn 0 1.6292067894774215e-7 0.9999999999999868
vn 0 1.6292067894774215e-7 0.9999999999999868
vn 0 1.6292067894774215e-7 0.9999999999999868
vn 0 1.6292067894774215e-7 0.9999999999999868
vn 0 1.6292067894774215e-7 0.9999999999999868
vn 0 1.6292067894774215e-7 0.9999999999999868
vn 0 1.6292067894774215e-7 0.9999999999999868
vn 0 1.6292067894774215e-7 0.9999999999999868
vn 1 0 0
vn 1 0 0
vn 1 0 0
vn 1 0 0
vn 0 -1.6292067894774215e-7 -0.9999999999999868
vn 0 -1.6292067894774215e-7 -0.9999999999999868
vn 0 -1.6292067894774215e-7 -0.9999999999999868
vn 0 -1.6292067894774215e-7 -0.9999999999999868
vn -1 0 0
vn -1 0 0
vn -1 0 0
vn -1 0 0
vn 0 -0.9960425733260372 -0.08887739938840446
vn 0 -0.9960425733260372 -0.08887739938840446
vn 0 -0.9960425733260372 -0.08887739938840446
vn 0 -0.9960425733260372 -0.08887739938840446
vn 0 -1.6292067894774215e-7 -0.9999999999999868
vn 0 -1.6292067894774215e-7 -0.9999999999999868
vn 0 -1.6292067894774215e-7 -0.9999999999999868
vn 0 -1.6292067894774215e-7 -0.9999999999999868
f 1/1/1 2/2/2 3/3/3
f 1/1/1 3/3/3 4/4/4
f 5/5/5 6/6/6 7/7/7
f 5/5/5 7/7/7 8/8/8
f 9/9/9 10/10/10 11/11/11
f 9/9/9 11/11/11 12/12/12
f 13/13/13 14/14/14 15/15/15
f 13/13/13 15/15/15 16/16/16
f 17/17/17 18/18/18 19/19/19
f 17/17/17 19/19/19 20/20/20
f 21/21/21 22/22/22 23/23/23
f 21/21/21 23/23/23 24/24/24
f 25/25/25 26/26/26 27/27/27
f 25/25/25 27/27/27 28/28/28
f 29/29/29 30/30/30 31/31/31
f 29/29/29 31/31/31 32/32/32
f 33/33/33 34/34/34 35/35/35
f 33/33/33 35/35/35 36/36/36
f 37/37/37 38/38/38 39/39/39
f 37/37/37 39/39/39 40/40/40
f 41/41/41 42/42/42 43/43/43
f 41/41/41 43/43/43 44/44/44
